<svg xmlns="http://www.w3.org/2000/svg" viewBox="0 0 4800 2700"><defs><style>.cls-1{fill:#ffce4d;}.cls-2{fill:#f8950d;}.cls-3{opacity:0.6;}.cls-4{fill:#fff5be;}.cls-5{fill:#254356;}.cls-6{fill:#0f4b6a;}.cls-7{isolation:isolate;}.cls-8{fill:#bcbdbe;}.cls-9{fill:#fff;}.cls-10,.cls-22,.cls-23{fill:#0e455b;}.cls-11{fill:gray;}.cls-12{fill:#d9391e;}.cls-13{fill:#f86f6b;}.cls-14{fill:#1a9bf0;}.cls-15{fill:#39b9f8;}.cls-16{fill:#31536b;}.cls-17{fill:#fefefe;}.cls-18{opacity:0.42;}.cls-19{font-size:125.62px;}.cls-19,.cls-21{font-family:Digital-Display, Digital Display;}.cls-20{font-family:Digital-7;}.cls-21{font-size:212px;}.cls-22,.cls-23{font-size:146.41px;}.cls-22{font-family:OpenSans-Bold, Open Sans;font-weight:700;}.cls-23{font-family:OpenSans-SemiBold, Open Sans;font-weight:600;}.cls-24{fill:#efbca3;}.cls-25{fill:#d6a490;}.cls-26{fill:#ffd7bf;}</style></defs><g id="Background"><rect class="cls-1" width="4800" height="2700"/></g><g id="_20-Percentage" data-name="20-Percentage"><polygon class="cls-2" points="2371.41 952.04 1422.22 1500.06 982.48 1246.17 0 1813.41 0 2321.18 0 2700 3500.59 2700 4800 2700 4800 2354.19 2371.41 952.04"/><path class="cls-3" d="M656.32,1433.38s-9.19,16.34,8.17,30.64,89.87,54.13,89.87,54.13l6.13,33.7,952.85,551.49L2685.6,2665l98-59.23s33.19,4.08,99.06-14.3,175.66-62.3,227.75-86.81,306.64-157.79,457.53-266.55c75.45-54.39,120.89-102.64,147.48-137.3a195.29,195.29,0,0,0,38.95-97.11l.72-6.36-3.19-14.49Z"/><polygon class="cls-4" points="2372.06 950.32 4800 2359.68 4799.58 0 4025.51 0.53 2372.06 950.32"/><path class="cls-5" d="M1853.09,760.53a59.08,59.08,0,0,1,56.51,2.63C2272.33,980.72,3625.11,1792,3686.16,1827.68c53.6,31.3,53.08,127,50.68,162.51l15.1-7.3s20.11-124.49-50.44-165.7c-61.05-35.63-1413.83-846.92-1776.56-1064.49C1900.31,737.94,1871.47,743.24,1853.09,760.53Z"/><path class="cls-6" d="M3686.15,1827.67C3625.09,1792,2272.31,980.72,1909.6,763.17c-39.47-23.67-89.74,4.28-90.49,50.3l.27,72.42,1917.46,1104.3S3756.7,1868.86,3686.15,1827.67Z"/><polygon class="cls-5" points="2686.65 2651.01 3573.92 2139.53 2533.49 1667.11 1987.37 2097.54 2686.65 2651.01"/><g class="cls-7"><path class="cls-8" d="M3738.29,1944.72c0,10.3-3.34,20.69-10.33,30.59-41,58.11-142.42,162.57-391.48,306.37-268.16,154.81-444.34,210.44-538.58,230.4-45.93,9.72-97.36,3.16-132.3-16.56l-1969-1112.69c-36.59-20.71-54.95-48.13-55-75.6l.23,83.55c.08,27.47,18.44,54.89,55,75.6l1969,1112.69c34.94,19.72,86.37,26.28,132.3,16.56,94.23-20,270.42-75.59,538.57-230.4,249.07-143.8,350.45-248.26,391.48-306.37,7-9.9,10.37-20.29,10.34-30.59Z"/><path class="cls-9" d="M1107,986.05c151.8-87.64,411.56-229.95,425.23-237.44,72.55-41.89,190-41.44,261.1,1L3698.72,1888.35c38.57,23.05,50.25,57.18,29.23,87-41,58.11-142.41,162.57-391.48,306.37-268.15,154.81-444.33,210.44-538.57,230.4-45.93,9.72-97.36,3.16-132.3-16.56l-1969-1112.69c-73-41.33-73.42-109.36-.89-151.23C706.75,1224.8,917.23,1095.62,1107,986.05Z"/></g><path class="cls-6" d="M1731.14,771.22l546.76,324.67c31.77,18.87,31.21,49.08-1.25,67.83L1609.36,1549l42.21,53c10.69,14,5.31,30.37-13.51,41.24l-141.63,81.74c-13,7.48-33.84,7.61-46.87.29L754.47,1335.05c-18.81-10.58-29.24-24.84-29.34-40.11s10.22-29.62,29-40.45l.94-.55.9-.54c2.21-1.36,223.07-136.83,409.91-244.7,149.41-86.26,421.34-235.31,424.08-236.8l.82-.45.73-.43c14.1-8.14,32-13.82,51.63-15.83C1676.41,751.78,1708.54,757.83,1731.14,771.22Z"/><path class="cls-10" d="M1599.44,766.91l242,139.69c16.29,9.4,16.19,24.72-.24,34.21L1059.4,1392.15c-16.42,9.48-43,9.54-59.25.14l-242.43-140"/><path class="cls-8" d="M2107.35,1095.31,1327,1545.84c-16.82,9.71-46.19,8.49-65.61-2.72l-124-71.6c-19.41-11.21-21.52-28.17-4.71-37.88L1913,983.11c16.82-9.71,46.19-8.49,65.61,2.72l124,71.6C2122.06,1068.64,2124.17,1085.6,2107.35,1095.31Z"/><g class="cls-7"><path class="cls-8" d="M1606.69,1575c0,6.24-4.19,12.38-12.13,17l-113.21,65.36c-17.08,9.86-44.7,9.86-61.69,0L1341,1611.57c-8.43-4.9-12.65-11.31-12.67-17.74l.07,22.28c0,6.43,4.24,12.84,12.67,17.74l78.69,45.73c17,9.87,44.6,9.87,61.68,0l113.21-65.36c7.94-4.59,12.15-10.73,12.14-17Z"/><path class="cls-9" d="M1484.73,1493c21-12.1,56.38-7.87,67.25,8l51.83,65.28c6,8.84,2.42,18.94-9.25,25.68l-113.21,65.36c-17.08,9.86-44.7,9.86-61.69,0L1341,1611.57c-17-9.86-16.88-25.86.2-35.72Z"/></g><path class="cls-11" d="M2539.63,1270.21l.06,22.28c0,6-3.93,12-11.84,16.55l-.06-22.28C2535.7,1282.19,2539.65,1276.2,2539.63,1270.21Z"/><path class="cls-11" d="M2308.79,1318.44l-.06-22.29c0,5.91,3.9,11.81,11.66,16.33l.07,22.28C2312.69,1330.24,2308.81,1324.34,2308.79,1318.44Z"/><polygon class="cls-11" points="2373.27 1343.2 2373.34 1365.49 2320.46 1334.76 2320.39 1312.48 2373.27 1343.2"/><polygon class="cls-11" points="2527.79 1286.76 2527.85 1309.04 2430.08 1365.49 2430.02 1343.21 2527.79 1286.76"/><path class="cls-11" d="M2430,1343.21l.06,22.28c-15.72,9.08-41.14,9.06-56.74,0l-.07-22.28C2388.88,1352.27,2414.29,1352.29,2430,1343.21Z"/><path class="cls-8" d="M2418.35,1223.16c15.72-9.08,41.12-9.08,56.74,0l52.88,30.73c15.61,9.07,15.54,23.79-.18,32.87L2430,1343.21c-15.73,9.08-41.14,9.06-56.75,0l-52.88-30.73c-15.62-9.08-15.54-23.79.19-32.87Z"/><path class="cls-11" d="M2357.71,1375.24l.06,22.28c0,6-3.93,12-11.84,16.55l-.07-22.28C2353.78,1387.23,2357.72,1381.23,2357.71,1375.24Z"/><path class="cls-11" d="M2126.87,1423.47l-.06-22.28c0,5.91,3.9,11.81,11.66,16.32l.06,22.28C2130.77,1435.28,2126.88,1429.38,2126.87,1423.47Z"/><polygon class="cls-11" points="2191.35 1448.24 2191.41 1470.52 2138.53 1439.79 2138.47 1417.51 2191.35 1448.24"/><polygon class="cls-11" points="2345.86 1391.79 2345.93 1414.07 2248.16 1470.52 2248.1 1448.24 2345.86 1391.79"/><path class="cls-11" d="M2248.1,1448.24l.06,22.28c-15.73,9.08-41.14,9.07-56.75,0l-.06-22.28C2207,1457.31,2232.37,1457.32,2248.1,1448.24Z"/><path class="cls-8" d="M2236.42,1328.19c15.73-9.08,41.13-9.08,56.75,0l52.88,30.73c15.6,9.07,15.54,23.79-.19,32.87l-97.76,56.45c-15.73,9.08-41.15,9.07-56.75,0l-52.88-30.73c-15.63-9.08-15.54-23.79.18-32.87Z"/><path class="cls-11" d="M2175.77,1480.28l.07,22.28c0,6-3.93,12-11.84,16.55l-.06-22.28C2171.84,1492.26,2175.79,1486.27,2175.77,1480.28Z"/><path class="cls-11" d="M1944.93,1528.52l-.06-22.28c0,5.91,3.89,11.81,11.65,16.32l.07,22.28C1948.83,1540.33,1945,1534.43,1944.93,1528.52Z"/><polygon class="cls-11" points="2009.4 1553.29 2009.47 1575.57 1956.59 1544.84 1956.53 1522.56 2009.4 1553.29"/><polygon class="cls-11" points="2163.94 1496.83 2164 1519.11 2066.21 1575.57 2066.15 1553.29 2163.94 1496.83"/><path class="cls-11" d="M2066.15,1553.29l.06,22.28c-15.7,9.06-41.14,9.06-56.74,0l-.07-22.28C2025,1562.35,2050.45,1562.35,2066.15,1553.29Z"/><path class="cls-8" d="M2054.5,1433.23c15.7-9.07,41.12-9.08,56.75,0l52.88,30.73c15.6,9.06,15.52,23.8-.19,32.87l-97.79,56.46c-15.7,9.06-41.14,9.06-56.75,0l-52.88-30.73c-15.62-9.09-15.52-23.81.19-32.88Z"/><path class="cls-11" d="M1993.84,1585.32l.06,22.28c0,6-3.93,12-11.84,16.55l-.06-22.28C1989.91,1597.3,1993.85,1591.31,1993.84,1585.32Z"/><path class="cls-11" d="M1763,1633.55l-.06-22.28c0,5.91,3.9,11.81,11.66,16.32l.06,22.28C1766.9,1645.36,1763,1639.46,1763,1633.55Z"/><polygon class="cls-11" points="1827.48 1658.32 1827.54 1680.6 1774.66 1649.87 1774.6 1627.59 1827.48 1658.32"/><polygon class="cls-11" points="1981.99 1601.87 1982.06 1624.15 1884.29 1680.6 1884.23 1658.32 1981.99 1601.87"/><path class="cls-11" d="M1884.23,1658.32l.06,22.28c-15.73,9.08-41.14,9.07-56.75,0l-.06-22.28C1843.08,1667.39,1868.5,1667.4,1884.23,1658.32Z"/><path class="cls-8" d="M1872.55,1538.27c15.73-9.08,41.13-9.08,56.75,0l52.88,30.73c15.6,9.07,15.54,23.79-.18,32.87l-97.77,56.45c-15.73,9.08-41.15,9.07-56.75,0l-52.88-30.73c-15.62-9.08-15.54-23.79.19-32.87Z"/><g class="cls-7"><path class="cls-12" d="M1811.91,1690.36c0,6-3.93,12-11.84,16.55l-97.77,56.44c-15.72,9.08-41.14,9.07-56.74,0l-52.88-30.73c-7.76-4.51-11.65-10.41-11.67-16.32l.07,22.28c0,5.91,3.9,11.81,11.66,16.32l52.88,30.73c15.6,9.07,41,9.08,56.75,0l97.76-56.44c7.91-4.57,11.86-10.56,11.84-16.55Z"/><path class="cls-13" d="M1690.63,1643.31c15.71-9.07,41.12-9.08,56.75,0l52.88,30.73c15.6,9.06,15.52,23.8-.19,32.87l-97.77,56.44c-15.72,9.08-41.14,9.07-56.74,0l-52.88-30.73c-15.63-9.08-15.54-23.79.18-32.87Z"/></g><path class="cls-11" d="M2690.86,1358.09l.06,22.28c0,6-3.93,12-11.85,16.55l-.06-22.28C2686.93,1370.07,2690.88,1364.08,2690.86,1358.09Z"/><path class="cls-11" d="M2460,1406.33l-.07-22.28c0,5.91,3.91,11.81,11.67,16.32l.06,22.28C2463.94,1418.14,2460.05,1412.24,2460,1406.33Z"/><polygon class="cls-11" points="2524.5 1431.09 2524.56 1453.37 2471.7 1422.65 2471.64 1400.37 2524.5 1431.09"/><polygon class="cls-11" points="2679.01 1374.64 2679.07 1396.92 2581.31 1453.37 2581.24 1431.09 2679.01 1374.64"/><path class="cls-11" d="M2581.24,1431.09l.07,22.28c-15.73,9.08-41.13,9.08-56.75,0l-.06-22.28C2540.12,1440.17,2565.52,1440.17,2581.24,1431.09Z"/><path class="cls-8" d="M2569.59,1311.05c15.73-9.08,41.12-9.08,56.75,0l52.86,30.72c15.62,9.08,15.54,23.79-.19,32.87l-97.77,56.45c-15.72,9.08-41.12,9.08-56.74,0l-52.86-30.72c-15.63-9.08-15.54-23.79.18-32.87Z"/><path class="cls-11" d="M2508.94,1463.13l.06,22.28c0,6-3.93,12-11.85,16.55l-.06-22.28C2505,1475.11,2509,1469.11,2508.94,1463.13Z"/><path class="cls-11" d="M2278.11,1511.36l-.06-22.28c0,5.91,3.9,11.81,11.67,16.32l.06,22.28C2282,1523.17,2278.13,1517.27,2278.11,1511.36Z"/><polygon class="cls-11" points="2342.57 1536.12 2342.64 1558.4 2289.78 1527.68 2289.72 1505.4 2342.57 1536.12"/><polygon class="cls-11" points="2497.09 1479.67 2497.15 1501.95 2399.38 1558.4 2399.32 1536.12 2497.09 1479.67"/><path class="cls-11" d="M2399.32,1536.12l.06,22.28c-15.72,9.08-41.12,9.08-56.74,0l-.07-22.28C2358.2,1545.2,2383.59,1545.2,2399.32,1536.12Z"/><path class="cls-8" d="M2387.67,1416.09c15.73-9.08,41.12-9.08,56.75,0l52.85,30.71c15.63,9.08,15.55,23.79-.18,32.88l-97.77,56.44c-15.73,9.08-41.12,9.08-56.75,0l-52.85-30.72c-15.63-9.08-15.55-23.79.18-32.87Z"/><path class="cls-11" d="M2327,1568.16l.06,22.28c0,6-3.94,12-11.84,16.55l-.07-22.28C2323.07,1580.14,2327,1574.15,2327,1568.16Z"/><path class="cls-11" d="M2096.18,1616.41l-.07-22.28c0,5.91,3.9,11.81,11.66,16.32l.06,22.28C2100.07,1628.22,2096.19,1622.32,2096.18,1616.41Z"/><polygon class="cls-11" points="2160.63 1641.17 2160.69 1663.45 2107.83 1632.73 2107.77 1610.45 2160.63 1641.17"/><polygon class="cls-11" points="2315.16 1584.71 2315.23 1606.99 2217.44 1663.45 2217.38 1641.17 2315.16 1584.71"/><path class="cls-11" d="M2217.38,1641.17l.06,22.28c-15.71,9.07-41.12,9.08-56.75,0l-.06-22.28C2176.25,1650.25,2201.67,1650.23,2217.38,1641.17Z"/><path class="cls-8" d="M2205.75,1521.12c15.7-9.07,41.12-9.08,56.74,0l52.86,30.72c15.63,9.08,15.52,23.8-.19,32.87l-97.78,56.46c-15.71,9.06-41.13,9.08-56.75,0l-52.86-30.72c-15.62-9.08-15.52-23.8.19-32.87Z"/><path class="cls-11" d="M2145.07,1673.2l.06,22.29c0,6-3.93,12-11.85,16.54l-.06-22.28C2141.13,1685.19,2145.09,1679.19,2145.07,1673.2Z"/><path class="cls-11" d="M1914.25,1721.44l-.07-22.28c0,5.91,3.9,11.81,11.67,16.32l.06,22.28C1918.15,1733.25,1914.26,1727.35,1914.25,1721.44Z"/><polygon class="cls-11" points="1978.7 1746.2 1978.77 1768.48 1925.91 1737.76 1925.85 1715.48 1978.7 1746.2"/><polygon class="cls-11" points="2133.22 1689.76 2133.28 1712.04 2035.52 1768.48 2035.45 1746.2 2133.22 1689.76"/><path class="cls-11" d="M2035.45,1746.2l.07,22.28c-15.73,9.08-41.13,9.08-56.75,0l-.07-22.28C1994.33,1755.28,2019.72,1755.28,2035.45,1746.2Z"/><path class="cls-8" d="M2023.8,1626.17c15.73-9.08,41.12-9.08,56.75,0l52.85,30.71c15.63,9.08,15.55,23.79-.18,32.87l-97.77,56.45c-15.73,9.08-41.12,9.08-56.75,0l-52.85-30.72c-15.63-9.08-15.55-23.79.18-32.87Z"/><path class="cls-11" d="M1963.14,1778.24l.06,22.28c0,6-3.93,12-11.84,16.55l-.06-22.28C1959.2,1790.22,1963.15,1784.23,1963.14,1778.24Z"/><path class="cls-11" d="M1732.32,1826.48l-.06-22.28c0,5.91,3.9,11.81,11.66,16.32l.07,22.28C1736.22,1838.29,1732.34,1832.39,1732.32,1826.48Z"/><polygon class="cls-11" points="1796.78 1851.23 1796.84 1873.51 1743.99 1842.8 1743.92 1820.52 1796.78 1851.23"/><polygon class="cls-11" points="1951.3 1794.79 1951.36 1817.07 1853.59 1873.52 1853.53 1851.23 1951.3 1794.79"/><path class="cls-11" d="M1853.53,1851.23l.06,22.28c-15.73,9.08-41.12,9.08-56.75,0l-.06-22.28C1812.41,1860.31,1837.8,1860.31,1853.53,1851.23Z"/><path class="cls-8" d="M1841.88,1731.2c15.7-9.07,41.12-9.08,56.74,0l52.86,30.72c15.63,9.08,15.52,23.8-.18,32.87l-97.77,56.44c-15.73,9.08-41.12,9.08-56.75,0l-52.86-30.71c-15.62-9.08-15.54-23.79.19-32.87Z"/><path class="cls-14" d="M2863.63,1458.49l.06,22.28c0,6-3.93,12-11.85,16.55l-.06-22.28C2859.69,1470.47,2863.64,1464.48,2863.63,1458.49Z"/><path class="cls-14" d="M2611.27,1494.21l-.06-22.28c0,5.91,3.9,11.82,11.65,16.32l.07,22.28C2615.17,1506,2611.29,1500.12,2611.27,1494.21Z"/><polygon class="cls-14" points="2697.26 1531.49 2697.32 1553.77 2622.93 1510.53 2622.86 1488.25 2697.26 1531.49"/><polygon class="cls-14" points="2851.78 1475.04 2851.84 1497.32 2754.07 1553.77 2754.01 1531.49 2851.78 1475.04"/><path class="cls-14" d="M2754,1531.49l.06,22.28c-15.72,9.08-41.12,9.08-56.74,0l-.07-22.28C2712.89,1540.57,2738.28,1540.57,2754,1531.49Z"/><path class="cls-15" d="M2720.82,1398.94c15.72-9.08,41.14-9.07,56.74,0l74.4,43.23c15.63,9.08,15.55,23.79-.18,32.87L2754,1531.49c-15.73,9.08-41.12,9.08-56.75,0l-74.4-43.24c-15.6-9.07-15.54-23.79.19-32.87Z"/><path class="cls-11" d="M2660.18,1551l.07,22.28c0,6-3.94,12-11.85,16.55l-.07-22.28C2656.25,1563,2660.2,1557,2660.18,1551Z"/><path class="cls-11" d="M2429.35,1599.24l-.07-22.28c0,5.92,3.91,11.82,11.66,16.33l.06,22.28C2433.25,1611.06,2429.36,1605.16,2429.35,1599.24Z"/><polygon class="cls-11" points="2493.82 1624.02 2493.88 1646.3 2441 1615.57 2440.94 1593.29 2493.82 1624.02"/><polygon class="cls-11" points="2648.33 1567.57 2648.4 1589.85 2550.63 1646.3 2550.57 1624.02 2648.33 1567.57"/><path class="cls-11" d="M2550.57,1624l.06,22.28c-15.73,9.08-41.12,9.08-56.75,0l-.06-22.28C2509.44,1633.1,2534.84,1633.1,2550.57,1624Z"/><path class="cls-8" d="M2538.89,1504c15.73-9.08,41.15-9.07,56.75,0l52.88,30.73c15.62,9.08,15.54,23.79-.19,32.87L2550.57,1624c-15.73,9.08-41.13,9.08-56.75,0l-52.88-30.73c-15.6-9.07-15.54-23.79.19-32.87Z"/><path class="cls-11" d="M2478.25,1656.05l.07,22.28c0,6-3.94,12-11.85,16.55l-.06-22.28C2474.32,1668,2478.27,1662,2478.25,1656.05Z"/><path class="cls-11" d="M2247.41,1704.29l-.06-22.28c0,5.91,3.89,11.82,11.65,16.32l.06,22.28C2251.31,1716.11,2247.43,1710.2,2247.41,1704.29Z"/><polygon class="cls-11" points="2311.87 1729.06 2311.94 1751.34 2259.06 1720.61 2258.99 1698.33 2311.87 1729.06"/><polygon class="cls-11" points="2466.41 1672.6 2466.47 1694.88 2368.68 1751.34 2368.62 1729.06 2466.41 1672.6"/><path class="cls-11" d="M2368.62,1729.06l.06,22.28c-15.7,9.07-41.12,9.08-56.74,0l-.07-22.28C2327.5,1738.14,2352.92,1738.13,2368.62,1729.06Z"/><path class="cls-8" d="M2357,1609c15.71-9.06,41.14-9.06,56.75,0l52.88,30.73c15.62,9.08,15.52,23.81-.19,32.87l-97.79,56.46c-15.7,9.07-41.12,9.08-56.75,0L2259,1698.33c-15.61-9.07-15.53-23.8.18-32.87Z"/><path class="cls-11" d="M2296.32,1761.1l.06,22.28c0,6-3.94,12-11.85,16.55l-.06-22.28C2292.38,1773.08,2296.33,1767.09,2296.32,1761.1Z"/><path class="cls-11" d="M2065.48,1809.32l-.07-22.28c0,5.92,3.91,11.82,11.66,16.33l.06,22.28C2069.38,1821.14,2065.49,1815.24,2065.48,1809.32Z"/><polygon class="cls-11" points="2129.95 1834.1 2130.01 1856.38 2077.14 1825.65 2077.07 1803.37 2129.95 1834.1"/><polygon class="cls-11" points="2284.47 1777.65 2284.53 1799.93 2186.76 1856.38 2186.7 1834.1 2284.47 1777.65"/><path class="cls-11" d="M2186.7,1834.1l.06,22.28c-15.73,9.08-41.12,9.08-56.75,0l-.06-22.28C2145.58,1843.18,2171,1843.18,2186.7,1834.1Z"/><path class="cls-8" d="M2175,1714.05c15.73-9.08,41.15-9.07,56.75,0l52.88,30.73c15.63,9.08,15.54,23.79-.18,32.87l-97.77,56.45c-15.73,9.08-41.12,9.08-56.75,0l-52.88-30.73c-15.6-9.07-15.54-23.79.19-32.87Z"/><path class="cls-11" d="M2114.38,1866.13l.07,22.28c0,6-3.94,12-11.84,16.55l-.07-22.28C2110.45,1878.12,2114.4,1872.12,2114.38,1866.13Z"/><path class="cls-11" d="M1883.55,1914.36l-.06-22.28c0,5.91,3.9,11.81,11.66,16.32l.06,22.28C1887.46,1926.17,1883.57,1920.27,1883.55,1914.36Z"/><polygon class="cls-11" points="1948.03 1939.13 1948.09 1961.41 1895.21 1930.68 1895.15 1908.4 1948.03 1939.13"/><polygon class="cls-11" points="2102.54 1882.68 2102.61 1904.96 2004.84 1961.41 2004.78 1939.13 2102.54 1882.68"/><path class="cls-11" d="M2004.77,1939.13l.07,22.28c-15.73,9.08-41.13,9.08-56.75,0l-.06-22.28C1963.65,1948.21,1989.05,1948.21,2004.77,1939.13Z"/><path class="cls-8" d="M1993.1,1819.08c15.71-9.07,41.14-9.07,56.75,0l52.88,30.73c15.62,9.08,15.52,23.81-.19,32.87l-97.77,56.45c-15.72,9.08-41.12,9.08-56.74,0l-52.88-30.73c-15.61-9.07-15.54-23.79.18-32.87Z"/><path class="cls-14" d="M3048.22,1565.77l.06,22.28c0,6-3.93,12-11.84,16.55l-.06-22.28C3044.29,1577.75,3048.23,1571.76,3048.22,1565.77Z"/><path class="cls-14" d="M2795.86,1601.49l-.06-22.28c0,5.91,3.9,11.81,11.66,16.32l.07,22.28C2799.76,1613.3,2795.88,1607.4,2795.86,1601.49Z"/><polygon class="cls-14" points="2881.86 1638.77 2881.92 1661.05 2807.53 1617.81 2807.46 1595.53 2881.86 1638.77"/><polygon class="cls-14" points="3036.38 1582.32 3036.44 1604.6 2938.67 1661.05 2938.61 1638.77 3036.38 1582.32"/><path class="cls-14" d="M2938.61,1638.77l.06,22.28c-15.73,9.08-41.14,9.06-56.75,0l-.06-22.29C2897.46,1647.83,2922.88,1647.85,2938.61,1638.77Z"/><path class="cls-15" d="M2905.41,1506.21c15.73-9.08,41.13-9.08,56.75,0l74.4,43.24c15.6,9.07,15.54,23.79-.18,32.87l-97.77,56.45c-15.73,9.08-41.15,9.06-56.75,0l-74.4-43.23c-15.62-9.08-15.54-23.79.19-32.87Z"/><path class="cls-14" d="M3234.61,1672l.07,22.28c0,6-3.94,12-11.85,16.55l-.07-22.28C3230.68,1683.94,3234.63,1678,3234.61,1672Z"/><path class="cls-14" d="M2982.27,1707.7l-.06-22.29c0,5.91,3.9,11.81,11.66,16.33l.07,22.28C2986.17,1719.5,2982.29,1713.6,2982.27,1707.7Z"/><polygon class="cls-14" points="3068.25 1744.96 3068.31 1767.24 2993.93 1724.02 2993.87 1701.74 3068.25 1744.96"/><polygon class="cls-14" points="3222.76 1688.51 3222.83 1710.79 3125.06 1767.24 3125 1744.96 3222.76 1688.51"/><path class="cls-14" d="M3125,1745l.06,22.28c-15.73,9.08-41.12,9.08-56.75,0l-.06-22.28C3083.87,1754,3109.27,1754,3125,1745Z"/><path class="cls-15" d="M3091.82,1612.42c15.73-9.08,41.13-9.08,56.75,0l74.38,43.22c15.62,9.08,15.54,23.79-.19,32.87L3125,1745c-15.73,9.08-41.13,9.08-56.75,0l-74.38-43.22c-15.62-9.08-15.54-23.79.19-32.87Z"/><path class="cls-14" d="M3414.79,1778.8l.07,22.28c0,6-3.93,12-11.85,16.55l-.06-22.28C3410.86,1790.78,3414.81,1784.79,3414.79,1778.8Z"/><path class="cls-14" d="M3162.44,1814.52l-.07-22.28c0,5.91,3.9,11.81,11.67,16.32l.06,22.28C3166.34,1826.33,3162.45,1820.43,3162.44,1814.52Z"/><polygon class="cls-14" points="3248.44 1851.8 3248.5 1874.08 3174.1 1830.84 3174.04 1808.56 3248.44 1851.8"/><polygon class="cls-14" points="3402.95 1795.35 3403.01 1817.63 3305.25 1874.08 3305.18 1851.8 3402.95 1795.35"/><path class="cls-14" d="M3305.18,1851.8l.07,22.28c-15.73,9.08-41.15,9.06-56.75,0l-.06-22.29C3264,1860.86,3289.46,1860.88,3305.18,1851.8Z"/><path class="cls-15" d="M3272,1719.24c15.73-9.08,41.12-9.08,56.75,0l74.4,43.24c15.6,9.07,15.54,23.79-.19,32.87l-97.77,56.45c-15.72,9.08-41.14,9.06-56.74,0l-74.4-43.23c-15.63-9.08-15.55-23.79.18-32.87Z"/><path class="cls-14" d="M3599.43,1886.1l.07,22.28c0,6-3.93,12-11.84,16.55l-.07-22.28C3595.5,1898.08,3599.45,1892.09,3599.43,1886.1Z"/><path class="cls-14" d="M3347.08,1921.82l-.07-22.28c0,5.91,3.91,11.81,11.67,16.32l.06,22.28C3351,1933.63,3347.09,1927.73,3347.08,1921.82Z"/><polygon class="cls-14" points="3433.08 1959.1 3433.14 1981.38 3358.74 1938.14 3358.68 1915.86 3433.08 1959.1"/><polygon class="cls-14" points="3587.59 1902.65 3587.66 1924.93 3489.89 1981.38 3489.82 1959.1 3587.59 1902.65"/><path class="cls-14" d="M3489.83,1959.1l.06,22.28c-15.73,9.08-41.15,9.07-56.75,0l-.06-22.28C3448.68,1968.16,3474.1,1968.18,3489.83,1959.1Z"/><path class="cls-15" d="M3456.63,1826.54c15.73-9.08,41.12-9.08,56.75,0l74.4,43.23c15.6,9.07,15.54,23.79-.19,32.87l-97.76,56.45c-15.73,9.08-41.15,9.06-56.75,0l-74.4-43.24c-15.63-9.08-15.54-23.79.18-32.87Z"/><path class="cls-11" d="M2811.42,1638.92l.07,22.28c0,6-3.93,12-11.85,16.54l-.06-22.28C2807.49,1650.9,2811.44,1644.9,2811.42,1638.92Z"/><path class="cls-11" d="M2580.58,1687.14l-.06-22.28c0,5.91,3.9,11.81,11.67,16.32l.06,22.28C2584.49,1699,2580.6,1693.05,2580.58,1687.14Z"/><polygon class="cls-11" points="2645.07 1711.91 2645.13 1734.19 2592.25 1703.46 2592.19 1681.18 2645.07 1711.91"/><polygon class="cls-11" points="2799.58 1655.46 2799.64 1677.74 2701.88 1734.19 2701.81 1711.91 2799.58 1655.46"/><path class="cls-11" d="M2701.81,1711.91l.07,22.28c-15.73,9.08-41.15,9.07-56.75,0l-.07-22.28C2660.67,1721,2686.09,1721,2701.81,1711.91Z"/><path class="cls-8" d="M2690.14,1591.86c15.73-9.08,41.12-9.08,56.75,0l52.88,30.73c15.6,9.07,15.54,23.79-.19,32.87l-97.77,56.45c-15.72,9.08-41.14,9.07-56.75,0l-52.87-30.73c-15.63-9.08-15.55-23.79.18-32.87Z"/><path class="cls-11" d="M2629.49,1744l.06,22.28c0,6-3.93,12-11.83,16.55l-.06-22.28C2625.56,1755.93,2629.51,1749.94,2629.49,1744Z"/><path class="cls-11" d="M2398.65,1792.19l-.07-22.28c0,5.91,3.9,11.81,11.66,16.32l.06,22.28C2402.54,1804,2398.66,1798.1,2398.65,1792.19Z"/><polygon class="cls-11" points="2463.12 1816.96 2463.18 1839.24 2410.3 1808.51 2410.24 1786.23 2463.12 1816.96"/><polygon class="cls-11" points="2617.66 1760.5 2617.72 1782.78 2519.93 1839.24 2519.87 1816.96 2617.66 1760.5"/><path class="cls-11" d="M2519.87,1817l.06,22.28c-15.7,9.06-41.14,9.06-56.75,0l-.06-22.28C2478.72,1826,2504.16,1826,2519.87,1817Z"/><path class="cls-8" d="M2508.22,1696.9c15.7-9.07,41.12-9.08,56.74,0l52.88,30.73c15.61,9.06,15.52,23.8-.18,32.87L2519.87,1817c-15.71,9.06-41.15,9.06-56.75,0l-52.88-30.73c-15.62-9.08-15.52-23.81.19-32.87Z"/><path class="cls-11" d="M2447.55,1849l.07,22.28c0,6-3.93,12-11.84,16.54l-.07-22.28C2443.62,1861,2447.57,1855,2447.55,1849Z"/><path class="cls-11" d="M2216.72,1897.22l-.07-22.28c0,5.91,3.91,11.81,11.67,16.32l.06,22.28C2220.62,1909,2216.73,1903.13,2216.72,1897.22Z"/><polygon class="cls-11" points="2281.2 1921.99 2281.26 1944.27 2228.38 1913.54 2228.32 1891.26 2281.2 1921.99"/><polygon class="cls-11" points="2435.71 1865.54 2435.78 1887.82 2338.01 1944.27 2337.94 1921.99 2435.71 1865.54"/><path class="cls-11" d="M2337.94,1922l.07,22.28c-15.73,9.08-41.15,9.07-56.75,0l-.06-22.28C2296.8,1931.06,2322.22,1931.07,2337.94,1922Z"/><path class="cls-8" d="M2326.27,1801.94c15.73-9.08,41.12-9.08,56.75,0l52.88,30.73c15.6,9.07,15.54,23.79-.19,32.87L2337.94,1922c-15.72,9.08-41.14,9.07-56.74,0l-52.88-30.73c-15.63-9.08-15.54-23.79.18-32.87Z"/><path class="cls-11" d="M2265.62,1954l.06,22.28c0,6-3.93,12-11.83,16.55l-.06-22.28C2261.69,1966,2265.64,1960,2265.62,1954Z"/><path class="cls-11" d="M2034.79,2002.25l-.06-22.28c0,5.91,3.9,11.81,11.66,16.32l.07,22.28C2038.69,2014.06,2034.81,2008.16,2034.79,2002.25Z"/><polygon class="cls-11" points="2099.27 2027.02 2099.34 2049.3 2046.46 2018.57 2046.39 1996.29 2099.27 2027.02"/><polygon class="cls-11" points="2253.79 1970.58 2253.85 1992.86 2156.08 2049.3 2156.02 2027.02 2253.79 1970.58"/><path class="cls-11" d="M2156,2027l.06,22.28c-15.72,9.08-41.14,9.07-56.74,0l-.07-22.28C2114.88,2036.09,2140.29,2036.1,2156,2027Z"/><path class="cls-8" d="M2144.35,1907c15.7-9.07,41.12-9.08,56.74,0l52.88,30.73c15.61,9.06,15.52,23.8-.18,32.87L2156,2027c-15.73,9.08-41.14,9.07-56.75,0l-52.88-30.73c-15.62-9.08-15.54-23.79.19-32.87Z"/><path class="cls-5" d="M2965.86,1726l.06,22.28c0,6-4,12.1-12,16.71l-.06-22.28C2961.88,1738.11,2965.87,1732.05,2965.86,1726Z"/><path class="cls-5" d="M2732.92,1774.5l-.06-22.28c0,6,3.94,11.91,11.77,16.46l.06,22.28C2736.86,1786.41,2732.94,1780.46,2732.92,1774.5Z"/><polygon class="cls-5" points="2797.99 1799.69 2798.05 1821.97 2744.69 1790.96 2744.63 1768.68 2797.99 1799.69"/><polygon class="cls-5" points="2953.9 1742.72 2953.96 1765 2855.3 1821.96 2855.23 1799.68 2953.9 1742.72"/><path class="cls-5" d="M2855.23,1799.68l.07,22.28c-15.86,9.16-41.5,9.17-57.25,0l-.06-22.28C2813.74,1808.85,2839.38,1808.83,2855.23,1799.68Z"/><path class="cls-16" d="M2843.48,1678.55c15.86-9.16,41.49-9.17,57.27,0l53.35,31c15.76,9.15,15.65,24-.2,33.16l-98.67,57c-15.85,9.15-41.49,9.17-57.24,0l-53.36-31c-15.78-9.16-15.67-24,.19-33.17Z"/><path class="cls-5" d="M2782.27,1832l.07,22.28c0,6-4,12.1-12,16.71l-.07-22.28C2778.3,1844.1,2782.29,1838,2782.27,1832Z"/><path class="cls-5" d="M2549.34,1880.49l-.06-22.28c0,6,3.93,11.91,11.77,16.47l.06,22.28C2553.28,1892.4,2549.36,1886.45,2549.34,1880.49Z"/><polygon class="cls-5" points="2614.41 1905.68 2614.47 1927.96 2561.11 1896.95 2561.05 1874.67 2614.41 1905.68"/><polygon class="cls-5" points="2770.32 1848.71 2770.38 1870.99 2671.72 1927.95 2671.65 1905.67 2770.32 1848.71"/><path class="cls-5" d="M2671.65,1905.67l.07,22.28c-15.86,9.16-41.5,9.17-57.25,0l-.07-22.28C2630.16,1914.84,2655.79,1914.83,2671.65,1905.67Z"/><path class="cls-16" d="M2659.9,1784.54c15.86-9.16,41.49-9.17,57.27,0l53.35,31c15.76,9.15,15.65,24-.21,33.16l-98.66,57c-15.86,9.16-41.49,9.17-57.25,0l-53.35-31c-15.78-9.17-15.67-24,.19-33.18Z"/><path class="cls-5" d="M2598.69,1938l.07,22.28c0,6-4,12.1-12,16.71l-.07-22.28C2594.72,1950.09,2598.71,1944,2598.69,1938Z"/><path class="cls-5" d="M2365.76,1986.48l-.06-22.28c0,6,3.93,11.91,11.77,16.47l.06,22.28C2369.7,1998.39,2365.78,1992.44,2365.76,1986.48Z"/><polygon class="cls-5" points="2430.82 2011.67 2430.89 2033.95 2377.53 2002.95 2377.47 1980.67 2430.82 2011.67"/><polygon class="cls-5" points="2586.73 1954.7 2586.8 1976.98 2488.14 2033.94 2488.07 2011.66 2586.73 1954.7"/><path class="cls-5" d="M2488.07,2011.66l.06,22.28c-15.85,9.16-41.49,9.17-57.24,0l-.07-22.28C2446.58,2020.83,2472.21,2020.82,2488.07,2011.66Z"/><path class="cls-16" d="M2476.32,1890.53c15.85-9.16,41.49-9.17,57.27,0l53.35,31c15.76,9.15,15.65,24-.21,33.16l-98.66,57c-15.86,9.16-41.49,9.17-57.25,0l-53.35-31c-15.78-9.17-15.67-24,.18-33.18Z"/><path class="cls-11" d="M2416.87,2041.92l.06,22.28c0,6-3.93,12-11.83,16.55l-.07-22.28C2412.94,2053.91,2416.88,2047.91,2416.87,2041.92Z"/><path class="cls-11" d="M2186,2090.15l-.06-22.28c0,5.91,3.9,11.81,11.66,16.32l.06,22.28C2189.94,2102,2186.06,2096.06,2186,2090.15Z"/><polygon class="cls-11" points="2250.52 2114.92 2250.58 2137.2 2197.7 2106.47 2197.64 2084.19 2250.52 2114.92"/><polygon class="cls-11" points="2405.03 2058.47 2405.1 2080.75 2307.33 2137.2 2307.27 2114.92 2405.03 2058.47"/><path class="cls-11" d="M2307.27,2114.92l.06,22.28c-15.73,9.08-41.14,9.07-56.75,0l-.06-22.28C2266.12,2124,2291.54,2124,2307.27,2114.92Z"/><path class="cls-8" d="M2295.59,1994.87c15.71-9.07,41.13-9.08,56.75,0l52.88,30.73c15.6,9.07,15.52,23.8-.19,32.87l-97.76,56.45c-15.73,9.08-41.15,9.07-56.75,0l-52.88-30.73c-15.63-9.08-15.54-23.79.18-32.87Z"/><path class="cls-5" d="M3113.9,1814.69,3114,1837c0,6-3.93,12-11.85,16.55l-.06-22.28C3110,1826.67,3113.92,1820.68,3113.9,1814.69Z"/><path class="cls-5" d="M2883.08,1862.93l-.07-22.28c0,5.91,3.91,11.81,11.67,16.32l.06,22.28C2887,1874.74,2883.09,1868.84,2883.08,1862.93Z"/><polygon class="cls-5" points="2947.53 1887.69 2947.6 1909.97 2894.74 1879.25 2894.68 1856.97 2947.53 1887.69"/><polygon class="cls-5" points="3102.05 1831.24 3102.11 1853.52 3004.35 1909.97 3004.28 1887.69 3102.05 1831.24"/><path class="cls-5" d="M3004.28,1887.69l.07,22.28c-15.73,9.08-41.13,9.08-56.75,0l-.06-22.28C2963.16,1896.77,2988.56,1896.77,3004.28,1887.69Z"/><path class="cls-16" d="M2992.63,1767.65c15.73-9.08,41.12-9.08,56.75,0l52.86,30.72c15.62,9.08,15.54,23.79-.19,32.87l-97.77,56.45c-15.72,9.08-41.12,9.08-56.74,0L2894.68,1857c-15.63-9.08-15.54-23.79.18-32.87Z"/><path class="cls-5" d="M2932,1919.72,2932,1942c0,6-3.93,12-11.84,16.55l-.06-22.28C2928,1931.71,2932,1925.71,2932,1919.72Z"/><path class="cls-5" d="M2701.14,1968l-.06-22.28c0,5.91,3.89,11.81,11.65,16.32l.07,22.28C2705,1979.79,2701.16,1973.89,2701.14,1968Z"/><polygon class="cls-5" points="2765.59 1992.73 2765.65 2015.01 2712.8 1984.3 2712.73 1962.02 2765.59 1992.73"/><polygon class="cls-5" points="2920.13 1936.27 2920.19 1958.56 2822.4 2015.01 2822.34 1992.73 2920.13 1936.27"/><path class="cls-5" d="M2822.34,1992.73l.06,22.28c-15.7,9.07-41.12,9.08-56.75,0l-.06-22.28C2781.22,2001.81,2806.63,2001.8,2822.34,1992.73Z"/><path class="cls-16" d="M2810.71,1872.69c15.7-9.07,41.12-9.08,56.75,0l52.85,30.71c15.63,9.08,15.52,23.81-.18,32.87l-97.79,56.46c-15.71,9.07-41.12,9.08-56.75,0L2712.73,1962c-15.62-9.08-15.52-23.81.19-32.87Z"/><path class="cls-5" d="M2751.31,2026.7l.07,22.28c0,6-4,12.09-12,16.7l-.06-22.28C2747.35,2038.79,2751.33,2032.74,2751.31,2026.7Z"/><path class="cls-5" d="M2518.38,2075.16l-.06-22.28c0,6,3.93,11.93,11.76,16.47l.06,22.28C2522.32,2087.09,2518.4,2081.13,2518.38,2075.16Z"/><polygon class="cls-5" points="2583.43 2100.36 2583.5 2122.64 2530.14 2091.63 2530.08 2069.35 2583.43 2100.36"/><polygon class="cls-5" points="2739.37 2043.4 2739.43 2065.68 2640.77 2122.64 2640.7 2100.36 2739.37 2043.4"/><path class="cls-5" d="M2640.7,2100.36l.07,22.28c-15.86,9.16-41.52,9.16-57.27,0l-.07-22.28C2599.19,2109.52,2624.85,2109.52,2640.7,2100.36Z"/><path class="cls-16" d="M2628.93,1979.22c15.86-9.16,41.51-9.16,57.27,0l53.35,31c15.76,9.15,15.67,24-.18,33.17l-98.67,57c-15.85,9.16-41.51,9.16-57.27,0l-53.35-31c-15.76-9.15-15.67-24,.19-33.17Z"/><path class="cls-11" d="M2568.1,2129.8l.06,22.28c0,6-3.93,12-11.84,16.55l-.06-22.28C2564.16,2141.79,2568.12,2135.79,2568.1,2129.8Z"/><path class="cls-11" d="M2337.28,2178l-.06-22.28c0,5.91,3.9,11.81,11.67,16.32l.06,22.28C2341.19,2189.85,2337.3,2184,2337.28,2178Z"/><polygon class="cls-11" points="2401.74 2202.8 2401.81 2225.08 2348.95 2194.36 2348.89 2172.08 2401.74 2202.8"/><polygon class="cls-11" points="2556.26 2146.35 2556.32 2168.63 2458.55 2225.08 2458.49 2202.8 2556.26 2146.35"/><path class="cls-11" d="M2458.49,2202.8l.06,22.28c-15.72,9.08-41.12,9.08-56.74,0l-.07-22.28C2417.37,2211.88,2442.76,2211.88,2458.49,2202.8Z"/><path class="cls-8" d="M2446.84,2082.77c15.7-9.07,41.12-9.08,56.75,0l52.85,30.71c15.63,9.08,15.52,23.81-.18,32.87l-97.77,56.45c-15.73,9.08-41.12,9.08-56.75,0l-52.85-30.72c-15.63-9.08-15.55-23.79.18-32.87Z"/><path class="cls-5" d="M3265.15,1902.59l.06,22.28c0,6-3.94,12-11.85,16.55l-.06-22.28C3261.21,1914.57,3265.16,1908.57,3265.15,1902.59Z"/><path class="cls-5" d="M3034.31,1950.81l-.06-22.28c0,5.91,3.9,11.82,11.65,16.32l.07,22.28C3038.21,1962.63,3034.33,1956.72,3034.31,1950.81Z"/><polygon class="cls-5" points="3098.78 1975.58 3098.84 1997.86 3045.97 1967.13 3045.9 1944.85 3098.78 1975.58"/><polygon class="cls-5" points="3253.3 1919.14 3253.36 1941.42 3155.59 1997.86 3155.53 1975.58 3253.3 1919.14"/><path class="cls-5" d="M3155.53,1975.58l.06,22.28c-15.72,9.08-41.12,9.08-56.75,0l-.06-22.28C3114.41,1984.66,3139.8,1984.66,3155.53,1975.58Z"/><path class="cls-16" d="M3143.86,1855.53c15.72-9.08,41.14-9.06,56.74,0l52.88,30.72c15.63,9.09,15.54,23.8-.18,32.88l-97.77,56.44c-15.73,9.08-41.12,9.08-56.75,0l-52.88-30.73c-15.6-9.07-15.54-23.79.19-32.87Z"/><path class="cls-5" d="M3083.22,2007.62l.06,22.28c0,6-3.94,12-11.84,16.55l-.07-22.28C3079.28,2019.6,3083.23,2013.61,3083.22,2007.62Z"/><path class="cls-5" d="M2852.37,2055.86l-.06-22.28c0,5.91,3.9,11.81,11.65,16.32l.06,22.28C2856.27,2067.67,2852.39,2061.77,2852.37,2055.86Z"/><polygon class="cls-5" points="2916.84 2080.63 2916.9 2102.91 2864.02 2072.18 2863.96 2049.9 2916.84 2080.63"/><polygon class="cls-5" points="3071.37 2024.17 3071.44 2046.45 2973.65 2102.91 2973.58 2080.63 3071.37 2024.17"/><path class="cls-5" d="M2973.58,2080.63l.07,22.28c-15.71,9.07-41.13,9.08-56.75,0l-.06-22.28C2932.46,2089.71,2957.88,2089.7,2973.58,2080.63Z"/><path class="cls-16" d="M2961.93,1960.57c15.71-9.07,41.15-9.07,56.75,0l52.88,30.73c15.62,9.08,15.52,23.8-.19,32.87l-97.79,56.46c-15.7,9.07-41.12,9.08-56.74,0L2864,2049.9c-15.61-9.07-15.52-23.81.18-32.87Z"/><path class="cls-5" d="M2901.28,2112.67l.06,22.28c0,6-3.93,12-11.85,16.55l-.06-22.28C2897.34,2124.65,2901.3,2118.65,2901.28,2112.67Z"/><path class="cls-5" d="M2670.44,2160.89l-.06-22.28c0,5.91,3.9,11.81,11.65,16.32l.07,22.28C2674.34,2172.71,2670.46,2166.8,2670.44,2160.89Z"/><polygon class="cls-5" points="2734.91 2185.66 2734.98 2207.94 2682.1 2177.21 2682.03 2154.93 2734.91 2185.66"/><polygon class="cls-5" points="2889.43 2129.22 2889.49 2151.49 2791.72 2207.94 2791.66 2185.66 2889.43 2129.22"/><path class="cls-5" d="M2791.66,2185.66l.06,22.28c-15.72,9.08-41.12,9.08-56.74,0l-.07-22.28C2750.54,2194.74,2775.93,2194.74,2791.66,2185.66Z"/><path class="cls-16" d="M2780,2065.61c15.72-9.08,41.14-9.06,56.74,0l52.88,30.73c15.63,9.08,15.55,23.79-.18,32.88l-97.77,56.44c-15.73,9.08-41.12,9.08-56.75,0L2682,2154.93c-15.6-9.07-15.54-23.79.19-32.87Z"/><path class="cls-11" d="M2719.35,2217.7l.06,22.28c0,6-3.94,12-11.84,16.55l-.07-22.28C2715.41,2229.68,2719.36,2223.69,2719.35,2217.7Z"/><path class="cls-11" d="M2488.52,2265.92l-.07-22.28c0,5.92,3.91,11.82,11.66,16.32l.06,22.29C2492.42,2277.74,2488.53,2271.84,2488.52,2265.92Z"/><polygon class="cls-11" points="2552.99 2290.7 2553.05 2312.97 2500.17 2282.24 2500.11 2259.97 2552.99 2290.7"/><polygon class="cls-11" points="2707.51 2234.25 2707.57 2256.53 2609.8 2312.97 2609.74 2290.7 2707.51 2234.25"/><path class="cls-11" d="M2609.74,2290.69l.06,22.29c-15.73,9.08-41.12,9.08-56.75,0l-.06-22.28C2568.61,2299.77,2594,2299.78,2609.74,2290.69Z"/><path class="cls-8" d="M2598.06,2170.65c15.71-9.07,41.15-9.07,56.75,0l52.88,30.73c15.62,9.08,15.52,23.8-.19,32.87l-97.76,56.44c-15.73,9.09-41.13,9.08-56.75,0L2500.11,2260c-15.6-9.06-15.54-23.79.19-32.87Z"/><path class="cls-5" d="M3416.38,1990.48l.07,22.28c0,6-3.93,12-11.84,16.55l-.07-22.28C3412.45,2002.46,3416.4,1996.47,3416.38,1990.48Z"/><path class="cls-5" d="M3185.55,2038.71l-.07-22.28c0,5.9,3.91,11.81,11.67,16.32l.06,22.28C3189.45,2050.52,3185.56,2044.61,3185.55,2038.71Z"/><polygon class="cls-5" points="3250.03 2063.48 3250.09 2085.76 3197.21 2055.03 3197.15 2032.75 3250.03 2063.48"/><polygon class="cls-5" points="3404.54 2007.03 3404.61 2029.31 3306.84 2085.76 3306.78 2063.48 3404.54 2007.03"/><path class="cls-5" d="M3306.78,2063.48l.06,22.28c-15.73,9.08-41.15,9.06-56.75,0l-.06-22.28C3265.63,2072.54,3291.05,2072.56,3306.78,2063.48Z"/><path class="cls-16" d="M3295.1,1943.43c15.73-9.08,41.12-9.08,56.75,0l52.88,30.73c15.6,9.07,15.54,23.79-.19,32.87l-97.76,56.45c-15.73,9.08-41.15,9.06-56.75,0l-52.88-30.73c-15.63-9.08-15.54-23.79.18-32.87Z"/><path class="cls-5" d="M3234.45,2095.51l.07,22.28c0,6-3.93,12-11.84,16.55l-.06-22.28C3230.52,2107.5,3234.47,2101.5,3234.45,2095.51Z"/><path class="cls-5" d="M3003.61,2143.75l-.06-22.28c0,5.91,3.89,11.81,11.65,16.32l.07,22.28C3007.51,2155.56,3003.63,2149.66,3003.61,2143.75Z"/><polygon class="cls-5" points="3068.08 2168.52 3068.14 2190.8 3015.27 2160.07 3015.2 2137.79 3068.08 2168.52"/><polygon class="cls-5" points="3222.62 2112.06 3222.68 2134.34 3124.89 2190.8 3124.83 2168.52 3222.62 2112.06"/><path class="cls-5" d="M3124.83,2168.52l.06,22.28c-15.7,9.07-41.14,9.07-56.74,0l-.07-22.28C3083.69,2177.59,3109.12,2177.59,3124.83,2168.52Z"/><path class="cls-16" d="M3113.18,2048.46c15.7-9.06,41.12-9.08,56.75,0l52.87,30.73c15.61,9.07,15.52,23.81-.18,32.87l-97.79,56.46c-15.71,9.07-41.14,9.07-56.75,0l-52.88-30.73c-15.62-9.08-15.52-23.8.19-32.87Z"/><path class="cls-5" d="M3052.52,2200.56l.06,22.28c0,6-3.93,12-11.84,16.55l-.07-22.28C3048.59,2212.54,3052.53,2206.55,3052.52,2200.56Z"/><path class="cls-5" d="M2821.68,2248.79l-.06-22.29c0,5.91,3.9,11.81,11.66,16.33l.06,22.28C2825.58,2260.59,2821.7,2254.69,2821.68,2248.79Z"/><polygon class="cls-5" points="2886.16 2273.56 2886.22 2295.84 2833.34 2265.11 2833.28 2242.83 2886.16 2273.56"/><polygon class="cls-5" points="3040.67 2217.11 3040.74 2239.39 2942.97 2295.84 2942.91 2273.56 3040.67 2217.11"/><path class="cls-5" d="M2942.91,2273.56l.06,22.28c-15.73,9.08-41.14,9.06-56.75,0l-.06-22.28C2901.76,2282.62,2927.18,2282.64,2942.91,2273.56Z"/><path class="cls-16" d="M2931.23,2153.51c15.73-9.08,41.13-9.08,56.75,0l52.88,30.73c15.6,9.07,15.54,23.79-.19,32.87l-97.76,56.45c-15.73,9.08-41.15,9.06-56.75,0l-52.88-30.73c-15.62-9.08-15.54-23.79.19-32.87Z"/><path class="cls-11" d="M2870.58,2305.59l.07,22.28c0,6-3.93,12-11.84,16.55l-.06-22.28C2866.65,2317.58,2870.6,2311.58,2870.58,2305.59Z"/><path class="cls-11" d="M2639.75,2353.82l-.06-22.28c0,5.91,3.9,11.81,11.67,16.32l.06,22.28C2643.66,2365.63,2639.77,2359.73,2639.75,2353.82Z"/><polygon class="cls-11" points="2704.24 2378.59 2704.3 2400.87 2651.42 2370.14 2651.36 2347.86 2704.24 2378.59"/><polygon class="cls-11" points="2858.75 2322.14 2858.81 2344.42 2761.05 2400.87 2760.98 2378.59 2858.75 2322.14"/><path class="cls-11" d="M2761,2378.59l.07,22.28c-15.73,9.08-41.15,9.07-56.75,0l-.06-22.28C2719.84,2387.66,2745.26,2387.67,2761,2378.59Z"/><path class="cls-8" d="M2749.31,2258.54c15.7-9.06,41.12-9.08,56.75,0l52.88,30.73c15.6,9.07,15.52,23.81-.19,32.87L2761,2378.59c-15.72,9.08-41.14,9.07-56.74,0l-52.88-30.73c-15.63-9.08-15.55-23.79.18-32.87Z"/><path class="cls-10" d="M1430,1600.63q8.52,4.92,8.75,9.91t-7.9,9.68a32.07,32.07,0,0,1-16.73,4.51,35.07,35.07,0,0,1-17.25-5q-8.42-4.86-8.62-9.88c-.14-3.35,2.5-6.58,7.89-9.69a31.93,31.93,0,0,1,16.72-4.56A35.12,35.12,0,0,1,1430,1600.63Zm-23.4,13.51q9.8,5.65,16.65,1.69,3.49-2,2.8-4.36t-5.73-5.25a23.32,23.32,0,0,0-9.18-3.33,12.26,12.26,0,0,0-7.52,1.56Q1396.75,1608.44,1406.63,1614.14Z"/><path class="cls-10" d="M1485.48,1588.16l-12,7-36.21-6.56-.21.12q6.06,3,9,4.69l15.22,8.79-8.14,4.7-33.76-19.49,12-6.93,35.84,6.4.14-.08q-5.43-2.76-8.53-4.55l-15.26-8.81,8.19-4.73Z"/><path class="cls-10" d="M1475.86,1554.17l22,27.36-8,4.65-22-27.36Z"/><path class="cls-10" d="M1534.74,1559.72l-8-2.69-11,6.38,4.61,4.65-10.1,5.83-22.8-26,12.26-7.08,45.13,13.09Zm-17.39-5.9-7-2.36q-2.37-.76-6-2c-2.44-.85-4.17-1.47-5.17-1.87.64.54,1.66,1.44,3.06,2.72s4,3.85,7.91,7.72Z"/><path class="cls-10" d="M1536.85,1527.6q-3.28,1.89-2.45,4.5t5.51,5.3q9.75,5.63,17.22,1.32a16.17,16.17,0,0,0,3.74-2.89,32.17,32.17,0,0,0,2.76-3.32l7.72,4.45a23.08,23.08,0,0,1-7.77,6.64,30.56,30.56,0,0,1-16.23,4.26,35.18,35.18,0,0,1-16.93-5q-5.24-3-7.22-6.47a7,7,0,0,1-.38-6.83q1.59-3.39,6.64-6.3a43.16,43.16,0,0,1,12.91-4.71l4.37,5.77q-2.76.59-5.24,1.32A21.94,21.94,0,0,0,1536.85,1527.6Z"/><polygon class="cls-9" points="1950.92 1880 2005.79 1848.32 1999.23 1844.54 1944.37 1876.21 1950.92 1880"/><path class="cls-9" d="M2036.16,1878.84a8.81,8.81,0,0,1-1.38.66,15.17,15.17,0,0,1-8,.72c-16.43-2.87-43-20.38-46-22.37l6.38-3.19c7.66,5.11,30.17,18.82,42.13,20.91a1.41,1.41,0,0,0,.78-.07c.16-.06.42-.2.46-.45.14-1-.17-2.72-2.47-5.3l7.5-2.24c2.56,2.89,3.69,5.55,3.35,7.9A5,5,0,0,1,2036.16,1878.84Z"/><path class="cls-9" d="M2004.41,1901l-7-2.67c4.62-4-15.07-18-36.35-28.59l5.52-3.69C1978.23,1871.84,2015.39,1891.47,2004.41,1901Z"/><path class="cls-9" d="M1692.27,1716.9l-21.79,12.58-4.56-2.63,0-9a34.06,34.06,0,0,0-.36-5.45,5.93,5.93,0,0,0-1-2.35,6.18,6.18,0,0,0-1.94-1.66,7,7,0,0,0-3.81-1,7.88,7.88,0,0,0-3.67,1.07,7.29,7.29,0,0,0-2.69,2.51,9.65,9.65,0,0,0-1.21,3.41l-7.8-.36a12.08,12.08,0,0,1,1.06-3.79,10.53,10.53,0,0,1,2.07-2.62,19,19,0,0,1,3.58-2.57,20.68,20.68,0,0,1,6.22-2.37,19.77,19.77,0,0,1,6.44-.29,14.38,14.38,0,0,1,5.59,1.8,10.45,10.45,0,0,1,3.26,2.75,8.81,8.81,0,0,1,1.5,3.57,27.57,27.57,0,0,1,0,6.48l-.27,4.47.3.17,13.58-7.84Z"/><path class="cls-9" d="M1719.07,1701.42l-6.5,3.76-13.82-8a11.92,11.92,0,0,0-4.76-1.69,6.88,6.88,0,0,0-4.21,1q-2.73,1.57-2.13,3.32c.4,1.16,2,2.55,4.79,4.17l11.13,6.42-6.5,3.76-23.67-13.66,5-2.87,3.9,1.24.36-.21a3.41,3.41,0,0,1,.41-3.23,9.75,9.75,0,0,1,3.46-3A16.52,16.52,0,0,1,1695,1690a17.37,17.37,0,0,1,8.6,2.47Z"/><path class="cls-9" d="M1733.74,1693.44a16.42,16.42,0,0,1-9.84,2,27.49,27.49,0,0,1-11.37-3.8q-5.82-3.36-6.63-6.65t3.48-5.76a16.58,16.58,0,0,1,10.33-2l.22-.12a41.39,41.39,0,0,1-5.21-2.44l-7.58-4.38,6.52-3.77,32.94,19-5,2.88-4.32-1-.28.16C1737.86,1689.72,1736.77,1691.7,1733.74,1693.44Zm-2.86-4.28q2.49-1.44,2.22-2.94c-.19-1-1.4-2.19-3.63-3.56l-.69-.4a16.88,16.88,0,0,0-6.65-2.47,9,9,0,0,0-5.5,1.26c-1.45.84-2,1.85-1.55,3s1.79,2.43,4.12,3.77a16.56,16.56,0,0,0,6.46,2.33A8.48,8.48,0,0,0,1730.88,1689.16Z"/><path class="cls-9" d="M1858.33,1602.81q7.64,4.43,7.32,9.29t-8.59,9.66l-8.83,5.09-31-17.87,9.79-5.65a32.37,32.37,0,0,1,15.86-4.53A29.34,29.34,0,0,1,1858.33,1602.81Zm-6.7,4.07q-10-5.76-18.84-.64l-3.52,2,20.15,11.64,2.84-1.64Q1861.82,1612.75,1851.63,1606.88Z"/><path class="cls-9" d="M1875.3,1597.52l11.87,6.85-6.61,3.82-31-17.87,9.09-5.24a28.34,28.34,0,0,1,11.7-4.11,16.88,16.88,0,0,1,10,2.27,6.63,6.63,0,0,1,3.35,3.68,5.07,5.07,0,0,1-1,4.4q17.48,2,22.66,2.49l-7.34,4.23-19.32-2.56Zm-5.34-3.08,2.13-1.24q3.14-1.8,3.59-3.27c.31-1-.28-1.88-1.76-2.74a7.11,7.11,0,0,0-4.66-.93,16.3,16.3,0,0,0-5.66,2.19l-2,1.16Z"/><path class="cls-9" d="M1903.85,1574.68l12.36-7.14,16,9.26a32,32,0,0,1-4.29,4.06,45,45,0,0,1-5,3.36,27.67,27.67,0,0,1-14.9,3.84,32.81,32.81,0,0,1-15.54-4.67q-7.5-4.34-7.37-9.25t7.78-9.33a40.64,40.64,0,0,1,11.16-4.24l3.06,4.3a28.23,28.23,0,0,0-8.8,3.12c-2.86,1.65-4.19,3.52-4,5.61s1.89,4.07,5.11,5.93a22.73,22.73,0,0,0,9.77,3.24,14.89,14.89,0,0,0,8.7-2,25.05,25.05,0,0,0,3.78-2.67l-6.46-3.73-5.9,3.41Z"/><path class="cls-9" d="M2033.61,1519.83,2002.66,1502l6.61-3.82,25.53,14.74,12.65-7.3,5.42,3.13Z"/><path class="cls-9" d="M2071.06,1480.28c5.13,3,7.78,6,8,9s-2.1,6-6.88,8.74a28.63,28.63,0,0,1-15.13,4,32.6,32.6,0,0,1-15.69-4.63q-7.72-4.47-7.95-9t7-8.72a28.47,28.47,0,0,1,15.09-4A32.47,32.47,0,0,1,2071.06,1480.28Zm-22.75,13.14a23.56,23.56,0,0,0,9.8,3.37,14.45,14.45,0,0,0,8.55-1.91q7.9-4.58-2.53-10.59t-18.32-1.5q-3.94,2.28-3.32,5T2048.31,1493.42Z"/><path class="cls-9" d="M2087.5,1468.65l12.36-7.14,16,9.26a32,32,0,0,1-4.29,4.06,45,45,0,0,1-5,3.36,27.66,27.66,0,0,1-14.89,3.84,32.72,32.72,0,0,1-15.55-4.68q-7.5-4.32-7.37-9.24t7.78-9.33a40.64,40.64,0,0,1,11.16-4.24l3.06,4.3a28.23,28.23,0,0,0-8.8,3.12c-2.86,1.65-4.19,3.52-4,5.61s1.89,4.07,5.11,5.93a22.78,22.78,0,0,0,9.77,3.24,14.89,14.89,0,0,0,8.7-2,25.05,25.05,0,0,0,3.78-2.67l-6.45-3.73-5.91,3.41Z"/><path class="cls-9" d="M2232.42,1405l-31-17.87,6.61-3.81,25.54,14.74,12.64-7.31,5.42,3.13Z"/><path class="cls-9" d="M2284.75,1374.83l-8.4,4.85-37-5.69-.2.11q6.62,3.35,9.26,4.88l14.56,8.41-5.9,3.41-30.95-17.87,8.33-4.82,36.73,5.57.14-.09q-6.34-3.3-8.85-4.74l-14.65-8.46,6-3.43Z"/><path class="cls-9" d="M2414.19,1282.18c5.13,3,7.78,6,8,9s-2.1,6-6.88,8.73a28.54,28.54,0,0,1-15.13,4,32.38,32.38,0,0,1-15.69-4.63q-7.72-4.45-7.95-9t6.95-8.73a28.51,28.51,0,0,1,15.1-4A32.25,32.25,0,0,1,2414.19,1282.18Zm-22.75,13.14a23.68,23.68,0,0,0,9.8,3.36,14.37,14.37,0,0,0,8.55-1.91q7.9-4.56-2.53-10.59t-18.32-1.49c-2.63,1.51-3.74,3.17-3.32,5S2388,1293.32,2391.44,1295.32Z"/><path class="cls-9" d="M2442.68,1283.65l-6.51,3.76-31-17.87,17.87-10.32,5.38,3.11-11.37,6.56,8,4.61,10.58-6.11,5.36,3.09-10.58,6.11Z"/><path class="cls-9" d="M2466.64,1269.81l-6.5,3.76-30.95-17.87,17.87-10.32,5.38,3.11-11.37,6.56,8,4.61,10.58-6.11,5.35,3.09-10.57,6.11Z"/><path class="cls-9" d="M2026,1691.78c2.79,1.62,4,3.47,3.56,5.57s-2.43,4.19-6,6.28a35,35,0,0,1-10.69,4l-6.1-3.52a74.94,74.94,0,0,0,7.31-2,25.42,25.42,0,0,0,4.57-2c1.45-.84,2.29-1.64,2.51-2.4s-.2-1.46-1.29-2.09a5.27,5.27,0,0,0-2.13-.64,13.57,13.57,0,0,0-2.87.08c-1.1.13-3.14.5-6.14,1.12a44.06,44.06,0,0,1-6.84,1,23.52,23.52,0,0,1-5.14-.34,14.18,14.18,0,0,1-4.67-1.7c-2.73-1.58-4-3.37-3.65-5.35s2.1-3.93,5.4-5.83a28.94,28.94,0,0,1,5.21-2.35,64.06,64.06,0,0,1,6.23-1.74l3,4.18q-3.51.85-5.55,1.56a22.47,22.47,0,0,0-3.61,1.62c-1.25.73-1.92,1.45-2,2.17s.33,1.35,1.26,1.88a5.2,5.2,0,0,0,1.92.65,10.9,10.9,0,0,0,2.54,0q1.48-.16,6.36-1.17a39.44,39.44,0,0,1,10.15-1A15.64,15.64,0,0,1,2026,1691.78Z"/><path class="cls-9" d="M2040.19,1693.48l-31-17.87,6.61-3.81,31,17.87Z"/><path class="cls-9" d="M2082.31,1669.17l-8.4,4.85-37-5.69-.19.11q6.6,3.35,9.25,4.88l14.57,8.4-5.91,3.41-31-17.86,8.34-4.82,36.72,5.57.15-.09q-6.36-3.3-8.85-4.74l-14.65-8.46,6-3.43Z"/><path class="cls-9" d="M1852.61,1801.78l-6.59,3.81-13.36-7.72-12.34,7.13,13.35,7.72-6.61,3.81-31-17.87,6.61-3.81,12.13,7,12.35-7.13-12.13-7,6.59-3.81Z"/><path class="cls-9" d="M1852,1781.13l-6.25-11.12,7.13-4.11,8.56,16.89,12,7-6.57,3.79-11.84-6.83-29.46-5.06,7.17-4.14Z"/><path class="cls-9" d="M1888,1756.78q5,2.88,4.5,6.22c-.34,2.23-2.43,4.46-6.3,6.7l-2.84,1.63,11,6.36-6.61,3.82-31-17.87,10-5.75a24.8,24.8,0,0,1,11-3.58A17.88,17.88,0,0,1,1888,1756.78Zm-10,11.45,2.17-1.26c2-1.17,3.16-2.28,3.37-3.32s-.45-2-2-2.89a8.48,8.48,0,0,0-4.68-1.23,11.1,11.1,0,0,0-5.07,1.66l-3,1.73Z"/><path class="cls-9" d="M2288.15,2062.34q4.2,2.41,3.57,5.57t-6,6.27a35,35,0,0,1-10.69,4l-6.1-3.52c3-.68,5.47-1.32,7.31-1.94a26.93,26.93,0,0,0,4.57-2c1.45-.84,2.29-1.64,2.51-2.41s-.2-1.46-1.29-2.09a5.27,5.27,0,0,0-2.13-.64,14.26,14.26,0,0,0-2.87.08c-1.1.13-3.14.51-6.14,1.13a45.2,45.2,0,0,1-6.85,1,22.83,22.83,0,0,1-5.13-.33,14.42,14.42,0,0,1-4.67-1.71q-4.11-2.37-3.65-5.34c.3-2,2.1-3.93,5.4-5.84a30.06,30.06,0,0,1,5.21-2.35c1.85-.62,3.93-1.2,6.22-1.73l3,4.18c-2.35.57-4.19,1.08-5.55,1.56a20.5,20.5,0,0,0-3.61,1.62q-1.87,1.08-2,2.16t1.26,1.89a5.19,5.19,0,0,0,1.92.64,11.41,11.41,0,0,0,2.54,0q1.49-.16,6.36-1.17a39,39,0,0,1,10.15-1.06A15.47,15.47,0,0,1,2288.15,2062.34Z"/><path class="cls-9" d="M2314.42,2057.09l-6.61,3.82-25.48-14.72-8.47,4.89-5.46-3.15,23.54-13.59,5.46,3.15-8.46,4.89Z"/><path class="cls-9" d="M2340.47,2024.14q7.68,4.44,8,9c.2,3.06-2.1,6-6.87,8.73a28.56,28.56,0,0,1-15.13,4,32.45,32.45,0,0,1-15.7-4.63q-7.72-4.45-7.95-9t7-8.73a28.49,28.49,0,0,1,15.1-4A32.28,32.28,0,0,1,2340.47,2024.14Zm-22.75,13.14a23.69,23.69,0,0,0,9.79,3.36,14.37,14.37,0,0,0,8.55-1.91q7.92-4.56-2.52-10.59t-18.33-1.49c-2.63,1.51-3.73,3.17-3.31,4.95S2314.26,2035.28,2317.72,2037.28Z"/><path class="cls-9" d="M2347.81,1861.64l-18,10.37-30.95-17.87,18-10.37,5.37,3.11-11.34,6.55,6.8,3.92,10.55-6.09,5.38,3.1-10.56,6.1,8,4.6,11.35-6.55Z"/><path class="cls-9" d="M2372.27,1847.52l-18,10.37L2323.36,1840l18-10.37,5.37,3.11-11.34,6.55,6.79,3.92,10.56-6.09,5.38,3.1-10.56,6.09,8,4.61,11.35-6.55Z"/><path class="cls-9" d="M2422.51,2153.53l11.88,6.85-6.61,3.82-31-17.87,9.08-5.24a28.43,28.43,0,0,1,11.7-4.11,16.89,16.89,0,0,1,10,2.27,6.61,6.61,0,0,1,3.34,3.68,5.07,5.07,0,0,1-.95,4.4q17.47,2,22.66,2.49l-7.34,4.24L2426,2151.5Zm-5.33-3.08,2.13-1.23q3.14-1.81,3.59-3.27c.31-1-.28-1.89-1.77-2.75a7.13,7.13,0,0,0-4.65-.93,16.22,16.22,0,0,0-5.66,2.19l-2,1.16Z"/><path class="cls-9" d="M2443.92,2124.94q-3.74,2.14-3,4.94t5.72,5.66q10.35,6,18.17,1.46a24.16,24.16,0,0,0,6.33-5.53l5.5,3.18a22,22,0,0,1-7,5.86,26.52,26.52,0,0,1-14.51,3.64,33,33,0,0,1-15.36-4.7q-4.83-2.79-6.69-5.91a6.3,6.3,0,0,1-.48-6.15q1.38-3,5.84-5.61a38.14,38.14,0,0,1,11.3-4l3.21,4.31q-2.58.54-5,1.21A17.42,17.42,0,0,0,2443.92,2124.94Z"/><path class="cls-9" d="M2484.44,2131.49l-31-17.87,6.61-3.82,25.53,14.74,12.64-7.3,5.42,3.13Z"/><path class="cls-9" d="M2174.6,1585.94c-2.49,1.43-3.48,3.08-3,4.94s2.39,3.75,5.71,5.66q10.35,6,18.18,1.46a24.32,24.32,0,0,0,6.32-5.53l5.5,3.17a21.81,21.81,0,0,1-7,5.87,26.48,26.48,0,0,1-14.5,3.64,33,33,0,0,1-15.37-4.71q-4.81-2.78-6.68-5.9a6.33,6.33,0,0,1-.49-6.15q1.38-3,5.84-5.61a37.92,37.92,0,0,1,11.31-4l3.2,4.31q-2.58.54-5,1.2A17.86,17.86,0,0,0,2174.6,1585.94Z"/><path class="cls-9" d="M2227.9,1567.19q7.68,4.44,8,9T2229,1585a28.56,28.56,0,0,1-15.13,4,32.38,32.38,0,0,1-15.69-4.63q-7.74-4.46-8-9t7-8.73a28.49,28.49,0,0,1,15.1-4A32.28,32.28,0,0,1,2227.9,1567.19Zm-22.75,13.14a23.69,23.69,0,0,0,9.79,3.36,14.4,14.4,0,0,0,8.56-1.91q7.9-4.56-2.53-10.59t-18.33-1.49q-3.94,2.28-3.31,5T2205.15,1580.33Z"/><path class="cls-9" d="M2259.69,1556.83c2.79,1.62,4,3.47,3.56,5.57s-2.43,4.19-6,6.27a34.65,34.65,0,0,1-10.69,4l-6.1-3.52a74.94,74.94,0,0,0,7.31-2,25.11,25.11,0,0,0,4.57-2c1.45-.84,2.29-1.64,2.51-2.4s-.2-1.46-1.29-2.09a5.17,5.17,0,0,0-2.13-.64,13.57,13.57,0,0,0-2.87.08q-1.65.19-6.13,1.12a44.33,44.33,0,0,1-6.85,1,23.52,23.52,0,0,1-5.14-.34,14.41,14.41,0,0,1-4.67-1.7c-2.73-1.58-3.95-3.37-3.65-5.35s2.11-3.93,5.4-5.83a28.94,28.94,0,0,1,5.21-2.35,64.06,64.06,0,0,1,6.23-1.74l3,4.18q-3.51.86-5.55,1.56a22.47,22.47,0,0,0-3.61,1.62c-1.25.73-1.92,1.45-2,2.17s.33,1.35,1.26,1.88a5,5,0,0,0,1.92.64,10.32,10.32,0,0,0,2.54,0q1.48-.16,6.36-1.17a39.47,39.47,0,0,1,10.16-1A15.6,15.6,0,0,1,2259.69,1556.83Z"/><path class="cls-9" d="M2385.74,1494l-6.61,3.81-25.49-14.71-8.46,4.89-5.46-3.16,23.54-13.59,5.46,3.15-8.47,4.89Z"/><path class="cls-9" d="M2418.09,1475.3l-9.63-3-11.36,6.57,5.1,5.55-7.12,4.12-20.07-24.3,8.08-4.67,42.12,11.57Zm-16.71-5.21q-13.14-4-14.85-4.51t-2.64-.87q2,2,9.37,10.07Z"/><path class="cls-9" d="M2456.79,1453l-8.4,4.85-37-5.69-.19.11q6.6,3.35,9.25,4.88l14.56,8.4-5.9,3.41-30.95-17.86,8.33-4.82,36.73,5.57.15-.09q-6.36-3.3-8.86-4.74l-14.64-8.46,5.94-3.43Z"/><path class="cls-9" d="M2965.23,1565.1l-11.73,6.77-29.45-4,6.92,17-11,6.35-8.73-23.6-38.33-4.76,11.34-6.54,27.73,4-7.06-15.9L2916,1538l8.64,22.55Z"/><polygon class="cls-9" points="3123.8 1654.74 3078.54 1680.88 3089.8 1687.37 3135.05 1661.24 3123.8 1654.74"/><polygon class="cls-9" points="3484.57 1863.04 3439.31 1889.16 3450.57 1895.66 3495.82 1869.53 3484.57 1863.04"/><polygon class="cls-9" points="3502.4 1873.33 3457.14 1899.46 3468.4 1905.96 3513.66 1879.83 3502.4 1873.33"/><polygon class="cls-9" points="3304.28 1758.95 3259.03 1785.08 3270.28 1791.58 3315.54 1765.45 3304.28 1758.95"/><polygon class="cls-9" points="3315.42 1784.96 3270.49 1759.02 3259.15 1765.57 3304.08 1791.51 3315.42 1784.96"/><polygon class="cls-9" points="2752.96 1440.64 2707.7 1466.77 2718.96 1473.27 2764.22 1447.14 2752.96 1440.64"/><ellipse class="cls-9" cx="2710.05" cy="1442" rx="11.35" ry="6.55" transform="translate(-9.02 17.08) rotate(-0.36)"/><ellipse class="cls-9" cx="2761.86" cy="1471.91" rx="11.35" ry="6.55" transform="translate(-9.21 17.41) rotate(-0.36)"/><path class="cls-9" d="M2810.91,2126.45l-10.23,5.91-27.83-16.06-4.47-2.7-4.83-3a25.61,25.61,0,0,1-.23,4l-1.12,5.78-11.06-.68,3.27-16.13,8.42-4.86Z"/><path class="cls-9" d="M3005.3,2014.22l-33.86,19.55-7.07-4.08,0-14.07a53.19,53.19,0,0,0-.55-8.47,9.31,9.31,0,0,0-1.55-3.64,9.63,9.63,0,0,0-3-2.59,10.93,10.93,0,0,0-5.91-1.56,12.14,12.14,0,0,0-5.71,1.66,11.31,11.31,0,0,0-4.18,3.9,15,15,0,0,0-1.88,5.3l-12.11-.57a18.56,18.56,0,0,1,1.65-5.89,16.14,16.14,0,0,1,3.21-4.07,30,30,0,0,1,5.56-4,32.18,32.18,0,0,1,9.66-3.68,30.8,30.8,0,0,1,10-.46,22.86,22.86,0,0,1,8.7,2.8,16.2,16.2,0,0,1,5,4.28,13.25,13.25,0,0,1,2.33,5.55,41.71,41.71,0,0,1,0,10.06l-.41,7,.46.27,21.11-12.19Z"/><path class="cls-9" d="M3151.92,1886.47q4.5,2.6,4.91,6c.27,2.27-.85,4.59-3.38,7l.2.12a31.92,31.92,0,0,1,12.42-3.09,19.91,19.91,0,0,1,10.59,2.64q6.95,4,5.74,9.16t-10.62,10.59a59.85,59.85,0,0,1-16.57,6.57l-8.65-5a64.63,64.63,0,0,0,8.49-2.25,41.25,41.25,0,0,0,7.58-3.35q5.07-2.92,5.78-5.31t-3.07-4.57a10.74,10.74,0,0,0-7.59-1.16,34.23,34.23,0,0,0-10.29,4.31l-3.68,2.12-7.79-4.5,3.74-2.16q5.64-3.25,6.77-5.6t-2.42-4.4q-5.46-3.15-12.35.83a16.25,16.25,0,0,0-4.06,3.26,14.89,14.89,0,0,0-2.76,4.74l-11.74-1.31q1.89-6.55,11.07-11.86a37.58,37.58,0,0,1,14.9-5.11A20.68,20.68,0,0,1,3151.92,1886.47Z"/><path class="cls-9" d="M2950.13,2197.26q12.59,7.27,14.49,13.17t-6.75,10.89A30.26,30.26,0,0,1,2939,2225q-10.5-1.14-22.71-8.19-12.73-7.35-14.63-13.23t6.72-10.84a30.33,30.33,0,0,1,19-3.67Q2938,2190.24,2950.13,2197.26Zm-23.69,13.68q8.85,5.1,14.22,6.43t9-.78q3.57-2.07,1.28-5.23t-11-8.21q-8.85-5.1-14.32-6.41t-9,.74q-3.62,2.08-1.3,5.22T2926.44,2210.94Z"/><path class="cls-9" d="M3120.48,2098.91q12.6,7.28,14.49,13.17t-6.75,10.88a30.2,30.2,0,0,1-18.89,3.69q-10.5-1.14-22.71-8.19-12.73-7.35-14.62-13.23t6.71-10.85a30.4,30.4,0,0,1,19-3.67Q3108.32,2091.88,3120.48,2098.91Zm-23.69,13.68q8.85,5.1,14.22,6.42t9-.77q3.57-2.07,1.29-5.23t-11.05-8.21q-8.85-5.12-14.31-6.41t-9,.74q-3.61,2.09-1.3,5.22T3096.79,2112.59Z"/><path class="cls-9" d="M3159.21,2076.55q12.6,7.27,14.49,13.17T3167,2100.6a30.2,30.2,0,0,1-18.89,3.69q-10.5-1.14-22.71-8.19-12.73-7.35-14.62-13.23t6.71-10.85a30.4,30.4,0,0,1,19-3.67Q3147.05,2069.52,3159.21,2076.55Zm-23.69,13.67q8.85,5.12,14.22,6.43t9-.78q3.57-2.05,1.28-5.22t-11-8.21q-8.85-5.11-14.31-6.41t-9,.74q-3.61,2.08-1.3,5.22T3135.52,2090.22Z"/><path class="cls-9" d="M2663,2029.92l-5.82,3.36,10,5.76-10,5.77-10-5.75L2626.49,2051l-7.08-4.09-9.81-30.18,9.45-5.46,30.22,17.45,5.83-3.36Zm-23.72,4.58-8.16-4.71q-2-1.17-5.75-3.51t-4.25-2.75l-.26.15a21.2,21.2,0,0,1,2.31,4.74l4.44,12.81Z"/><path class="cls-9" d="M2810.75,1920.65a30.73,30.73,0,0,1,15.1-4.2,28.27,28.27,0,0,1,14.88,3.79q8.05,4.65,7.4,10t-10,10.77a48.86,48.86,0,0,1-15.66,6l-8.78-5.07a53.8,53.8,0,0,0,8.35-2.22,43.16,43.16,0,0,0,7.47-3.3q9.38-5.41,1.74-9.82-7.28-4.2-17,1.41a29.14,29.14,0,0,0-3.53,2.44,27.47,27.47,0,0,0-2.7,2.41l-6.25,1.1-22.68-15.2,26.27-15.16,8.62,5-17.29,10,8.54,6,.93-.8A25.56,25.56,0,0,1,2810.75,1920.65Z"/><path class="cls-9" d="M2988.93,1829.66q-14.28-8.23-15.17-15.77t11.23-14.54a50.6,50.6,0,0,1,7-3.47l8.12,4.7a41.43,41.43,0,0,0-6.48,3q-5.28,3-7,5.88a5.28,5.28,0,0,0-.32,5.57q1.44,2.74,6.83,6.2l.43-.25q-2.31-5.12,4.91-9.29a26.45,26.45,0,0,1,14.22-3.54,31.14,31.14,0,0,1,14.86,4.34q7.69,4.44,7.81,9.56t-7.64,9.59a32.07,32.07,0,0,1-11.82,4,38.43,38.43,0,0,1-13.37-.6A46.8,46.8,0,0,1,2988.93,1829.66Zm30.45-2.62q3.28-1.89,2.85-4.17t-4.48-4.61a16.27,16.27,0,0,0-7.18-2.25,12.25,12.25,0,0,0-7,1.69c-2.07,1.2-3.18,2.61-3.31,4.23s.69,2.94,2.47,4a20.1,20.1,0,0,0,8.68,2.62A13.54,13.54,0,0,0,3019.38,1827Z"/><path class="cls-9" d="M2490.3,1965,2469,1931.73l-23.89,13.8-8.55-4.94,34.75-20.07,6.39,3.69,23.31,34.61Z"/><path class="cls-9" d="M2639.32,1822.74a34.43,34.43,0,0,1,14.36-4.66,21.2,21.2,0,0,1,12.72,2.43q3.69,2.13,4.51,5t-1.48,6.8a56.46,56.46,0,0,1,13.84-1,22,22,0,0,1,9.26,2.61q5.91,3.42,4.85,8.2t-8.69,9.17a38.31,38.31,0,0,1-15.85,5.28,23.4,23.4,0,0,1-14-2.87q-4.11-2.37-5.1-5.49c-.66-2.07-.17-4.52,1.45-7.33a44,44,0,0,1-11.52.23,22.48,22.48,0,0,1-8.3-2.68q-5.17-3-4-7.31T2639.32,1822.74Zm28.36,25.1a11,11,0,0,0,6.4,1.39,15.89,15.89,0,0,0,7-2.22q3.81-2.21,4.07-4.23t-2.4-3.57a12.2,12.2,0,0,0-6-1.3,57,57,0,0,0-10.18,1.14Q2662.76,1845,2667.68,1847.84Zm-21-20.77c-1.75,1-2.71,2.08-2.9,3.21s.48,2.12,2,3a10.83,10.83,0,0,0,4.81,1.3,33,33,0,0,0,7.83-.82c1.15-1.83,1.64-3.3,1.44-4.4a4.25,4.25,0,0,0-2.36-2.86,9.06,9.06,0,0,0-5.24-1.11A12.66,12.66,0,0,0,2646.69,1827.07Z"/><path class="cls-9" d="M2863.27,1717.86q14.2,8.21,15.18,15.73t-11.24,14.59a53.41,53.41,0,0,1-7,3.5l-8.16-4.71a37.53,37.53,0,0,0,6.52-3c3.43-2,5.74-3.89,7-5.74a5.29,5.29,0,0,0,.36-5.64q-1.46-2.86-6.81-6.27l-.4.23a5.52,5.52,0,0,1-.1,5.07,13.49,13.49,0,0,1-5,4.36,26,26,0,0,1-14,3.43,31.11,31.11,0,0,1-14.84-4.36q-7.74-4.47-7.8-9.61t7.55-9.55a32.28,32.28,0,0,1,11.89-4,38.74,38.74,0,0,1,13.43.62A46.81,46.81,0,0,1,2863.27,1717.86Zm-30.45,2.66c-2.12,1.22-3.06,2.6-2.8,4.12s1.74,3.07,4.46,4.64a16.33,16.33,0,0,0,7.15,2.25,12,12,0,0,0,7-1.67c2.08-1.2,3.18-2.61,3.32-4.25s-.69-2.95-2.44-4a20.1,20.1,0,0,0-8.68-2.62A13.52,13.52,0,0,0,2832.82,1720.52Z"/><ellipse class="cls-9" cx="3322.07" cy="2002.54" rx="10.47" ry="6.05" transform="translate(-12.53 20.94) rotate(-0.36)"/><path class="cls-9" d="M2501.23,1751.76a52.31,52.31,0,0,1-13.75-10.9,23.84,23.84,0,0,1-5.92-12l8.29-4.79a29.2,29.2,0,0,0,6.89,12.13,54,54,0,0,0,13.24,10.4,82.2,82.2,0,0,0,18,7.58,103.69,103.69,0,0,0,20.53,3.85l-8.21,4.74a87.86,87.86,0,0,1-20.48-3.25A81,81,0,0,1,2501.23,1751.76Z"/><path class="cls-9" d="M2704,1634.69a50.68,50.68,0,0,1,13.55,10.79q4.9,5.79,5.59,11.77l-8.22,4.75a29.11,29.11,0,0,0-6.64-11.83,51.6,51.6,0,0,0-13.15-10.43,84.63,84.63,0,0,0-18-7.64,104.35,104.35,0,0,0-21-4l8.28-4.78a90.69,90.69,0,0,1,20.79,3.43A83.55,83.55,0,0,1,2704,1634.69Z"/><polygon class="cls-9" points="2778.01 2301.67 2711.11 2340.3 2699.22 2333.43 2766.12 2294.81 2778.01 2301.67"/><polygon class="cls-9" points="2797.34 2283.65 2797.16 2312.73 2746.97 2283.75 2797.34 2283.65"/><polygon class="cls-17" points="2075.41 1967.92 2123.11 1940.38 2131.72 1945.35 2107.87 1959.12 2151.4 1956.71 2147.54 1982.02 2171.39 1968.25 2179.69 1973.05 2131.99 2000.58 2136.84 1965.12 2075.41 1967.92"/><polygon class="cls-17" points="2191.89 1947.18 2184.45 1951.48 2156.78 1935.5 2164.21 1931.21 2191.89 1947.18"/><polygon class="cls-17" points="2164.08 1951.52 2156.7 1947.26 2184.58 1931.16 2191.96 1935.42 2164.08 1951.52"/><path class="cls-9" d="M2531.18,1355.72c.93.16,2.14.41,3.63.73s3.17.7,5,1.13,3.87.91,6,1.43,4.34,1.06,6.57,1.62,4.46,1.12,6.69,1.7,4.37,1.15,6.41,1.7c1.85.51,3.5,1,4.93,1.41s2.85.89,4.23,1.37l.17-.1q-1.76-2.54-3.53-5.13l-3.46-5.13q-1.7-2.54-3.24-4.9t-2.85-4.49q-1.31-2.1-2.34-3.86c-.69-1.18-1.25-2.19-1.69-3a3.08,3.08,0,0,1-.44-1.44,2,2,0,0,1,.33-1.12,3.24,3.24,0,0,1,.92-.93c.4-.29.86-.57,1.36-.86a9.1,9.1,0,0,1,1-.5c.41-.18.85-.34,1.31-.49s.94-.28,1.44-.4a10.78,10.78,0,0,1,1.46-.23,94.53,94.53,0,0,0,3.09,10.17q1.74,4.65,3.53,8.37c1.19,2.48,2.33,4.66,3.43,6.52s2.05,3.39,2.84,4.6a24.59,24.59,0,0,0,1.67,2.29,18.65,18.65,0,0,0,2.13,2.15c.84.73,1.84,1.51,3,2.34s2.59,1.79,4.29,2.86l3.44,2.16,3.71,2.32,4.16,2.58,4.8,2.94-5.79,4.31-.56.25q-3.49-2.24-6.9-4.38t-6.29-3.93q-2.88-1.77-5.06-3.08l-3.2-1.9a39.37,39.37,0,0,0-3.9-1.94q-2.16-.93-4.87-1.8c-2-.63-4.14-1.26-6.48-1.9s-4.71-1.26-7.14-1.88-4.84-1.2-7.26-1.76-4.71-1.07-6.87-1.54-4.12-.89-5.9-1.25-3.25-.65-4.42-.87a19.72,19.72,0,0,0-2.78-.38,10.84,10.84,0,0,0-2.37.08,10.19,10.19,0,0,0-2.14.55,14.64,14.64,0,0,0-2.13,1,21.58,21.58,0,0,0-2,1.29q-1,.7-2.07,1.53l-2.77-1.25q3.16-3,5.37-5a25.94,25.94,0,0,1,4-2.94,9.16,9.16,0,0,1,3.49-1.23A12.87,12.87,0,0,1,2531.18,1355.72Z"/><path class="cls-9" d="M2564.48,1331.74l1.35-1.5c.43-.47.84-.89,1.21-1.26s.72-.69,1-1a8.11,8.11,0,0,1,.78-.57,4.8,4.8,0,0,1,1-.43,4.7,4.7,0,0,1,1.32-.15,11,11,0,0,1,1.83.18,24,24,0,0,1,2.53.6c1.17.33,2.31.64,3.39.91l3.21.85a30.72,30.72,0,0,1-1.54-3.11,9.6,9.6,0,0,1-.73-2.64,4.11,4.11,0,0,1,.27-2.13,3.2,3.2,0,0,1,1.44-1.53,5.23,5.23,0,0,1,1.4-.57,6.22,6.22,0,0,1,1.39-.2,5,5,0,0,1,1.3.14,4.86,4.86,0,0,1,1.08.42,2.54,2.54,0,0,1,.93.91,1.38,1.38,0,0,1,.09,1.16l-.12.07a7.86,7.86,0,0,0-1.1,0,7,7,0,0,0-.9.16,5.44,5.44,0,0,0-.75.26,5.58,5.58,0,0,0-.6.31,2.63,2.63,0,0,0-1.21,1.27,3.35,3.35,0,0,0-.2,1.72,8.21,8.21,0,0,0,.6,2.08,23,23,0,0,0,1.2,2.37c1.75.46,3.32.87,4.69,1.2s2.59.61,3.66.82,2,.35,2.81.44a15,15,0,0,0,2.16.08,7.41,7.41,0,0,0,1.68-.26,7.2,7.2,0,0,0,1.4-.6c.3-.18.57-.35.8-.51a7,7,0,0,0,.66-.48c.2-.17.39-.36.59-.56s.39-.43.6-.7l1.16.32a7.76,7.76,0,0,1-.65,1.42,9.74,9.74,0,0,1-1,1.37,10.55,10.55,0,0,1-1.2,1.21,9.19,9.19,0,0,1-1.34,1,6.31,6.31,0,0,1-2.23.74,12.8,12.8,0,0,1-3,0,39,39,0,0,1-4-.7q-2.3-.51-5.4-1.31a33.18,33.18,0,0,1,1.34,3.21,10.5,10.5,0,0,1,.6,2.77,4.85,4.85,0,0,1-.36,2.24,3.49,3.49,0,0,1-1.52,1.6,5.74,5.74,0,0,1-1.34.57,5.63,5.63,0,0,1-1.31.2,4.59,4.59,0,0,1-1.19-.11,3.66,3.66,0,0,1-1-.38,2.46,2.46,0,0,1-.8-.73,1.82,1.82,0,0,1-.33-1,17.41,17.41,0,0,0,1.87-.6,8.73,8.73,0,0,0,1.29-.61,3.4,3.4,0,0,0,1.37-1.34,3.5,3.5,0,0,0,.38-1.78,7.66,7.66,0,0,0-.44-2.19,23.55,23.55,0,0,0-1.09-2.56l-2-.54-2.21-.58-2.45-.65-2.76-.75a21.16,21.16,0,0,0-2.18-.46,8.74,8.74,0,0,0-1.62-.11,5.24,5.24,0,0,0-1.28.22,6.1,6.1,0,0,0-1.11.5,8.85,8.85,0,0,0-1,.72c-.36.3-.75.63-1.15,1Z"/><path class="cls-9" d="M2331.72,1667.7c.8-.92,1.57-1.78,2.32-2.59s1.45-1.54,2.1-2.18,1.24-1.19,1.77-1.63a8.45,8.45,0,0,1,1.34-1,7.63,7.63,0,0,1,1.75-.75,8.38,8.38,0,0,1,2.28-.27,19,19,0,0,1,3.16.32,43.47,43.47,0,0,1,4.35,1q3,.86,5.85,1.58c1.87.48,3.72,1,5.54,1.46a49.86,49.86,0,0,1-2.65-5.36,16.59,16.59,0,0,1-1.27-4.57,7.26,7.26,0,0,1,.46-3.66,5.65,5.65,0,0,1,2.51-2.65,9.52,9.52,0,0,1,2.4-1,11.35,11.35,0,0,1,2.41-.33,8.12,8.12,0,0,1,2.23.24,7.15,7.15,0,0,1,1.86.73,4.17,4.17,0,0,1,1.61,1.56,2.38,2.38,0,0,1,.16,2l-.21.12a11.68,11.68,0,0,0-1.89,0,10,10,0,0,0-1.57.28,8,8,0,0,0-1.28.45,9.16,9.16,0,0,0-1,.52,4.69,4.69,0,0,0-2.09,2.2,5.8,5.8,0,0,0-.34,3,13.61,13.61,0,0,0,1,3.58,40.22,40.22,0,0,0,2.06,4.09q4.55,1.21,8.1,2.08t6.31,1.4c1.83.36,3.45.62,4.85.76a24.6,24.6,0,0,0,3.72.15,12.67,12.67,0,0,0,2.9-.46,11,11,0,0,0,2.42-1c.52-.3,1-.59,1.39-.87a12.75,12.75,0,0,0,1.13-.84,11.31,11.31,0,0,0,1-1c.34-.35.68-.75,1.05-1.2l2,.55a12.64,12.64,0,0,1-1.12,2.45,16.32,16.32,0,0,1-1.67,2.36,17.76,17.76,0,0,1-2.07,2.09,15.85,15.85,0,0,1-2.31,1.65,10.75,10.75,0,0,1-3.84,1.28,21.45,21.45,0,0,1-5.13,0,65.54,65.54,0,0,1-6.94-1.21c-2.65-.58-5.75-1.34-9.32-2.26a52.47,52.47,0,0,1,2.31,5.55,17.84,17.84,0,0,1,1,4.78,8.13,8.13,0,0,1-.62,3.86,6,6,0,0,1-2.62,2.76,9.55,9.55,0,0,1-4.56,1.32,7.75,7.75,0,0,1-2.07-.19,5.92,5.92,0,0,1-1.73-.65,4.12,4.12,0,0,1-1.39-1.25,3.21,3.21,0,0,1-.56-1.67,33.07,33.07,0,0,0,3.23-1,18,18,0,0,0,2.22-1,5.82,5.82,0,0,0,2.37-2.32,6.1,6.1,0,0,0,.65-3.07,12.8,12.8,0,0,0-.76-3.77,38.25,38.25,0,0,0-1.89-4.42l-3.5-.93-3.8-1-4.24-1.12-4.77-1.29c-1.44-.37-2.7-.64-3.74-.8a16,16,0,0,0-2.81-.18,8.4,8.4,0,0,0-2.2.38,10.47,10.47,0,0,0-1.91.86,13,13,0,0,0-1.77,1.25c-.62.51-1.28,1.07-2,1.69Z"/><path class="cls-9" d="M2395.43,1636.27l-14.2,8.2-3-1.72,0-5.9a21.63,21.63,0,0,0-.23-3.55,4,4,0,0,0-.65-1.53,4,4,0,0,0-1.27-1.08,4.56,4.56,0,0,0-2.48-.66,5.13,5.13,0,0,0-2.39.7,4.81,4.81,0,0,0-1.76,1.63,6.33,6.33,0,0,0-.78,2.23l-5.09-.24a7.83,7.83,0,0,1,.7-2.47,6.78,6.78,0,0,1,1.34-1.71,12.54,12.54,0,0,1,2.33-1.67A13.54,13.54,0,0,1,2372,1627a12.93,12.93,0,0,1,4.19-.19,9.46,9.46,0,0,1,3.65,1.18,6.63,6.63,0,0,1,2.12,1.79,5.61,5.61,0,0,1,1,2.33,17.86,17.86,0,0,1,0,4.22l-.17,2.91.19.12,8.85-5.11Z"/><path class="cls-9" d="M2123.57,1786.12q2.19-2.52,4.14-4.58c1.31-1.38,2.48-2.58,3.53-3.61s1.94-1.84,2.67-2.47a13,13,0,0,1,1.56-1.22,3.5,3.5,0,0,1,2-.49,4.27,4.27,0,0,1,1.91.57l1,.65,2.1,1.35,2.86,1.85,3.29,2.12,3.4,2.19,3.19,2c1.49,1,3,1.94,4.57,2.93l4.66,2.94c1.54,1,3.08,1.93,4.6,2.85s3,1.82,4.42,2.66l-5,3.66-.44.22c-1-.72-2.19-1.49-3.43-2.31l-3.66-2.39c-1.2-.79-2.34-1.52-3.4-2.19l-2.66-1.69-7.39-4.61q-4.14-2.58-9.29-5.56a6.76,6.76,0,0,0-2.59-1,3.4,3.4,0,0,0-2.12.46,24.57,24.57,0,0,0-3,2.22,58.61,58.61,0,0,0-4.48,4.21Z"/><path class="cls-9" d="M2157.2,1755.91l3.6-2.08,36.21,39.61-3.61,2.09Z"/><path class="cls-9" d="M2178,1753.37c.8-.91,1.58-1.78,2.32-2.59s1.45-1.53,2.1-2.17,1.24-1.19,1.77-1.64a10.62,10.62,0,0,1,1.34-1,7.8,7.8,0,0,1,1.75-.74,8,8,0,0,1,2.28-.28,20.18,20.18,0,0,1,3.16.32c1.21.22,2.67.56,4.36,1q3,.87,5.85,1.58c1.87.48,3.71,1,5.54,1.46a50,50,0,0,1-2.66-5.35,16.69,16.69,0,0,1-1.26-4.58,7.16,7.16,0,0,1,.46-3.66,5.67,5.67,0,0,1,2.5-2.65,9.13,9.13,0,0,1,2.4-1,10.85,10.85,0,0,1,2.41-.34,8.65,8.65,0,0,1,2.24.25,7.08,7.08,0,0,1,1.86.73,4.05,4.05,0,0,1,1.6,1.55,2.31,2.31,0,0,1,.16,2l-.21.12a11.61,11.61,0,0,0-1.89,0,9.67,9.67,0,0,0-1.56.28,7.78,7.78,0,0,0-1.29.44,10.08,10.08,0,0,0-1,.53,4.62,4.62,0,0,0-2.08,2.2,5.64,5.64,0,0,0-.34,3,13.62,13.62,0,0,0,1,3.59,41.17,41.17,0,0,0,2.06,4.08c3,.81,5.73,1.51,8.1,2.08s4.48,1,6.31,1.41,3.45.61,4.85.76a24.61,24.61,0,0,0,3.73.14,12.34,12.34,0,0,0,2.9-.45,11.18,11.18,0,0,0,2.41-1c.52-.3,1-.59,1.39-.86a13.31,13.31,0,0,0,1.13-.85,11.4,11.4,0,0,0,1-1c.33-.35.68-.75,1-1.2l2,.55a12.31,12.31,0,0,1-1.11,2.45,16.39,16.39,0,0,1-1.68,2.36,17,17,0,0,1-2.07,2.09,14.84,14.84,0,0,1-2.31,1.65,10.56,10.56,0,0,1-3.84,1.28,20.86,20.86,0,0,1-5.12,0,62.4,62.4,0,0,1-6.94-1.2q-4-.88-9.32-2.26a55.32,55.32,0,0,1,2.3,5.54,17.52,17.52,0,0,1,1,4.79,8.21,8.21,0,0,1-.61,3.85,6.16,6.16,0,0,1-2.62,2.77,9.9,9.9,0,0,1-2.31,1,9.71,9.71,0,0,1-2.26.35,8.27,8.27,0,0,1-2.07-.19,6.55,6.55,0,0,1-1.73-.65,4.24,4.24,0,0,1-1.39-1.26,3.15,3.15,0,0,1-.56-1.67,30.55,30.55,0,0,0,3.23-1,16.79,16.79,0,0,0,2.22-1,5.88,5.88,0,0,0,2.37-2.32,6.25,6.25,0,0,0,.66-3.08,12.9,12.9,0,0,0-.77-3.77,35.69,35.69,0,0,0-1.89-4.42c-1.13-.29-2.3-.6-3.5-.93l-3.8-1-4.23-1.13-4.77-1.28a37,37,0,0,0-3.75-.8,14.27,14.27,0,0,0-2.81-.18,7.71,7.71,0,0,0-2.2.38,10.11,10.11,0,0,0-1.91.86,14.16,14.16,0,0,0-1.77,1.24c-.62.51-1.28,1.08-2,1.7Z"/><polygon class="cls-9" points="2548.33 1595.42 2502.55 1595.52 2502.59 1590.12 2531.06 1590.06 2488.95 1552.87 2559.4 1512.19 2565.99 1516 2500.93 1553.56 2548.33 1595.42"/><path class="cls-9" d="M2530.4,1555.86c.8-.91,1.57-1.78,2.32-2.59s1.45-1.53,2.1-2.17,1.24-1.19,1.77-1.64a10.62,10.62,0,0,1,1.34-1,7.8,7.8,0,0,1,1.75-.74,8,8,0,0,1,2.28-.28,20.18,20.18,0,0,1,3.16.32c1.21.22,2.66.56,4.35,1,2,.58,4,1.11,5.85,1.58s3.72,1,5.55,1.46a50,50,0,0,1-2.66-5.35,16.74,16.74,0,0,1-1.27-4.58,7.27,7.27,0,0,1,.47-3.66,5.62,5.62,0,0,1,2.5-2.65,9.13,9.13,0,0,1,2.4-1,10.77,10.77,0,0,1,2.41-.34,8.52,8.52,0,0,1,2.23.25,6.81,6.81,0,0,1,1.86.73,4.08,4.08,0,0,1,1.61,1.55,2.38,2.38,0,0,1,.16,2l-.21.12a11.61,11.61,0,0,0-1.89,0,10,10,0,0,0-1.57.28,8,8,0,0,0-1.28.44,9.15,9.15,0,0,0-1,.53,4.57,4.57,0,0,0-2.08,2.2,5.74,5.74,0,0,0-.35,3,13.67,13.67,0,0,0,1,3.59,39.11,39.11,0,0,0,2.06,4.08c3,.81,5.73,1.51,8.1,2.08s4.47,1,6.31,1.41,3.45.61,4.85.76a25.85,25.85,0,0,0,3.72.14,12.34,12.34,0,0,0,2.91-.45,11.18,11.18,0,0,0,2.41-1c.52-.3,1-.59,1.39-.86a13.31,13.31,0,0,0,1.13-.85,11.4,11.4,0,0,0,1-1c.33-.35.67-.75,1-1.2l2,.55a12.37,12.37,0,0,1-1.12,2.45,16.32,16.32,0,0,1-1.67,2.36,17,17,0,0,1-2.07,2.09,15.85,15.85,0,0,1-2.31,1.65,10.56,10.56,0,0,1-3.84,1.28,20.93,20.93,0,0,1-5.13,0,65.68,65.68,0,0,1-6.94-1.2q-4-.88-9.32-2.26a53.25,53.25,0,0,1,2.31,5.54,17.9,17.9,0,0,1,1,4.79,8.09,8.09,0,0,1-.62,3.85,6.05,6.05,0,0,1-2.62,2.77,9.86,9.86,0,0,1-4.56,1.32,8.18,8.18,0,0,1-2.07-.19,6.55,6.55,0,0,1-1.73-.65,4.24,4.24,0,0,1-1.39-1.26,3.15,3.15,0,0,1-.56-1.67,30.55,30.55,0,0,0,3.23-1,18.09,18.09,0,0,0,2.22-1,5.88,5.88,0,0,0,2.37-2.32,6.14,6.14,0,0,0,.65-3.08,12.86,12.86,0,0,0-.76-3.77,39,39,0,0,0-1.89-4.42c-1.14-.29-2.3-.6-3.5-.93l-3.8-1-4.24-1.13-4.76-1.28a37,37,0,0,0-3.75-.8,14.31,14.31,0,0,0-2.81-.18,7.65,7.65,0,0,0-2.2.38,9.84,9.84,0,0,0-1.91.86,13.46,13.46,0,0,0-1.77,1.24c-.62.51-1.28,1.08-2,1.7Z"/><path class="cls-5" d="M802.89,1421.34A59.08,59.08,0,0,1,859.4,1424C1222.13,1641.54,2574.91,2452.83,2636,2488.5c53.61,31.29,53.08,127.05,50.69,162.51l15.09-7.31s20.11-124.49-50.44-165.69c-61.05-35.64-1413.83-846.93-1776.56-1064.49C850.11,1398.76,821.27,1404.06,802.89,1421.34Z"/><path class="cls-6" d="M2636,2488.48C2574.89,2452.83,1222.12,1641.54,859.4,1424c-39.47-23.67-89.74,4.28-90.49,50.3l.27,72.42L2686.65,2651S2706.5,2529.67,2636,2488.48Z"/><path class="cls-18" d="M3419.89,1944l42.39,22.47v22l163.91,94v84.26l441.19,254.46a155.94,155.94,0,0,0,155.39.26h0a155.93,155.93,0,0,1,154.93,0h0a245,245,0,0,0,179.95,25.34l243-59.46V1133.13l-410.33,105.43a1915.33,1915.33,0,0,0-476.64,193.84l-275.75,158.26Z"/><g class="cls-7"><polygon class="cls-14" points="1679.16 1003.77 1646.27 984.66 1498.53 858.26 1531.42 877.37 1679.16 1003.77"/><path class="cls-14" d="M1609.18,139.4l32.89,19.11c-21.76-12.64-51.9-10.86-85.17,8.34L1524,147.74C1557.28,128.53,1587.42,126.75,1609.18,139.4Z"/><path class="cls-14" d="M321.42,1535.14,288.53,1516c-21.49-12.48-34.81-39-34.92-76.77l32.89,19.12C286.61,1496.1,299.93,1522.65,321.42,1535.14Z"/><polygon class="cls-14" points="286.5 1458.37 253.61 1439.25 252.42 1019.65 285.31 1038.77 286.5 1458.37"/><polygon class="cls-14" points="404.62 832.13 371.72 813.01 1524.01 147.74 1556.9 166.85 404.62 832.13"/><path class="cls-14" d="M285.31,1038.77l-32.89-19.12c-.21-76,53.2-168.47,119.3-206.64l32.9,19.12C338.51,870.29,285.1,962.8,285.31,1038.77Z"/><path class="cls-15" d="M1556.9,166.85c66.1-38.16,119.87-7.53,120.09,68.43l.88,311.6.31,108,1,348.88-147.74-126.4L406.59,1526.8c-66.11,38.16-119.87,7.52-120.09-68.43l-1.19-419.6c-.21-76,53.2-168.48,119.31-206.64Z"/></g><path class="cls-9" d="M531.57,1088.53a106.51,106.51,0,0,1-17.42,58.93q-17.41,27-49.55,45.53l-15.7,9.07v70.4l-36.62,21.14V1095.66l55.16-31.84q31.41-18.15,47.77-12.08T531.57,1088.53Zm-82.67,79.14,12-7q16.89-9.75,25.28-22.25a47.65,47.65,0,0,0,8.38-27.11q0-14.76-7-17.74t-22,5.68l-16.65,9.61Z"/><path class="cls-9" d="M632,1027.86q0,31.14-10.51,52.85a75.77,75.77,0,0,1-30.82,33.43q-19.5,11.25-30.12,1.35t-10.63-40.24q0-61.87,40.75-85.4,19.95-11.52,30.64-1.65T632,1027.86Zm-52.32,30.48q0,17.19,2.66,24.12t8.56,3.52q11.34-6.56,11.34-40.67,0-33.84-11.34-27.3-5.91,3.42-8.56,13.27T579.64,1058.34ZM713.22,921.91l-95.78,253.25-28.35,16.36,95.78-253.24ZM752.9,1037.1q0,31-10.51,52.71a75.75,75.75,0,0,1-30.82,33.44q-19.49,11.25-30.12,1.34t-10.63-40.1q0-61.86,40.75-85.4,19.95-11.52,30.65-1.65T752.9,1037.1Zm-52.32,30.48q0,17.2,2.66,24.12t8.56,3.52q11.34-6.54,11.34-40.66,0-33.85-11.34-27.3-5.91,3.4-8.56,13.27T700.58,1067.58Z"/><path class="cls-9" d="M904.44,798.79l-4.85,52.62,44.06-39.52,3.9,31.87L907.39,870.2l26.34,25-26.81,31.86-18.43-31.74-16.18,51.45-27.87,0,26.1-55.28L830.62,911l4.6-36.51,43.11-10.81-4.84-47Z"/><path class="cls-9" d="M1179.15,850.85,1137.34,875l-40.15-51.69L1057,921.36,1017.82,944l57.28-135.16-53.62-64.9,40.39-23.32,37.21,49.74,36.49-92.29L1175,655.29l-54.21,129.46Z"/><path class="cls-9" d="M1252.38,699.58V669.93l117.28-67.71v29.65Zm0,52.4V722.33l117.28-67.71v29.65Z"/><path class="cls-9" d="M1518.36,538.57l36-102.3,39.45-22.77-57.28,154v77l-36.38,21V589.83l-57.28-89.19,39.68-22.91Z"/><text class="cls-19" transform="matrix(0.87, -0.5, 0.87, 0.5, 1221.33, 1489.4)">10<tspan class="cls-20" x="112.62" y="0">% * </tspan><tspan x="298.3" y="0">15</tspan></text><text class="cls-21" transform="matrix(0.88, -0.48, 0.85, 0.52, 1846.29, 1223.89)">1,5</text><text class="cls-22" transform="matrix(0.87, -0.52, 0.87, 0.49, 2783.52, 1015.79)">Calculate The Percentage</text><text class="cls-23" transform="matrix(0.87, -0.53, 0.88, 0.48, 3061.21, 1186.3)">1. 10% of 15<tspan x="0" y="351.39">2. 20% of 30</tspan><tspan x="0" y="702.77">3. 45% of 60</tspan></text><path class="cls-24" d="M4801.68,385.58l-878.42,500.5s-4.06-2.75-11.11-8c-21.29-15.82-69.91-54.27-116.26-107.77q-4-4.61-8-9.37c-63.84-76.61,17.88-160.87,17.88-160.87l227.26-122.57A353.17,353.17,0,0,1,4055,411.18c16.22-36.49,42.59-77.7,82.77-94.55,79.16-33.19,268.13-81.71,367.7-132.78S4799.58,0,4799.58,0Z"/><path class="cls-25" d="M4071.36,1036.74s91.93,130.23,183.86,125.12,194.07-97,194.07-97,86.82,12.77,158.32-25.54,102.14-173.64,102.14-173.64L4605.06,686.9Z"/><path class="cls-24" d="M4799.58,0V906.5l-327.31,10.22-462.19,247.7-298.77,592.42s-68.94,153.22-211.94,183.86c-27.17,5.81-49,7.31-66.51,5.9a55.66,55.66,0,0,1-32.28-13.36c-21.6-18.71-27.7-52.9-7.59-78.19,28.54-35.9,55.82-97.78,73.49-142.78,12.45-31.68,20.13-55,20.13-55L3740,970a628.32,628.32,0,0,1,222-292.2c131.86-95.08,318-226.93,438.81-302.46C4605.05,247.7,4799.58,0,4799.58,0Z"/><path class="cls-24" d="M4799.58,769.89,4231.47,1292a356.93,356.93,0,0,0-62.13,75.21l-149.66,242.3a136.56,136.56,0,0,0,34.62,181.27h0a136.55,136.55,0,0,0,160.59,1.84l256.35-181.93q18.9-13.41,38.51-25.79l289.83-183Z"/><path class="cls-26" d="M3513.11,1772.58c-18.24,43.93-59,128.79-112.53,160.66-21.6-18.71-27.7-52.9-7.59-78.19,28.54-35.9,55.82-97.78,73.49-142.78l32.63,18.89A33.16,33.16,0,0,1,3513.11,1772.58Z"/><path class="cls-26" d="M4055,1645.49c26.74,18.9,67.84,53.84,91.12,102.74a42.3,42.3,0,0,1-4.73,44.14c-10.92,14-30.1,29.45-62.37,32.14-61.29,5.11-107.25-62.56-94.49-117.46,4.19-18,16.48-38.16,26.81-53.54A31,31,0,0,1,4055,1645.49Z"/></g></svg>