<svg id="Layer_1" data-name="Layer 1" xmlns="http://www.w3.org/2000/svg" xmlns:xlink="http://www.w3.org/1999/xlink" viewBox="0 0 4500 2500"><defs><style>.cls-1{fill:none;}.cls-2{fill:#aed3f0;}.cls-3{fill:#c3dcf3;}.cls-11,.cls-12,.cls-13,.cls-14,.cls-15,.cls-16,.cls-17,.cls-18,.cls-19,.cls-20,.cls-21,.cls-22,.cls-23,.cls-24,.cls-25,.cls-26,.cls-27,.cls-28,.cls-29,.cls-3,.cls-30,.cls-31,.cls-32,.cls-33,.cls-34,.cls-35,.cls-36,.cls-37,.cls-38,.cls-39,.cls-40,.cls-41,.cls-42,.cls-43,.cls-44,.cls-45,.cls-46,.cls-47,.cls-48,.cls-5,.cls-55,.cls-56,.cls-57,.cls-58,.cls-59,.cls-63,.cls-64,.cls-65,.cls-67,.cls-9{fill-rule:evenodd;}.cls-4{clip-path:url(#clip-path);}.cls-5{fill:#deecf8;}.cls-6{fill:#00110e;fill-opacity:0.19;}.cls-7{fill:#cbe3f5;}.cls-8{fill-opacity:0.27;}.cls-10,.cls-40,.cls-65,.cls-9{fill:#fff;}.cls-10{fill-opacity:0.49;}.cls-11{fill:#84bde9;}.cls-12{fill:#5fa9e2;}.cls-13{fill:#44ae9e;}.cls-14{fill:url(#linear-gradient);}.cls-15{fill:#1e6c5f;}.cls-16{fill:#edd573;}.cls-17{fill:url(#linear-gradient-2);}.cls-18{fill:#ac9c5a;}.cls-19{fill:#ec6198;}.cls-20{fill:url(#linear-gradient-3);}.cls-21{fill:#c25680;}.cls-22{fill:url(#linear-gradient-4);}.cls-23{fill:#4198dc;}.cls-24{fill:url(#linear-gradient-5);}.cls-25{fill:#2379bd;}.cls-26{fill:#9ecbee;}.cls-27{fill:#76b6e7;}.cls-28{fill-opacity:0.09;}.cls-29{fill:url(#linear-gradient-6);}.cls-30{fill:#ba396c;}.cls-31{fill:#5fa8e2;}.cls-32{fill-opacity:0.05;}.cls-33{fill-opacity:0.13;}.cls-34{fill:#deedf9;}.cls-35{fill:#b4d6f1;}.cls-36{fill:#6db0e5;}.cls-37{fill:#4097dc;}.cls-38,.cls-39{fill-opacity:0.21;}.cls-39{stroke:#469bde;stroke-linecap:round;stroke-linejoin:round;stroke-width:10.45px;}.cls-40{fill-opacity:0.16;}.cls-41{fill:url(#linear-gradient-7);}.cls-42{fill:url(#linear-gradient-8);}.cls-43{fill:url(#linear-gradient-9);}.cls-44{fill:url(#linear-gradient-10);}.cls-45{fill:url(#linear-gradient-11);}.cls-46{fill:url(#linear-gradient-12);}.cls-47{fill:url(#linear-gradient-13);}.cls-48{fill:#f5f5f5;}.cls-49{fill-opacity:0.22;}.cls-50{fill:#4093e0;}.cls-51{fill:#67a9e6;}.cls-52{fill:#e4f1fa;}.cls-53{fill:#afd4f0;}.cls-54{fill:url(#linear-gradient-14);}.cls-55{fill:url(#linear-gradient-15);}.cls-56{fill:#ebd063;}.cls-57{fill:#e5c336;}.cls-58{fill:url(#linear-gradient-16);}.cls-59{fill:url(#linear-gradient-17);}.cls-60{fill:#f39cbe;}.cls-61{fill:#f7ecbe;}.cls-62{fill:#e7c743;}.cls-63{fill:#776a34;}.cls-64{fill:url(#linear-gradient-18);}.cls-65{fill-opacity:0.79;}.cls-66{fill:#144f7b;}.cls-67{fill:#c0dbf0;}.cls-68{fill:#365795;}</style><clipPath id="clip-path"><rect class="cls-1" y="0.25" width="4499.99" height="2499.75"/></clipPath><linearGradient id="linear-gradient" x1="1289.23" y1="1798.38" x2="1290.4" y2="1798.38" gradientTransform="matrix(97.37, -117.42, -117.42, -97.37, 87838.26, 327751.52)" gradientUnits="userSpaceOnUse"><stop offset="0" stop-color="#fff" stop-opacity="0"/><stop offset="1" stop-color="#fff"/></linearGradient><linearGradient id="linear-gradient-2" x1="1289.24" y1="1791.31" x2="1290.42" y2="1791.31" gradientTransform="matrix(700.23, -370.28, -370.28, -700.23, -237359.21, 1732839.12)" xlink:href="#linear-gradient"/><linearGradient id="linear-gradient-3" x1="1292.1" y1="1789.82" x2="1293.28" y2="1789.82" gradientTransform="matrix(-565.92, -340.54, -340.54, 565.92, 1342252.39, -571698.72)" xlink:href="#linear-gradient"/><linearGradient id="linear-gradient-4" x1="1292.26" y1="1791.07" x2="1293.44" y2="1791.07" gradientTransform="matrix(-314.76, -470.8, -470.8, 314.76, 1251584.48, 45694.28)" xlink:href="#linear-gradient"/><linearGradient id="linear-gradient-5" x1="1290.81" y1="1793.43" x2="1291.99" y2="1793.43" gradientTransform="matrix(145.8, -357.87, -357.87, -145.8, 455590.42, 724341.68)" xlink:href="#linear-gradient"/><linearGradient id="linear-gradient-6" x1="1291.38" y1="1790.93" x2="1292.56" y2="1790.93" gradientTransform="matrix(-204.32, -641.78, -641.78, 204.32, 1416607.89, 464373.26)" xlink:href="#linear-gradient"/><linearGradient id="linear-gradient-7" x1="1291.37" y1="1792.63" x2="1292.55" y2="1792.63" gradientTransform="matrix(-138.14, -736, -736, 138.14, 1498155.23, 703712.29)" xlink:href="#linear-gradient"/><linearGradient id="linear-gradient-8" x1="1291.37" y1="1792.25" x2="1292.55" y2="1792.25" gradientTransform="matrix(-138.14, -736, -736, 138.14, 1498160.21, 703716.29)" xlink:href="#linear-gradient"/><linearGradient id="linear-gradient-9" x1="1291.37" y1="1791.74" x2="1292.55" y2="1791.74" gradientTransform="matrix(-138.14, -736, -736, 138.14, 1498159.42, 703716.7)" xlink:href="#linear-gradient"/><linearGradient id="linear-gradient-10" x1="1291.37" y1="1791.27" x2="1292.55" y2="1791.27" gradientTransform="matrix(-138.14, -736.01, -736.01, 138.14, 1498162.83, 703718.3)" xlink:href="#linear-gradient"/><linearGradient id="linear-gradient-11" x1="1291.37" y1="1790.76" x2="1292.55" y2="1790.76" gradientTransform="matrix(-138.14, -736, -736, 138.14, 1498161.49, 703716.61)" xlink:href="#linear-gradient"/><linearGradient id="linear-gradient-12" x1="1291.37" y1="1790.3" x2="1292.55" y2="1790.3" gradientTransform="matrix(-138.14, -736, -736, 138.14, 1498153.35, 703715.64)" xlink:href="#linear-gradient"/><linearGradient id="linear-gradient-13" x1="1291.37" y1="1789.84" x2="1292.55" y2="1789.84" gradientTransform="matrix(-138.14, -736, -736, 138.14, 1498162.27, 703715.59)" xlink:href="#linear-gradient"/><linearGradient id="linear-gradient-14" x1="1290.03" y1="1791.83" x2="1291.21" y2="1791.83" gradientTransform="matrix(502.91, -576.07, -576.07, -502.91, 383663.16, 1646194.04)" gradientUnits="userSpaceOnUse"><stop offset="0" stop-opacity="0"/><stop offset="1"/></linearGradient><linearGradient id="linear-gradient-15" x1="1289.08" y1="1791.57" x2="1290.26" y2="1791.24" gradientTransform="matrix(877.88, -701.56, -360.52, -695.13, -485709.73, 2151671.05)" xlink:href="#linear-gradient-14"/><linearGradient id="linear-gradient-16" x1="1289.58" y1="1791.07" x2="1290.77" y2="1791.07" gradientTransform="matrix(1052.16, -923.32, -923.32, -1052.16, 297030.71, 3076714.17)" xlink:href="#linear-gradient"/><linearGradient id="linear-gradient-17" x1="1289.43" y1="1791.24" x2="1290.61" y2="1791.24" gradientTransform="matrix(990.84, -704.8, -704.8, -990.84, -14891.71, 2684974.52)" xlink:href="#linear-gradient"/><linearGradient id="linear-gradient-18" x1="1292.68" y1="1791.86" x2="1293.87" y2="1791.86" gradientTransform="matrix(-194.26, -423.92, -423.92, 194.26, 1011187.5, 200956.11)" xlink:href="#linear-gradient"/></defs><g id="D20"><rect class="cls-2" y="0.25" width="4499.99" height="2499.75"/><path class="cls-3" d="M825.53,2499.75q9.4-21.7,20.11-42.25c123.66-237.14,443.49-414.73,686.14-497,244.74-83,582.23-98.83,832.36-33.78,182.11,47.36,369.13,76.27,549.93,127.1,390.31,109.74,881.58,337.71,1294.46,218.5,95.47-27.57,204.66-70.95,291.47-130v357.45ZM4500,521.42C4365.74,411.56,4198.51,367,4029.29,335.21,3237.41,186.66,2683.62,499.07,1921.58,587.35,1325.75,656.36,746.07,408.52,321,0H4500Z"/><rect class="cls-1" y="0.25" width="4499.99" height="2499.75"/><g class="cls-4"><path class="cls-5" d="M4500,323,0,1213V2500H4500Z"/><g id="path34"><path class="cls-6" d="M3318.83,2008.12c0,226.31-573.26,409.77-1280.43,409.77S758,2234.43,758,2008.12s573.27-409.78,1280.44-409.78,1280.43,183.46,1280.43,409.78"/></g><g id="path502"><path class="cls-7" d="M3398,1844c0,306-596.41,554.11-1332.11,554.11S733.82,2150.06,733.82,1844s596.4-554.16,1332.11-554.16S3398,1538,3398,1844"/></g><g id="path5021"><path class="cls-8" d="M2837.45,2295.8c-41.42-25.1-83.4-49.42-126.87-73.09-23.74-12.93-49.58-36.69-76.73-41.68-20.61-3.79-106.92,43.84-133.66,49.9-35.49,8.06-72.74-4.34-108.75-2.49-39.33,2-74.63,18.84-112.66,23.82-31,4-64-2.78-95.61.82-28.59,3.26-47.26,27.89-74.46,31.49-30,4-57.46-14.15-87.14-12.5-50.46,2.77-98.47,21.81-148.94,23.42-121.53,3.89-229.87-31-346.32-56.1-122.88-26.54-198.06-44.61-308.71-103.3-48.5-25.72-104-36.57-150.58-62.55-148.53-82.89-277.66-232.29-147.38-382.68l171.29-128.07c110.15-36.29,230.48-32.49,345.14-43.9,221.43-22,444.35-44.41,665.48-70.33,65.46-7.67,130.17-21.6,195.76-28.2,364.51-36.63,538.74,97.94,784.25,324.18,59.88,55.18,194.18,108.49,210.61,195.52,8.39,44.41-5.51,94.09-22.49,141.57C3171.57,2167.49,3022,2241.17,2837.45,2295.8Z"/></g><path class="cls-9" d="M3398,1844c0,306-596.41,554.11-1332.11,554.11S733.81,2150,733.81,1844s596.41-554.16,1332.11-554.16S3398,1538,3398,1844Zm-19.54,1.94c0,295.57-586.81,535.19-1310.67,535.19S757.16,2141.52,757.16,1846s586.8-535.21,1310.66-535.21S3378.49,1550.35,3378.49,1846Z"/><g id="path504"><path class="cls-10" d="M1073.14,2136.79a63.86,63.86,0,0,1-17.86-2.9c-77.13-23.14-148.72-77.4-202.71-153.65-20.48-28.9-38.77-61.64-47.88-99.34-7.25-30-11.14-82.44,4.49-109.86,6.66-11.74,14.05-18.28,20.4-18.28,7.26,0,13.15,8.57,15,27.92,6.7,69.36,39.69,130.66,80.75,174.86s90,73.65,138.61,101.49c10.5,6,21.37,12.31,29,23.51s11.25,28.84,5.19,41.65c-5.21,11-14.83,14.6-25,14.6"/></g><g id="path506"><path class="cls-10" d="M1232.12,2232.39c-6.69,0-13.23-2.91-19.59-5.77l-43-19.39c-9.18-4.13-19.2-9.18-23.75-20.5-4.26-10.59,1-27.11,9.44-27.11a7.51,7.51,0,0,1,1.79.23l-2.39-6.42c1.41,0,2.82-.08,4.23-.08,25.94,0,51.86,9,74.45,25.81,11,8.22,22.54,23.71,17.72,39.08a19.76,19.76,0,0,1-17.44,14.11c-.48,0-1,0-1.43,0"/></g><g id="path508"><path class="cls-10" d="M3191,2083.45a6.67,6.67,0,0,1-3.49-.88c-5.2-3.21-4.64-13.27-2.34-20.19,10-30,34.85-45.43,52.19-68.91,24.69-33.38,33.13-81.75,38.58-127.87,1.8-15.33,3.65-31.54,11-43.74,5.57-9.29,13.83-13.35,22.38-13.35,16.44,0,34,15,35.77,36.9,1.36,16.64-3.85,32.85-9.51,47.8-20.23,53.54-47.68,102.29-80.67,143.32-17.27,21.49-37.19,41.6-60.65,46.5a15.47,15.47,0,0,1-3.24.42"/></g><path class="cls-11" d="M2928.3,1010.28l-43.83,574.36-428.82-51.51-505-411.94,10.21-116.34Z"/><path class="cls-12" d="M2150.54,1284.24l-199.89-163,10.21-116.34,967.44,5.43-2.69,35.22c-30.17,2.23-60.39,4.3-90.24,9-210,33.1-426.1,87.69-615,187.79C2196.28,1255,2173.28,1269.42,2150.54,1284.24Z"/><path class="cls-13" d="M1910.58,1510.51l62.5-492.16,548.72,419.08Z"/><path class="cls-14" d="M2517.54,1434.17l-544.46-415.82-.52,4.14a8.27,8.27,0,0,1,2.85,1.43c9.32,7.92,15.7,21.53,21.92,31.84,20.64,34.27,46.56,61.29,73.4,90.61,38.54,42.1,93.2,51.71,137.83,84.22,28.28,20.62,49.88,48.56,76,71.48,21.65,19,50.55,34.37,74.87,49.8,34.38,21.81,69.46,40.22,103.05,63,11.55,7.85,23.92,14,36.38,20.26.44.23,3.75,2.07,7.57,4.1l12.08-1.45C2518.28,1436.63,2517.94,1435.41,2517.54,1434.17Z"/><path class="cls-15" d="M1979.35,1023.13c2.56,64.87-12.3,129.35-17.59,193.7-5.08,61.93.51,129-18.48,187.85-11.26,34.92,8,85.55-14.19,103.61l-18.51,2.22,62.5-492.16Z"/><path class="cls-15" d="M1951.5,1033.47c-110,51-225.41,87.75-337.27,132.09-107.65,42.66-220.26,97.72-327.59,127-63.66,17.35-143.44,70.92-182.1,66.83l-10.29-13.15,863.24-321.35Z"/><path class="cls-16" d="M1968.26,1029.17,2552.09,763s209.36,51.13,369,220.57c5.63,6,.09,16.1,5.58,22.36Z"/><path class="cls-17" d="M2087.75,974.69,2552.09,763s163.38,39.91,311.59,166c-57.87,10-195.7,20.16-222.13,16.07-27.72-4.29-49.89-24.06-78.47-28.17-36.75-5.28-77.9,1.21-114.72,4.19-92.88,7.52-182.64,21.6-271,51.37-15.87,5.34-77.48,21.23-89.49,2.39Z"/><path class="cls-18" d="M2915.85,978c5.35,5.57,9.44,2.65,13.32,11.95,1.49,3.56,4.46,17,5.24,21.44l-966.15,17.8,42.64-19.44c13.17,1.39,26.5,4.59,39.27,2.48,96.84-16.05,192.78-17.43,290.92-17,64.59.31,127.88-6.89,192.14-10.63,53.1-3.08,106.33-2.23,159.45-4.29,40.11-1.55,82-2.73,122.17-.93,22.58,1,42.76,6,65.32,4.35C2888.72,983.13,2902.89,978.81,2915.85,978Z"/><path class="cls-16" d="M1973.08,1018.35l-62.5,492.16-290.08,9.24-612.85-147.58s-253-262.08-8.65-444.69Z"/><path class="cls-19" d="M1972.11,1026l-61.52,484.49-290.08,9.25-607.39-146.27,47.83-21.59Z"/><path class="cls-20" d="M1852.71,1007.13l117.64,32.73-.42,3.29c-105.3-10.69-280.65,5.72-361,58.86-37.81,25-5.85,72.88-49.42,94.66-39.52,19.73-84.07,17.47-126.49,24.58-152.6,25.57-308.94,82.08-466.83,57.56a186.43,186.43,0,0,1-30.09-7.19c-50.4-93-85.47-233.23,62.93-344.14Z"/><path class="cls-21" d="M1966.37,1017.73l6.71.62-62.5,492.16-3.48.1c-10.63-22.47-1.69-111.51,1.44-130.56,10.57-64.5,16.89-132.1,21.52-197.31,2.92-41.23-1.13-93.19,14.88-132.07C1950.32,1037.6,1958.14,1027.69,1966.37,1017.73Z"/><path class="cls-18" d="M1965.51,1025.45l1.31,5.83-872.57,314.91-1.4-2.7c34.68-25.47,190-85.5,223.68-97.38,114-40.2,231.75-86.15,344.83-131.66,71.52-28.77,158.92-71.23,231-87.75C1916.58,1021.15,1945.6,1026.37,1965.51,1025.45Z"/><path class="cls-19" d="M999,927.48s168.14-116.86,464.26-172.85l520.25,274.28Z"/><path class="cls-22" d="M1936.51,1004.13c-79-24.21-171.11-58.13-201.46-70.56s-184.31-72.94-208.32-65.27c-11.15,3.57,6.28,32.71-51,34.32-61.21,1.73-121-15.14-181.74-20.07s-123.42-8.64-184.64-15.5c79.12-37.17,199-83.13,354-112.42Z"/><path class="cls-21" d="M1030.23,908.15c84.54,30.76,227.19,17.37,302,19.7,41,1.28,80.13,16.31,120.69,20.83,46.88,5.22,95.32-3,141.51,2.72,70.65,8.7,139.06,24.79,210.43,29.74,43.18,3,84.14,17.14,126.55,24.3,3.62.62,8.24,1.67,13.47,3.08l38.68,20.39L999,927.48S1009.62,920.1,1030.23,908.15Z"/><path class="cls-23" d="M1983.51,1028.91,1463.26,754.63s418.38-98.18,1091.51,8.57Z"/><path class="cls-13" d="M1983.63,1029.87l-.12-1L1463.26,754.63s203.74-47.36,569.56-37.36Z"/><path class="cls-15" d="M2033.12,716.05c-15.64,2.4-17.09,59.26-21,70.68-9.69,28.14-7.54,58.23-10.3,87.6-2.39,25.5-8.36,55.85-13.67,81.19-3.51,16.78-.88,50.27-.84,68.74a25.29,25.29,0,0,1,0-2.67c.24-3.28,1.13-6.44,1.45-9.7.72-7.34,1.38-6,1.82-13.39,1.34-22.33,32.12-216.33,58.48-283.33"/><path class="cls-24" d="M1532.42,742c144.48-22.47,507.65-59.87,1017.88,20.5-60.06,24.94-119.54,50.32-182.14,69.55-31.13,9.56-174.2,58.55-203.78,46.69-24.94-10,41.52-48.38,2.25-51.8-90.37-7.85-171.85,60.07-262.31,54.93-40-2.28-76.64-20.83-113.57-34.51-68.44-25.35-136.88-47.36-204-76.55C1568,762.66,1550.22,752.28,1532.42,742Z"/><path class="cls-25" d="M1491.77,748.87c32.72,14.52,65.19,34.48,71.27,37.22,37,16.61,73.53,33.57,107.2,56.47,12.8,8.71,21.3,22,36,28.57,30.92,13.93,67,19.58,95.7,39,19.42,13.1,34.68,31.47,54.1,44.45,23.34,15.58,100.36,57.48,130.4,58.2,4.38.1,100.64-55.77,115.62-62.15,22.68-9.65,48.4-10,70.52-20.78,27.51-13.42,49.41-32.71,76.06-47.13,33.95-18.39,71-30.32,106.27-45.8,31.79-13.95,59.68-32.5,92.37-45.57,10.41-4.16,46.73-20.6,80.92-32.27q13.24,2,26.56,4.13l-571.26,265.71L1463.26,754.63S1473,752.36,1491.77,748.87Z"/><path class="cls-15" d="M1983,1028.63l-519.72-274s9.69-2.27,28.52-5.76c32.71,14.52,65.18,34.49,71.26,37.22,37,16.61,73.53,33.58,107.2,56.47,12.81,8.71,21.31,22,36,28.58,30.92,13.92,66.94,19.57,95.69,39,19.42,13.1,34.68,31.47,54.11,44.45,22.59,15.09,95.49,54.83,127.37,58Z"/><path class="cls-26" d="M2595.11,1237.38s-38.16,580.67-32,592.95,700.7,534.72,700.7,534.72l70.1-370.53,5.25-361.85Z"/><path class="cls-27" d="M2565.58,1731.2q-.4,8.38-.77,16.23c13.23,5.49,26.53,10.76,38.8,17.93,25.3,14.79,44.8,34.79,72.26,46.38,18,7.6,36.41,10,54.76,13.08,16.86,2.81,33.67,6.14,49.94,15.72,23.63,13.92,42.53,35,60.61,57.07,18.9,23.08,36.86,47.31,57.76,66.57,17.67,16.27,41.49,25,61.78,37.39,38,23.25,76.11,47,111.85,73.62,18.27,13.57,38.67,31.3,51.87,50.11,20.35,29,37.28,64.85,59.49,93.1,23.63,30,53.06,51.73,97.37,50.25a6.13,6.13,0,0,0,.76-.07l2.71-14.31a7.63,7.63,0,0,0-4-1c-38.72,1.31-64.2-18.15-84.84-44.41-22.07-28-38.8-63.63-59-92.43-14.1-20.09-35.77-39.11-55.26-53.61-36.12-26.83-74.66-50.9-113-74.38-19.44-11.91-42.45-20-59.39-35.6-20.38-18.77-37.85-42.47-56.28-65-19.25-23.51-39.55-45.75-64.7-60.57-18-10.59-36.53-14.52-55.18-17.62-17.17-2.86-34.45-5-51.33-12.09-26.83-11.32-45.76-31-70.49-45.49C2596.89,1743.67,2581.06,1737.82,2565.58,1731.2Zm5.11-96.84q-.45,8.19-.9,16.24c25.66,12.32,50.42,28.64,76.3,38.36,20.47,7.68,44.13,12.69,67,19.18,21.66,6.15,42.62,13.61,59,26.64,31,24.69,60.52,52.58,86,83,23.22,27.8,43.26,55.79,72.09,78.35,26.9,21.06,58.18,34.28,89.57,47.28,30.16,12.49,60.41,24.79,86.51,44.51,12.39,9.36,20.25,22.07,28.62,34.84,6.91,10.51,13.05,21.64,19.23,32.61,11.68,20.8,39.15,63.62,70.11,85.74,23,16.46,47.89,21.77,70.51,3.39a7.66,7.66,0,1,0-9.62-11.92c-16.72,13.57-35,8.19-52-4-29.1-20.79-54.68-61.24-65.66-80.77-6.34-11.28-12.68-22.72-19.76-33.53-9.35-14.23-18.39-28.2-32.2-38.65-27.14-20.5-58.53-33.44-89.88-46.43-30.11-12.48-60.2-25-86-45.2-28-21.87-47.26-49.15-69.77-76.1-26.11-31.24-56.41-59.86-88.18-85.18-17.86-14.23-40.63-22.66-64.3-29.39-22.45-6.39-45.7-11.25-65.8-18.8C2624.1,1664.32,2597.93,1646.94,2570.69,1634.36Zm3.34-58.16-.45,7.86-.51,8.65c19,9,37.94,18.08,57.33,25.65,30.7,12,63.07,19.37,93.89,31.23,30.51,11.73,49.16,27,66.14,42.81,18,16.71,34.29,33.92,59.5,48.56,34.15,19.83,72.21,34.77,108.77,52,35.52,16.78,69.64,35.77,97,64.2,21.49,22.37,40.54,47.26,63.07,68.6,21.06,20,45.42,35.54,65.53,56.57,11.09,11.58,19.18,25,28.95,36.28,11,12.64,23.88,22.7,43.72,25.89,7.68,1.23,15.28-1.13,22.64-5.17,8.28-4.52,16.21-11.44,24-13.89a7.67,7.67,0,0,0-4.58-14.64c-7.37,2.32-15,7.91-22.74,12.73-5.53,3.44-11,6.75-16.88,5.81-15.77-2.52-25.87-10.76-34.59-20.81-9.93-11.44-18.19-25.06-29.45-36.83-20.29-21.21-44.83-37-66.07-57.1-22.36-21.16-41.23-45.91-62.54-68.08-56.46-58.73-140.57-79.1-209.08-118.87-24.1-14-39.56-30.58-56.78-46.56-18.24-16.93-38.3-33.28-71-45.86-30.82-11.85-63.15-19.2-93.82-31.2C2615,1595.88,2594.53,1585.89,2574,1576.2Zm6.27-104.59c-.35,5.5-.69,11.07-1,16.65,9.42,4.76,18.76,9.62,27.84,15,28.75,17,55.45,38.74,85.86,52.8,28.7,13.26,52.24,17.58,74.74,21.79,31.85,6,61.49,11.78,101.94,46,30.37,25.72,49.27,61.15,78.4,87.81,55.84,51.09,119.76,97.5,184.09,137.08,15.19,9.34,39.7,27.92,63.25,41.67,16.88,9.85,33.43,17.12,46.15,17.85,12.5.74,24.29-3,35.87-7.84,10.11-4.18,20.07-9.18,30.41-11.53a7.68,7.68,0,0,0-3.37-15c-11.17,2.54-22,7.82-32.87,12.32-9.44,3.93-19,7.3-29.15,6.72-10.91-.64-24.89-7.38-39.34-15.81-23.45-13.68-47.83-32.19-62.94-41.48-63.52-39.08-126.65-84.89-181.79-135.34-29.28-26.79-48.33-62.35-78.84-88.2-36.19-30.62-64.31-40.1-92.45-46.1-26.65-5.7-53.34-8-87.7-23.91-29.94-13.84-56.19-35.34-84.49-52.08C2603.62,1483.37,2592,1477.48,2580.3,1471.61Zm6.34-102c-.44,6.93-.9,14-1.35,21.29,7,7.89,13.87,15.85,21.22,22.91,22.72,21.87,51.65,42.34,78.07,59.2,34.13,21.75,73.69,30.72,113.09,40.07,37.59,8.91,75,18.15,106.8,40.91,14.68,10.52,25.21,24.82,37,38.27,17.62,20.14,37.48,38.74,54.42,59.39,22.78,27.8,42.37,58.32,70.3,81.48,24.83,20.59,51,40.17,80.29,53.89,20.58,9.63,43.36,15.45,62.37,28.31,12.62,8.53,24.62,20.59,37.71,29.14,15,9.78,31.26,15.21,50.72,8.87a7.68,7.68,0,0,0-4.75-14.6c-14.46,4.73-26.48.15-37.62-7.14-13-8.5-25-20.51-37.5-29-19.68-13.29-43.16-19.52-64.46-29.49-28.1-13.16-53.18-32-77-51.8-27.17-22.53-46.07-52.36-68.24-79.39-17-20.8-37-39.52-54.73-59.79-12.54-14.32-23.93-29.42-39.58-40.64-33.38-23.92-72.65-34-112.18-43.35-37.73-9-75.71-17.24-108.38-38.08-25.62-16.33-53.69-36.14-75.71-57.32C2606.53,1392.54,2597,1380.51,2586.64,1369.57Zm5.84-91.51-.85,13-.25,4c19.34,12.28,37.79,29.68,56,48,32.37,32.57,63.89,68.27,97.24,87.32,64.61,36.91,138.91,43.32,203.36,81.64,32.88,19.55,57.54,47.79,81.34,77,24.7,30.34,48.46,61.77,78.68,86.6,18.38,15.1,40.2,24.18,59.6,37.62,34.94,24.17,67.61,48.47,106.16,66.76,19.8,9.38,42.8,12.88,62.91,21.7l.24-16.33c-18.57-7-38.84-10.82-56.6-19.25-37.81-17.92-69.78-41.83-104-65.51-19.06-13.19-40.55-22-58.59-36.85-29.44-24.21-52.49-54.9-76.54-84.45-24.94-30.63-50.94-60-85.4-80.52-64.51-38.36-138.88-44.84-203.58-81.77-32.29-18.45-62.63-53.27-94-84.82C2637,1310.92,2615.32,1291.13,2592.48,1278.06Z"/><path class="cls-11" d="M2562.89,1795.63c36.76,11.35,72.66,24.71,103.66,45.14,48.37,31.9,96.81,86,147.46,122.07,26.39,18.81,57,30.31,83.93,48.17,19.79,13.12,35.22,31,54.27,44.94,30.56,22.35,65.88,37.51,97.43,58.35,71.58,47.32,148,98.53,225.64,135.49,2.51,1.19,5.74,2.77,9.45,4.65L3265.14,2358c-2.87.47-5.83.92-8.86,1.36-75.16-56.57-687.37-517.54-693.17-529.05C2562.26,1828.63,2562.26,1816,2562.89,1795.63Z"/><path class="cls-28" d="M2697.42,1291.73c22.7,48.9,46.55,97.35,67.38,147.4,41.12,98.81,86.48,195.62,127.15,294.76,38.39,93.6,66.88,191.09,102.16,285.89,25.52,68.58,47.92,139.55,82.59,204.21-206.15-155.64-509.52-385.57-513.59-393.66-6.16-12.28,32-592.95,32-592.95Z"/><path class="cls-19" d="M3730.55,1142s-944.36,41.27-1046.19,46-121.07,20.11-98.37,54.21,691.74,448.82,718.46,494,361.78-135.31,361.78-135.31l112.54-325.15Z"/><path class="cls-29" d="M3750.91,1198.41,3730.55,1142s-670,29.27-942.12,41.34c25.44,5,50,13,72.53,26.35,29.75,17.61,12.82,48.13,20.19,76,7.45,28.28,37.24,60.74,58.66,79.41,70.1,61.09,280.08,96.34,371.89,103.2,40.67,3,197.23,3.76,210.4-52.07,6.58-28-37.21-53.62-13.93-82.61,31.71-39.5,94.51-54.91,137-77.52C3665.72,1245.13,3715.13,1224.54,3750.91,1198.41Z"/><path class="cls-30" d="M2593,1201.72c17.64,49.56,127.4,98.15,156.8,110.78,92.67,39.78,168.86,99.35,250.86,155.82,26.06,17.93,56.71,29.62,82.22,48.09,23.77,17.19,44.42,38.89,69.66,54.09,25.79,15.54,54.66,24.82,80.67,40.8,16.74,10.28,28.45,27.55,45.58,38,30.42,18.51,96.32,58.22,139.48,68.78-57.33,22.07-104.48,33.92-113.83,18.11-26.72-45.15-695.75-459.87-718.46-494C2573.58,1223.53,2573.7,1210.49,2593,1201.72Zm1122.44-59.1,15.1-.66,48.22,133.73-112.54,325.15s-99.41,53.55-194.23,95c24.52-32.66-4.46-48.78,22.07-75.12,26.88-26.7,74.41-24.8,99.75-51.1,32.11-33.33,10.6-85.86,21.2-124.51,6.41-23.38,26.09-27.29,37.32-44.37,10.44-15.88,39-75.21,44.7-91.82,12.94-37.43,1.21-144.11,17.4-165.05C3714.78,1143.43,3715.1,1143,3715.45,1142.62Z"/><path class="cls-11" d="M3306.88,1762.43l-49.59,527.27,188.84-32.24,302.7-365.41,41.29-439.73L3576.24,1664.2Z"/><path class="cls-11" d="M3705.09,1944.87q-5.15,2-10.35,3.87c-55.39,19.76-119.43,26.92-168.68,60.77-49,33.68-92.07,84.39-137.24,133.13-39.15,42.23-79.88,83-128,109l-1.69,18.15c53.4-26.51,98.15-70.65,140.85-116.72,44.38-47.88,86.54-97.83,134.68-130.92,44.16-30.34,100.58-38.36,151.38-54.36Zm46-76.64c-22.07,9-44.58,17-67.18,24-49.53,15.4-99.92,18.27-145,46.7-43.7,27.56-72.79,73.71-113,105.78-48.88,39-98.86,64.36-154,89.95l-1.67,17.67c59.49-27.43,112.91-54,165.18-95.6,39.79-31.73,68.43-77.53,111.65-104.81,43.92-27.69,93.16-30,141.38-45,20.51-6.39,40.94-13.49,61.05-21.47Zm5.71-60.81c-19.6,10.78-42.28,20.1-66.16,28.36-61,21.1-129.84,35.11-176.93,47.51-35.37,9.31-71.27,12.35-103.8,30.72-49.81,28.15-85,69.45-124.21,104.24-1,.93-2.08,1.84-3.12,2.75l-2,21.75c5.2-4.2,10.28-8.55,15.3-13,38.48-34.1,72.76-74.78,121.59-102.36,31.36-17.71,66.07-20.28,100.19-29.26,47.36-12.48,116.61-26.61,178-47.84,21.13-7.32,41.32-15.48,59.46-24.68Zm13.14-139.9c-18.26,10.06-36.59,20-53.33,32.63-41.11,31.06-72,67-123.59,81-28.48,7.74-58.45,11.71-88,9.93-28.34-1.72-51-7.91-79.48-1.14-23.22,5.52-39.34,18.65-60.79,28a281.92,281.92,0,0,1-64.9,19.15l-1.48,15.76a296.88,296.88,0,0,0,72.46-20.84c20.6-9,35.94-21.83,58.24-27.13,26.86-6.39,48.27-.09,75,1.53l.75,0c-19.08,7.67-34.22,21-53.26,30-20.43,9.57-46,10.84-68,13-36.05,3.53-62.36,10.75-87.42,27.24l-1.92,20.32c26.35-20.4,52.69-28.55,90.83-32.28,23.69-2.31,51.05-4.06,73-14.35s38.09-26.88,62-32.71c10.42-2.53,21.29-1.82,32.18-.85,12.19,1.1,24.45,2.55,36.34,1.44,49.35-4.64,115.64-21.09,164.23-53.65,2.9-1.94,5.76-4,8.54-6l2-21.28a182.53,182.53,0,0,1-19,14.54c-46.47,31.13-110,46.68-157.17,51.13a115.81,115.81,0,0,1-20.38-.23c10.19-1.75,20.29-4,30.21-6.7,53.6-14.57,86.08-51.31,128.8-83.59,13.4-10.12,27.82-18.51,42.4-26.6Z"/><path class="cls-31" d="M3705.09,1944.87q-5.15,2-10.35,3.87c-55.39,19.76-119.43,26.92-168.68,60.77-49,33.68-92.07,84.39-137.24,133.13-39.15,42.23-79.88,83-128,109l-1.69,18.15c53.4-26.51,98.15-70.65,140.85-116.72,44.38-47.88,86.54-97.83,134.68-130.92,44.16-30.34,100.58-38.36,151.38-54.36Zm46-76.64c-22.07,9-44.58,17-67.18,24-49.53,15.4-99.92,18.27-145,46.7-43.7,27.56-72.79,73.71-113,105.78-48.88,39-98.86,64.36-154,89.95l-1.67,17.67c59.49-27.43,112.91-54,165.18-95.6,39.79-31.73,68.43-77.53,111.65-104.81,43.92-27.69,93.16-30,141.38-45,20.51-6.39,40.94-13.49,61.05-21.47Zm5.71-60.81c-19.6,10.78-42.28,20.1-66.16,28.36-61,21.1-129.84,35.11-176.93,47.51-35.37,9.31-71.27,12.35-103.8,30.72-49.81,28.15-85,69.45-124.21,104.24-1,.93-2.08,1.84-3.12,2.75l-2,21.75c5.2-4.2,10.28-8.55,15.3-13,38.48-34.1,72.76-74.78,121.59-102.36,31.36-17.71,66.07-20.28,100.19-29.26,47.36-12.48,116.61-26.61,178-47.84,21.13-7.32,41.32-15.48,59.46-24.68Zm13.14-139.9c-18.26,10.06-36.59,20-53.33,32.63-41.11,31.06-72,67-123.59,81-28.48,7.74-58.45,11.71-88,9.93-28.34-1.72-51-7.91-79.48-1.14-23.22,5.52-39.34,18.65-60.79,28a281.92,281.92,0,0,1-64.9,19.15l-1.48,15.76a296.88,296.88,0,0,0,72.46-20.84c20.6-9,35.94-21.83,58.24-27.13,26.86-6.39,48.27-.09,75,1.53l.75,0c-19.08,7.67-34.22,21-53.26,30-20.43,9.57-46,10.84-68,13-36.05,3.53-62.36,10.75-87.42,27.24l-1.92,20.32c26.35-20.4,52.69-28.55,90.83-32.28,23.69-2.31,51.05-4.06,73-14.35s38.09-26.88,62-32.71c10.42-2.53,21.29-1.82,32.18-.85,12.19,1.1,24.45,2.55,36.34,1.44,49.35-4.64,115.64-21.09,164.23-53.65,2.9-1.94,5.76-4,8.54-6l2-21.28a182.53,182.53,0,0,1-19,14.54c-46.47,31.13-110,46.68-157.17,51.13a115.81,115.81,0,0,1-20.38-.23c10.19-1.75,20.29-4,30.21-6.7,53.6-14.57,86.08-51.31,128.8-83.59,13.4-10.12,27.82-18.51,42.4-26.6Zm-215.43,134a269.85,269.85,0,0,1-37.56,2.35c0,.19.07.39.1.58.06.36.1.75.13,1.11h0c11.73-2.86,23.92-2.26,36.18-1.16l1.21.12a11.39,11.39,0,0,1-.13-1.31A11.89,11.89,0,0,1,3554.49,1801.54Z"/><path class="cls-32" d="M3789.81,1455.54l-88.29,192.55c-39.17,88.26-73.09,190.64-123.94,273.91-31.4,51.42-65.26,99.18-90.46,154.4-6,13-11.51,26.3-17.48,39.34-8.68,18.92-8.33,18.49-17.34,37.6-7.71,16.36-39.22,74.28-44.11,110.6l37.94-6.48,302.7-365.41Z"/><path class="cls-33" d="M3753.64,1841l-4.81,51.09-302.7,365.41-188.84,32.24,7.92-84.27a68.9,68.9,0,0,1,7.07-4c30.69-15.14,66.53-9.14,95.65-31.11,21.21-16,19.94-48,41.93-61.56,24.51-15.07,59,.59,80.45-24.53,17.53-20.5,18.78-51.77,27.63-76.13,14.21-39.2,39.51-74.78,70.76-102C3629,1871,3703.55,1863.9,3753.64,1841Zm18.14-193.19c-12.43,14.08-20.46,34.52-31.58,51.46-5.79,8.78-15.11,19.32-25.45,22.79-16.38,5.49-33.88-4-49,6.23-45.53,30.76-68.8,97.44-121.18,118.91-22.58,9.24-48.7,5.21-68.2-8.89-15.46-11.17-19-34-43-24.23-20.42,8.3-32.63,31.4-49.79,44.34-26.91,20.28-59,31.84-88.33,27.11l11.57-123.06,269.36-98.23,213.88-211.88Z"/><path class="cls-34" d="M3722.35,1154.62c-1.2-6.14-1.25-11.18.42-14.51,9.68-19.46,41.11.24,51.77,8.59,31.36,24.59,43.7,60,37.47,99.54-1.92,12.21-16.71,30.43-13.76,41.89,4.71,18.27,30.39,24.79,29.8,54.79-.51,26.6-31.31,52.36-30.23,71.85.26,4.89,9.09,17.93,10.75,22.14,11.68,29.88,9,57.71-4.92,88.09-19.09,41.77-54.25,46.91-75.28,76.11-6.72,9.32,15,44.45-25.71,79.31-36.91,31.65-72,17.8-95.62,32-28,16.9-12.11,43.32-74.23,63.49-25.82,8.38-56.13,12-81.55,0-8-3.77-18-11.44-27.14-11.5-6.94,0-14.27,10.5-20.86,13-22.42,8.53-45.58,12.35-69.4,13.6-76.42,4-71-76.06-42.79-122l1.86,3.22c9.1-20,26.69-36,51.28-41,16.44-3.35,48.76,9.4,57.64,6.39,20.91-7.1,37.92-51.69,64.74-65.34,38.43-19.57,82.52,2.77,86.38,1,12.65-5.91,22.68-38.8,54.3-53.17,14.18-6.43,36.65-3.92,45.92-8.46a3,3,0,0,0,1.55-1.19c11.56-17.91,1.21-54.28,8.37-76.34,5.58-17.16,28.82-26.65,32.89-40.85,5.93-20.75-10.43-43.59-1.06-65.08,5.18-11.85,32.65-34.71,33.56-40.29,3.31-20.54-20.1-67.27-21-94.32C3707.11,1184.07,3712.67,1166.09,3722.35,1154.62Z"/><path class="cls-35" d="M3763.91,1141.45a104.81,104.81,0,0,1,10.63,7.25c31.36,24.59,43.7,60,37.47,99.54-1.92,12.21-16.71,30.43-13.76,41.89,4.71,18.27,30.39,24.79,29.8,54.79-.51,26.6-31.31,52.36-30.23,71.85.26,4.89,9.09,17.93,10.75,22.14,11.68,29.88,9,57.71-4.92,88.09-19.09,41.77-54.25,46.91-75.28,76.11-6.72,9.32,15,44.45-25.71,79.31-36.91,31.65-72,17.8-95.62,32-28,16.9-12.11,43.32-74.23,63.49-25.82,8.38-56.13,12-81.55,0-8-3.77-18-11.44-27.14-11.5-6.94,0-14.27,10.5-20.86,13-22.42,8.53-45.58,12.35-69.4,13.6-48.28,2.53-63.92-28.5-61.75-63.28,3.31,2.35,6.21,4.37,7,4.76,15.52,7.82,31,12,48.43,10.92,20.26-1.29,46.6-2.67,62.12-17.8,7.92-7.72,10.11-40.56,24-40.28,59.07,1.17,33,70,90.84,58.3,42.4-8.57-8.84-103.3,47-109.51,24.57-2.73-17.92,66.1,19.24,71.81,22.15,3.41,18.37-70.72,33.79-81.09,2.48-1.68,2.33.29,3.09,2.26,4.95,12.69,22,26.68,35.75,18.83,48.61-27.86-4.18-61,20.78-82,20.44-17.18,44.71,33.12,82.48-14.76,12.81-16.24,26.36-28.13,17.79-50.66-3.44-9-34.3-23.85-30.64-29.36,6.54-9.84,18.33-3.89,22.21-26.23,4.08-23.51-17-44.88-12.91-65.81,2.69-13.73,42.32,5.05,51.37-22.44,6.57-19.94-29.78-41.93-34.48-60-5.78-22.26,16.75-41,20.42-62.13C3783.91,1214.1,3771.09,1173.34,3763.91,1141.45Z"/><path class="cls-35" d="M3299.38,1714.29c40.21,7.63,73.62-40.93,34.82-26.33"/><path class="cls-35" d="M3509.78,1633.17c-15.56-1.41-73,33.66-54.39,53.06,15.35,16,28.35-4.11,42.36-8.43.66-.21,2.33,2.28,2.66,2.76,5.43,7.78,2,30,2.23,29.94,12.09-.58,19.29-62.65,12.81-75.75"/><path class="cls-35" d="M3640,1548c-10,7.1-17.48,15.38-24.68,25.23-15.89,21.71,3.28,39.47,18.28,17.79,5.24-7.58,6.84-16.42,6.77-25.47"/><path class="cls-35" d="M3713.39,1500.68c-11.63.44-17.83,4.84-25.43,13.79-23.81,28,44.07,48,45.05-.44"/><path class="cls-9" d="M3742.17,1162.27c-47.74,18.4,20.21,94.45,19.56,42.66-.09-7.78.22-17.21-2.47-24.65"/><path class="cls-9" d="M3741.89,1322.34c-36.67,26.3-28.85,75.39-48.34,110.71-8.71,15.81-13.7,32.8-21,49.2-2.47,5.52-4.9,11-7.51,16.5-.63,1.35-3.28,4.25-1.8,4.08,36.22-4.26,55.4-102,67.84-133,5.36-13.35,16.07-24.07,19.58-38"/><path class="cls-9" d="M3582.44,1566.71c-19.6-1.92,6.91,22.87,17,6.26"/><path class="cls-9" d="M3485.61,1599.8c-18.09-2-72.72,40.61-53.61,47.1,28,9.52,95.7-49.83,90.17-55.49"/><path class="cls-34" d="M3266.52,2245c-106.85,54.85-43.62,163.4,43.49,149.47,32.91-5.25,47.45-38.36,75.62-48.21,36.51-12.76,77.93-3.06,112.72-22,48-26.19,38.87-56.9,61.59-78.32,19.44-18.35,49.75-18.87,70.58-36.63,23.81-20.3,16.72-47.73,30.82-69.11,20.37-30.86,75.62-35.15,82.95-76.91,2.79-15.85-4.84-30-3.55-45.41,3.12-36.92,71.87-84.15,28.27-136.26-39-46.63-74,26.57-99.56,46.72-40.79,32.1-70.1,12.58-96.29,80.12-11,28.3-9.63,63.89-28.81,88.34-15.86,20.21-51.39,13.36-73,26.48-31.91,19.37-37.95,75.9-61.38,87.5-14.56,7.22-35.95-8.68-52.29-6.61-23.3,3-25.42,30.05-44.88,37.13-24.4,8.9-46.17-7.14-69.52,9.68"/><path class="cls-35" d="M3779.46,1898.36c19,45.43-35.94,86.56-38.72,119.47-1.29,15.36,6.34,29.56,3.55,45.41-7.33,41.76-62.58,46.05-82.95,76.91-14.1,21.38-7,48.81-30.82,69.11-20.83,17.76-51.14,18.28-70.58,36.63-22.72,21.42-13.56,52.13-61.59,78.32-34.79,18.94-76.21,9.24-112.72,22-28.17,9.85-42.71,43-75.62,48.21-37.64,6-70.83-10.84-87.75-36.33,35.54,2.6,75.63-11.79,102.8-30.15,18.52-12.51,36.41-34.5,55-45.32,4.92-2.87,29.34,22.45,39.58,21.67,35.16-2.65,70.33-28.35,99.35-47.53,33.92-22.42,5.18-56.75,24.61-83.89,10.31-14.41,41.42,29.08,51.8-22.53,6.66-33.12-35.8-63.61-.55-97.56,22.13-21.31,21.64,38.58,25.41,37.86,4.11-.79,7.39-3.17,10.55-5.82,13.44-11.19,14.26-32.91,28.95-42.22,14.15-9,31.85.12,44.94-8.87,22.4-15.4-.32-60.68,10.56-82.58C3728.38,1924.61,3761.56,1921,3779.46,1898.36Z"/><path class="cls-35" d="M3495,2201.45c-12.6,7.41-25.11,14.48-36.54,23.73-12.2,9.88-22.83,21.81-34.32,32.52-24.43,22.79,105.69-17,93.29-52.67"/><path class="cls-9" d="M3313.45,2272.29c-18.49-17.31-75.19,2-58.72,31.42,19.06,34,101.18-13.44,92.63-39.58"/><path class="cls-9" d="M3429.27,2208c11.45-19.31,22.33-42.37,36.72-59.6,20-23.89,46.09-25.82,72.68-34.35,3.28-1,26-17.26,25.65-3.88-.7,23.33-53.47,25.56-67.44,37-21.82,17.9-30.7,73.78-65.88,71.86"/><path class="cls-9" d="M3579.57,2047.49c3.37-36.74,23.06-72.39,57-90,14.84-7.71,33.12-7.85,46.78-17.38,7.32-5.11,41.74-45,48.24-37.27,5.82,6.93-.31,18.72-5.51,23.94-14.76,14.82-39.28,17.31-55.09,31.84-10.91,10-16.63,24.45-27.76,34.41-8.74,7.81-20,9.62-27.86,18.78-12.2,14.3-14.76,29.36-34.39,36.39"/><path class="cls-36" d="M912.66,1373.83l.44,349.76s217.18,311,444.52,349.81,845.3,31.68,845.3,31.68l302.68-72L2528,1584.53l-932.69-44.65L963,1320.29Z"/><path class="cls-37" d="M937.61,1756.38c5.6,7.2,12.08,15.38,19.38,24.32,42.14,16.57,84.22,31.76,111,51,42.43,30.55,79,72.65,129.27,91.08,60.22,22.06,127.12,22,188.82,37.6,99.61,25.24,190.71,70.14,293.72,83,112.55,14,230.85.09,342.91-11.41,54.06-5.55,108.32-1.35,162.38-8.82,31-4.29,60.58-14,91.26-19.55,59.3-10.74,116.58,4.36,175.42,1.66a326.27,326.27,0,0,0,55.59-7.78l.79-15.82a321.92,321.92,0,0,1-57.08,8.27c-59.52,2.73-117.45-12.28-177.43-1.44-30.47,5.52-59.88,15.2-90.64,19.44-53.88,7.46-108,3.25-161.85,8.77-110.93,11.4-228,25.35-339.46,11.44-102.37-12.76-192.86-57.55-291.86-82.64-61.2-15.52-127.59-15.26-187.32-37.14-49-18-84.28-59.39-125.6-89.13C1044,1795.58,988.55,1777.77,937.61,1756.38ZM913,1660.13l0,16.6c37.53,16.33,64.61,44.63,96.34,69.37,26.12,20.37,59.67,38,89.48,52.52,22,10.75,46.2,26.33,69.9,32.41,33.22,8.55,68,12.88,100.08,25.87,37.43,15.17,67.64,40.76,103.82,56.95,74.65,33.38,158.37,46.82,238.88,57.11,46.19,5.89,95.52.14,142.29,2,39.31,1.52,78.12,10.51,117.49,11.55,88.34,2.32,181.44-5,268.66-18.87,64-10.17,122.52-46.41,187.18-52.21,61.57-5.52,122.52,9.2,183.82,12.33l.76-15.32c-62-3.09-123.67-17.88-185.94-12.29-65,5.84-123.84,42.1-188.22,52.34-86.3,13.71-178.44,21-265.86,18.68-39.3-1-78-10-117.29-11.56-46.33-1.81-95.2,4-141-1.84-79.06-10.1-161.29-23.13-234.59-55.91-36.35-16.24-66.72-41.91-104.32-57.14-32.66-13.25-68.14-17.8-102-26.51-22.75-5.84-45.86-21-67-31.35-28.9-14.09-61.46-31.09-86.78-50.83C984.31,1707.13,954.91,1676.55,913,1660.13Zm0-18.78,0,15.33c27.6,6.08,55.46,10.56,78.66,16.73,36.19,9.62,71,24.58,106,37.77,36,13.56,63,36,91.59,57.94,29.93,23,61.63,45.41,106.12,58,66.36,18.77,144,15.06,212.42,13,27.62-.84,55.25-8.22,82.94-7,75.86,3.33,150.87,32.14,220.87,58.86,31.61,12.07,59.13,28.72,93.27,32.82,79.88,9.59,162.58-21.26,239.82-37.7,44-9.37,90.88-12.64,135.66-16.74,53.44-4.88,103.86-4.38,157.33-1.35,25.47,1.44,50.41,6.15,75.71,8.16l.76-15.26c-25.27-1.95-50.18-6.79-75.61-8.22-54.23-3.07-105.38-3.57-159.58,1.4-45.37,4.14-92.85,7.5-137.45,17-75.65,16.09-156.57,46.88-234.82,37.48-32.85-3.94-59.22-20.31-89.65-31.93-71.49-27.29-148.17-56.44-225.64-59.85-28.06-1.23-56.08,6.14-84.07,7-66.93,2-142.9,6-207.8-12.39-42.38-12-72.48-33.56-101-55.41-29.81-22.85-58-46-95.49-60.13-35.5-13.36-70.79-28.47-107.47-38.23C971.35,1652.13,941.81,1647.77,913,1641.35Zm-.06-54.4,0,15.38c79.46,5.61,168.31.73,241.18,37.78,41.1,20.92,72.9,52.4,107.53,80.91,36,29.65,75,56.15,129.22,65.81,24.78,4.42,49.75-.27,74.55-1.95,48.16-3.26,96.25-2.33,144.33-8.45,54.44-7,107.2-25.13,162.76-18.68,41.91,4.86,80.15,27.15,118.09,44.26,68.92,31.08,130.47,43.27,206.17,41.35,106.79-2.74,202.11-47.46,305.8-62.89,32.26-4.8,65.59,8.14,97.68,10.21q8.74.54,17.44.73l.76-15.32c-5.74-.13-11.47-.36-17.22-.73-33.13-2.13-67.6-15-100.9-10.08-103.07,15.35-197.8,60-304,62.73-73.25,1.88-132.81-9.93-199.51-40-39.35-17.76-79.14-40.48-122.6-45.51-56.81-6.6-110.79,11.6-166.45,18.69-47.78,6.1-95.57,5.13-143.43,8.37-23.57,1.59-47.3,6.35-70.84,2.15-51.35-9.14-88.1-34.49-122.19-62.57-35.49-29.19-68.21-61.3-110.32-82.72C1086.05,1588.29,994.62,1592.85,912.93,1587Zm-.1-72.89,0,16.73c35.61,15.13,72.78,25.44,96.84,27.46,41.89,3.53,88.55-.11,127.6,18.46,93.09,44.27,170.88,112.54,276.31,125.64,53,6.6,111.4,12.18,164.71,8.39,60.65-4.32,122.6-23.37,183.55-14.16,128.26,19.37,225.21,78.12,361.85,74.3,133.75-3.75,264.42-56.51,397.86-57.2l.77-15.35c-133.84.6-264.89,53.46-399,57.2-135.66,3.81-231.83-54.89-359.16-74.13-62.05-9.37-125.15,9.63-186.9,14-52.35,3.71-109.75-1.85-161.75-8.32-103.75-12.89-180-80.71-271.64-124.27-40.69-19.36-89.21-16.21-132.87-19.88C986.71,1540.92,948.52,1529.91,912.83,1514.06Zm724,124.32L912.77,1461.87l0,18c18.64,11.22,37.82,21.48,59.69,27,32.23,8.12,65,9.06,97.73,11,31.51,1.8,63,4.49,94,16.18,21.45,8.08,40,21.19,58.45,34.69,19.34,14.19,38.46,28.8,60,39.15,72.13,34.65,157.48,46,236.1,56.88,40.78,5.64,80.93-2.65,121.25-11.29,38.63-8.27,77.42-16.86,117.18-12.17,45.13,5.31,88.26,25.71,132.73,34.79,96.15,19.65,199.67,37.3,298.19,30.91,75.29-4.87,147-39.49,222.81-45.56,25.21-2,50.23,2.8,75.21,6.72,12.5,2,25,3.73,37.48,4.46l.76-15.29c-12-.72-23.91-2.45-35.87-4.33-26.16-4.13-52.38-9-78.79-6.84-75.71,6-147.38,40.66-222.58,45.52-97.2,6.3-199.31-11.25-294.15-30.63-44.89-9.17-88.45-29.64-134-35C1717.56,1621.08,1677.1,1629.76,1636.84,1638.38Z"/><path class="cls-38" d="M912.82,1504.28c18.4.52,35.32,1.35,45.9,6.67,34.26,17.2,31,71.81,67.08,90.64,44.53,23.27,67.75-13.45,107.71-12.85,36.89.55,72.61,46.12,109.81,55.49,37.45,9.41,66.61-18.93,92.66-14.37,28.35,5,38.57,44.85,72.38,48.88,28,3.33,64.16-32.38,90.33-23.46,34.15,11.67,46.13,53,87,57.06,42.4,4.24,98.49-56.53,125.4-55.5,30.07,1.18,67.22,53.58,118.2,52.28,28-.7,50.26-32.75,73.91-33.38,22.35-.58,43,23.15,63,30.77,27,10.31,63.58,10.44,92,9.28,41-1.67,35.1-32.91,58.46-39.84,15.88-4.73,70.44,17.92,93.69,17.42,33-.71,67.64-29.19,86.14-30.43,25.9-1.77,55.37,18.81,82.31,20.73,31.68,2.28,48-18.5,75.79-25,22.93-5.36,45.05,2,69.5,4.12l3.91-78.27-932.69-44.65L963,1320.29l-50.29,53.54Z"/><path class="cls-39" d="M908.47,1689.58c6.69-32.8,41.78-23.47,60.69-6.48,22.7,20.41,21.59,54.52,42,76.41,18.17,19.52,52.25,18.57,74.15,34,20.16,14.25,23.6,40.39,40.68,53.76,24,18.75,69,1.13,97.48,17.11,29.42,16.49,41,52.19,68.33,67.46,16.91,9.45,39.32,5.42,57.64,9.71,35.17,8.24,63.88,30.3,97.73,39.07,25.56,6.62,54.32,1.07,81,7,20.11,4.49,37.09,19,57.6,22.29,24.76,4,53.16-12.87,79.57-12.31,22.21.47,39.94,14.92,60.85,19.32,21.35,4.47,44.35-3.15,66.2-1,26.52,2.62,49.47,14.37,76.8,13.73,30.82-.74,54.7-23.06,85.71-24,30.09-.91,59.31,12.15,88.6,9.86,24.32-1.91,42.75-18.2,68-17.61,23.08.56,46.78,14.48,69.46,10.84,15.95-2.56,22.69-19.58,37.49-23.9,22.28-6.49,49.89-18.09,73.26-16.08,8.49.74,13.27,12,22.15,10.87,16.46-2.07,29.63-20.87,45.23-26.54,37.39-13.61,57.48-4.14,91.75.63,11.89,1.65,20.17-12,33.13-9.14,23.76,5.19,17.33,74.66,16.53,90.71-2.2,43.62-67.74,53-98.68,60-104.4,23.82-211.93,54-320.26,46.41-133.35-9.38-265.92,16.16-398.82,9.62-27.65-1.36-54-10.93-81.38-14.39-37.52-4.77-76.67,1.41-113.72-6.11-27.9-5.65-53.79-17.61-81.51-23.81-33.78-7.56-69-8-102-18.85-105.92-34.94-183.79-123.85-251.11-208.4-38.34-48.16-140.62-67.76-144.21-136.79"/><path class="cls-33" d="M913.23,1459.56l.12,231.75s104.42,90.23,183.18-6.62,110.24-54.27,205.42-21.14,70.5,87,168.83,55.6,142.51-160.31,142.51-160.31-638-174-646.53-177.29-51,13-51,13Z"/><path class="cls-40" d="M2379.2,1679.15c-107.47,13.09-214.78,52.72-321.25,73.72-58,11.46-116.6,23.11-175.06,32-166.57,25.32-206.28,139.25-45.31,188.94,151.34,46.71,327.56,88.11,484.69,44.41,60.23-16.76,138.36-64.74,168.78-122.35,39.88-75.53,17.92-201.7-76.39-221.72"/><path class="cls-40" d="M1799.89,1730.89c-63.24-12.91-125.89-1-188.26,12-30.07,6.25-359.51,101-218.54,135.21,113.14,27.42,247.83-21.32,354.53-57.7,8.14-2.78,143.81-56.67,110.71-75.84"/><path class="cls-34" d="M897.7,1063.52c-62.76-1.13-45.05,37.07-58.28,55-25.23,34.11-68.24,25.24-38.28,98.76,10.59,26,30.74,46.87,58.14,54.18,5.91,1.57,17.39.72,22.53,4,4.47,2.84-13.11,38.42-14.94,43.39-8.45,23.08-3,45.64,6.61,67.52,28.94,65.52,89.46,43.64,97.75,52.78,29.3,32.34.35,81.34,63.31,112.07,31.35,15.31,72.62,4,99.47-16.06,6.06-4.54,12.66-15.19,18.92-17.93,2.33-1,23.62,38.52,25.78,41.53,18.6,25.86,47.59,46.79,80.35,48.33,21.62,1,43.56-6.75,60.91-19.44a124.38,124.38,0,0,0,20.75-18.61c1.9-2.19,2.7-8.36,5.24-7,1.19.66,4.64,33.82,7.38,38.89,15.94,29.51,52.43,33.76,82.82,33,25.1-.68,44.95-10.33,64.44-25.79a130.55,130.55,0,0,0,17.51-17c2.24-2.58,4.61-10.76,6.5-7.91,10,15.15-2.92,41.41,9.27,58.74,29.45,41.86,111.35,19.84,144.22-4.21,9.4-6.89,17-25.5,25.93-30.42,1-.53,20.83,25.38,23.19,28,16,17.54,39.77,33.08,63.59,36,41.08,5,79.23-20.09,102.21-52.06,4.26-5.93,8.58-21,14.12-25.32,1.36-1,2,2.84,2.91,4.31,6.36,10.12,12,20.67,19.59,30,16.72,20.44,40.07,33.74,65,41.43,46.83,14.4,95.94,8.38,124.91-34.49,3-4.42,9.46-23.3,13.31-25.3,1.09-.57,8.39,5.62,9.27,6.27,23.11,17.26,43.89,36.57,74.65,35.08,34-1.64,52.74-45.29,59.65-46.51,1.39-.25,2.37,1.53,3.56,2.31,26,17.28,43.55,39,75.95,45,36.65,6.84,70.09-17.11,86.94-47.63.22-.38,6.37,1.4,7,1.57,16.26,4.26,31.48,10.6,48.31,12.81,35.18,4.58,66.47-22.34,76.53-54.8,11.32-36.58-1.39-64-19.19-94.12-10.84-18.31,4.43-47-31.35-47.57-47.2-.72-168.47,57.28-385.47,56.37-316.22-1.34-652.69-17.52-811.77-57.13C1154.28,1378.41,953.47,1301.63,897.7,1063.52Z"/><path class="cls-35" d="M799.91,1152.73c-10.42,11.24-13.91,27.36,1.23,64.51,10.59,26,30.74,46.87,58.14,54.18,5.91,1.57,17.39.72,22.53,4,4.47,2.84-13.11,38.42-14.94,43.39-8.45,23.08-3,45.64,6.61,67.52,28.94,65.52,89.46,43.64,97.75,52.78,29.3,32.34.35,81.34,63.31,112.07,31.35,15.31,72.62,4,99.47-16.06,6.06-4.54,12.66-15.19,18.92-17.93,2.33-1,23.62,38.52,25.78,41.53,18.6,25.86,47.59,46.79,80.35,48.33,21.62,1,43.56-6.75,60.91-19.44a124.38,124.38,0,0,0,20.75-18.61c1.9-2.19,2.7-8.36,5.24-7,1.19.66,4.64,33.82,7.38,38.89,15.94,29.51,52.43,33.76,82.82,33,25.1-.68,44.95-10.33,64.44-25.79a130.55,130.55,0,0,0,17.51-17c2.24-2.58,4.61-10.76,6.5-7.91,10,15.15-2.92,41.41,9.27,58.74,29.45,41.86,111.35,19.84,144.22-4.21,9.4-6.89,17-25.5,25.93-30.42,1-.53,20.83,25.38,23.19,28,16,17.54,39.77,33.08,63.59,36,41.08,5,79.23-20.09,102.21-52.06,4.26-5.93,8.58-21,14.12-25.32,1.36-1,2,2.84,2.91,4.31,6.36,10.12,12,20.67,19.59,30,16.72,20.44,40.07,33.74,65,41.43,46.83,14.4,95.94,8.38,124.91-34.49,3-4.42,9.46-23.3,13.31-25.3,1.09-.57,8.39,5.62,9.27,6.27,23.11,17.26,43.89,36.57,74.65,35.08,34-1.64,52.74-45.29,59.65-46.51,1.39-.25,2.37,1.53,3.56,2.31,26,17.28,43.55,39,75.95,45,36.65,6.84,70.09-17.11,86.94-47.63.22-.38,6.37,1.4,7,1.57,16.26,4.26,31.48,10.6,48.31,12.81,35.18,4.58,66.47-22.34,76.53-54.8,11.32-36.58-1.39-64-19.19-94.12-9.36-15.79.73-39.33-19.29-45.85,17.63,28,21.83,58.16,2.87,89.45-19.7,32.5-61.49,39.82-93.18,23-12.27-6.5-23.85-15.21-31.67-26.86-2.5-3.71-4.82-7.59-7-11.51-1.18-2.15-3.23-8.9-3.45-6.46-3.44,39.24-9.47,99.16-67.24,91.27-22-3-39-25.67-49.46-43.19-3.85-6.46-6.86-13.31-10.24-20-1.5-3-2.29-11.65-4.32-9-25.52,33.3-37.75,93.69-94,85.55-21.32-3.08-35.31-24-45.1-41.28-3.13-5.52-5.78-11.28-8.62-17-1.47-2.94-2.42-11-4.65-8.67-35.9,38.38-96.21,117.66-152.08,66.46-16.75-15.35-32.81-62.71-44.76-70.36-2.6-1.66-3,5.43-4.5,8.1a329.16,329.16,0,0,1-21.07,31.42c-19.27,26-45.48,42.94-77.5,48.17-40.11,6.55-75.06-23.34-90.65-57.85-5.71-12.64-6.42-25.86-7.84-39.43-.13-1.25-1.42-12.54-2.2-12.5-7.06.38-23.81,40.53-26.6,45-22.83,36.22-55.15,78.74-103.42,68-52.08-11.55-32.64-64.84-35.52-102.81-.45-5.9-5.14,10.69-8.14,15.8-6.22,10.58-13.21,20.58-22,29.23-23.25,23-66.15,34.89-96.52,19.66-38-19-51.75-95-51.87-95.09-1.31-.45-32.84,28.45-34.42,29.29-29.38,15.34-57.33,18.44-89.08,10.47-26.53-6.66-50.26-23.44-61.75-48.75a72.81,72.81,0,0,1-6.54-30.59c0-1.13.47-11.35-.16-11.58-6.31-2.34-5.61,12.27-8.53,18.35-10.44,21.69-22.69,41.73-44.27,53.56-64.13,35.21-108.8-17.15-112-79.64-1.53-29.47,7-58.07,6.17-87.37,0-.31-3.38,10.27-6.67,16.77-5.27,10.42-12.65,20.77-22.14,27.72-24.75,18.09-67.4,18.44-88.91-5.36-42.49-47,26.55-123.13,17.9-137-.3-.5-5.85.44-6.46.47a149.61,149.61,0,0,1-54.88-8.77C821.62,1215.26,803.31,1187.15,799.91,1152.73Z"/><path class="cls-35" d="M933.35,1253.68c-9.59,10.76-15.75,24.14-20.57,37.57-3.57,10-5.82,19.62-5.95,30.23-.12,9.8-.87,25.94,6.16,34.15,1.43,1.67,5.76,7.08,8.14,6,5.73-2.48,4.45-13.2,4.47-18,.1-16.52-.64-33.42,1-49.88,1.16-11.5,4.66-22.62,9.28-33.17,1.89-4.31,5.05-7.68,7.52-11.61.11-.18,1.93-2.85,1.25-3.28"/><path class="cls-35" d="M856.91,1093.1c3.73,9.37-1.39,18.78-7,26.08-9.59,12.44-23.52,24.81-19,42.42,2.54,10,11.16,16.68,18.26,23.33,6.58,6.16,13.16,12.47,21.07,16.89,4.55,2.54,16.3,9.62,19.23,1.62,3.72-10.15-1.93-18.14-7.44-26.12-7.49-10.85-14.89-20.7-18.89-33.45-3.61-11.5-3.06-23.31-.17-34.84,1.3-5.21,3.82-14.18-.69-18.56"/><path class="cls-35" d="M936.6,1352.27c-.1,4.93-1.77,11.45.89,16,6.48,11,31,14.17,40,5.32,7.73-7.63,3.64-18.83-6.58-21.47-10.38-2.69-19.53,4.18-29.46.74"/><path class="cls-35" d="M1049.24,1464.32c16.88,41.31,73.55,48.63,102.61,16.51,6.56-7.24,30-41.77,5.25-42.31-6.15-.13-12.8,7.44-17,11.14-11.59,10.24-25,25.59-41.93,24.18-10-.82-21.81-3.42-30.4-9.17-2.66-1.77-10.07-9.2-13.43-7.94"/><path class="cls-35" d="M1036.35,1406.34c-7.32,7.77-9.5,42,6.1,39.84,5-.72,6.43-9.23,7.13-13,2.21-11.84.75-21.19-10.36-27.34"/><path class="cls-35" d="M1347.33,1466.1a108.14,108.14,0,0,0-22.68.15c-29.38,2.74,1.08,33.42,23.16,14.45"/><path class="cls-35" d="M1460.69,1562.17c11.42-1.92,22.66-6,32-12.93,6.47-4.84,12-10.53,17.69-16.22,10.05-10,17.54-31.91-5.84-26.14-15.83,3.92-33.4,19.68-46.35,29.49-6.91,5.24-17.3,18.92-5.38,23.84"/><path class="cls-35" d="M1671.41,1518.87c-18.63,45.77-33.61,30.63-65.06,52.23-8.24,5.66-13.83,19.76-5.06,27.58,30.66,27.32,97.88-53.92,86.19-77.89"/><path class="cls-35" d="M1877.48,1540c-11.64,5.83-24.39,9.31-36.35,14.54-7.24,3.16-14.75,5.68-21.9,9.06-25.09,11.84-15.76,32.09,7.63,35.47,27.67,4,78.72-25.12,69-60.1"/><path class="cls-35" d="M2091.48,1528c-14.36,1.53-30.52,8.77-44.64,12.62-9.93,2.72-19.3,8.24-28.46,12.81-6.87,3.43-18.33,6.24-23.24,12.57-15.64,20.15,18.43,31.28,31.63,31,21.6-.51,38.34-17.34,53.11-31,7.14-6.6,24.66-22,18.19-33.69"/><path class="cls-34" d="M2149.13,1554.48c8.29,11.09,17.77,36.52,30.79,42.15,9.4,4.08,22.54-6.71,19.93-16.89-3.54-13.78-12.71-20.53-23.48-28.34"/><path class="cls-35" d="M2143,1540.89c.95,8.16,5.61,14.15,9.71,21,3,5.09,6.1,10.23,10.91,13.84,46.7,35,26.16-72.31-12.22-44.24"/><path class="cls-35" d="M2339.55,1565.73c8.33-2.35,15.37-5.29,21.8-11.16,25.9-23.63-38.9-31-30.47,3.57"/><path class="cls-9" d="M2513.58,1440.54c-10-.23-20-.16-30.06-.17-6.57,0-13.41-.5-20,.2-7.17.78-36.23,14.1-18.43,23.41,13.27,7,35,4.67,49.25,1.78,3.55-.72,48.4-10.37,31.36-21.31"/><path class="cls-9" d="M2379.64,1465.29c-17.5-2.39-36.08,5.52-53.31,8-36.73,5.39-74.65,11.41-111.59,14.6-21.14,1.82-41.9,1-63,4.23-7.27,1.08-14.59,1.82-21.84,3-.7.12-11,2.14-10.79,2.5,5.47,9.78,46.13,9.53,57.15,9.56,34.51.1,67.35-6.58,101.67-9.43,26.15-2.16,52.63-.49,78.6-4.79,4.91-.81,67-18,37.53-28.43"/><path class="cls-9" d="M2076.81,1483.94a57.37,57.37,0,0,0-21.13,1.13c-60.64,16.22,18.82,17.86,33.92,16.26,7.33-.78,14.84-7.93,5.87-13.72"/><path class="cls-9" d="M1988.79,1534.79c-9.93-1.69-49.61,9.39-21.22,16.14,6.61,1.57,60.52-3.71,34.59-17.41"/><path class="cls-9" d="M889.25,1091.94c-7.1,24.36,15.08,62.27,24.91,83.43,36.58,78.76,135.88,159.32,210.16,203.93,28.15,16.92,59.6,27.42,91.71,33.5,5.89,1.12,25.83,6.7,30.7,1.81,3-3.06-8.16-10.08-9.91-10.88-14-6.51-30.57-9.12-45.37-12.68-36.52-8.8-71.63-22.57-101.24-46.44-20.16-16.24-39.47-33.95-59.82-49.75-12.79-9.94-28.22-17.55-39.6-29.27-10-10.31-14.92-23.57-23.64-34.88s-19.75-21.25-26.7-33.87c-8.81-16-18.88-33.36-24.58-50.81-6.69-20.5-10.41-44.76-21.35-63.56"/><path class="cls-9" d="M1283.93,1418.82c-5-3.89-11.36-3.83-17.42-3.12-6.69.76-8.77,3.15-3.86,8.84a27.9,27.9,0,0,0,4.17,4c11.91,9.11,27.7,12.84,41.94,16.41,14.09,3.52,28.1,7.6,42.56,9.4,6.61.82,15,2.12,21.47.48,1.76-.46,5.45-1.18,6.17-3.28s-1.93-4.18-3.23-5.16c-4.78-3.62-11.39-6-17.16-7.36-18.71-4.48-37.54-9-56.13-13.92-5.19-1.37-10.37-3.81-15.72-4.41"/><path class="cls-9" d="M1413.75,1454.16a24.66,24.66,0,0,0-5-.81c-3.75-.31-11.81,1.88-6.79,6.84,4.2,4.18,21.82,12,25.91,3.94"/><path class="cls-9" d="M1256,1449.69c-6.83-4.62-15.89-8.93-24-10.57a75.3,75.3,0,0,0-13.74-1.19c-3.48-.06-7.18-.41-10.62.21-11.9,2.14-9.38,11.77-6.18,20.72,5.67,15.87,17.44,28,32,36,5.11,2.82,22.8,11.79,27.14,2.91,1.22-2.5-3-6.63-4.28-8.4-4.08-5.8-9.25-10.17-13.66-15.59-1.6-2-3.81-5.06-3-7.82,2.45-8,28.82,2.39,20.79-13.12"/><path class="cls-9" d="M1091.35,1382.89c-8.75-7-34.22-10.2-32.78,8.51,1.17,15.31,8.91,32,18.45,43.77,13.33,16.48,25.71,2.26,30.6-11.9,3.84-11.14-2.64-24.88-9-33.92"/><path class="cls-9" d="M945.36,1277.18c-5.62,18.06,22.9,20.47,15.69,2.43"/><path class="cls-9" d="M1495.68,1460c13.12-1.42,27.64,3.85,40.71,5.29,28.5,3.14,57.55,3.22,86.21,3.66,27.07.42,54.1,3.8,81.19,4.08,15.42.16,30.76,1.87,46.17,2.06,18.28.2,37.8-1.49,55.87,1.45,2.86.47,16,1.67,15.37,7.06-.75,6.28-14.23,4.87-18.09,4.51-21.53-1.92-42.85-1.14-64.43-1.77-39.38-1.13-78.84-.5-118.24-.5-25.31,0-51.45,1.13-76.24-5.08-10.58-2.65-45.45-8.92-52.37-15.84"/><path class="cls-9" d="M1852.59,1486.94c-1.43-1-13.84-2.92-10.6,2.36,5.39,8.78,25,13.15,25.69-1.28"/><path class="cls-9" d="M1597.1,1539.37c-5.69-.11-15.67.82-20.22,4.84-8.9,7.88,3.29,16.17,10.73,16.94,10.91,1.11,26.16-11.31,12.47-19.26"/><path class="cls-9" d="M1798.87,1516.56c-11.38-.28-19.4-7.52-30-8.22-26.48-1.78-30.25,36-15,50,7.15,6.59,97.75-20,93.76-30.92"/><path class="cls-9" d="M2515.31,1472.15c-11.16,3.14-22.37,5.49-33.76,7.62-6.18,1.16-20.51,2.42-24.55,8-35.74,49.67,106.54,36.75,64.9-7.46"/><path class="cls-34" d="M2096.16,2211.9a94,94,0,0,1-51.2,6c-11.59-1.84-39-17.29-49.94-12.91-6.87,2.73-15.76,20.11-23.33,25a139.3,139.3,0,0,1-87.48,21.85c-29.71-2.64-76.29-39.89-78.69-39.92-6.88-.09-18.56,9.81-24.3,12.62-29.49,14.36-63.49,19.47-95.5,12-34.59-8.12-97-64.56-104.78-64.94-7.3-.37-22.1,16.26-28.82,19.62-27.89,13.94-66.06,21.78-96.2,12.07-22.2-7.13-47.92-15.86-66.11-31-8.41-7-21.66-28.94-32.23-31.26-12.33-2.7-37,29.84-81.46,5.3-23.21-12.81-26.2-36.64-39.37-56-.33-.5-.56-1.22-1.13-1.37-4.27-1-22.54,12.25-28.22,13.51-21.4,4.72-51.38,2.72-69.85-9.82-15.82-10.74-27.09-27.33-22.91-46.85,1.13-5.29,17-31.59,10.22-35.32-4.13-2.28-47.94,4.82-54.45,5.23-31.68,2-64.05-9.87-88.17-30.58-22-18.89-48.3-44.85-49.21-76-.34-11.6,11.71-68.16,7.6-72.84-3.78-4.31-15.64-4.47-20.63-6.47-35.87-14.26-75.75-29.72-85.11-72.24-4.72-21.48,20.27-37,29.29-52.65,5.71-9.94-29.18-42.15,30.12-46.43,6.84-.5,11.72.47,16.26,5.56l.44,6.21c25.44,3.84,51.58,34.06,58.21,54.33,3,9.28-.85,22,2.84,30.53,4.18,9.69,17.2,13.79,22.52,23.45,3.58,6.53,2.69,16.66,8.69,21.4,12.3,9.74,57.74,14.37,80.63,29.14,25.33,16.36,48.74,67.42,49.18,67.66,16.25,8.9,39.6.56,57.47,6.56,21.32,7.17,23.29,35,40.36,41.79,23.1,9.19,63.06,1.36,92.75,11.54,28.35,9.72,57.46,41.81,72.94,44,30.65,4.33,61.9-12.94,93.12-7.32,39.9,7.19,52.88,30.05,80.57,39.51,13.16,4.49,28.5-2,42.32,2.16,8.1,2.45,19.74,13.29,27.52,13.52,10.54.31,41.57-17.38,69.12-16.81,18.7.38,38.42,3.86,55.69,11.22,10.67,4.55,22.61,16.79,34.67,17.31,8.8.39,15.43-8.51,23.42-11.23,12-4.07,26.77-3.54,39.27-3.11,18.16.63,47,21.13,59,19.78,11-1.26,42.56-22.47,66.71-26.79,26-4.65,72.23-8.56,108.23,1.29,11.29-5.21,22.5-9.59,33.49-11.66,15.54-2.91,33.48-9,48.7-2.7,6.72,2.79,22.93,21.66,28.13,21.59,12.53-.19,40.58-38.36,60.34-44.66,18.14-5.79,35.26-4.91,52.24,3.57,4.44,2.21,20.25,17,24.11,16.64,12.16-1.27,30.43-32.31,55.87-38.13,19.46-4.46,40.91-5.84,60.25-.38,5,1.41,11.51,7.2,16.4,7.46,6.73.38,18.46-11,26.38-12.25,33.16-5.12,59.5,15.91,65.21,47.86,7.07,39.61-9.06,99.11-53.15,110.5-18.42,4.75-46.52-5.53-62.5,3.53-8.05,4.56-12.06,14.74-18.75,20.88-17.06,15.67-50.61,29.28-73.63,30.25-23.82,1-46.59-27-62.06-24.57-17.77,2.84-34.05,24.53-49.46,33.28-28.79,16.39-65.41,26.48-98.42,25.81C2136.27,2227,2116.27,2221.23,2096.16,2211.9Z"/><path class="cls-35" d="M838.76,1737.22c13.51,16.18,33.3,29.09,60.35,40.21,8.31,3.41,49.68,8.78,52.73,11.65,1.12,1.05.28,51.13,2.29,59.75,6.77,29,41.79,64.93,67.55,78.54,28.57,15.09,104.84,4.5,115.35,13.63,9.88,8.61-2.85,37.26-3.56,48.48-1.63,25.51,15.37,52.64,37,66,29.2,18.11,45-14.08,65.37-12.32,7.37.63,27.31,24.72,35.14,28.93,24,13,43.52,10.22,69.22,9.66,5.81-.13,8.57,23.47,13.35,27.56,11.7,10,35.18,10.34,49.44,10.76,24,.74,52.45,1.22,74.06-11.28,9.4-5.43,16.4-14.58,20.52-24.44.24-.57.37-2.13.81-1.68,10.81,10.91-4,34.26,18.2,48.9,25.59,16.87,29.25-17.11,46.48-23.69.18-.06,5.93,10.66,6.52,11.49,7.13,9.94,18.91,17.4,29.12,23.8,34.75,21.81,91.51,46,132.81,46.15,34.75.13,64.64-36.6,97.67-33,6.53.72,13.81,22.07,18.26,26.91,16.92,18.37,42,28.11,67.2,23.91,23.08-3.85,95.46-45.52,96.9-45.59,23.14-1.13,41.48,33.34,66.21,5.68,5-5.61,4.77-14.37,9.44-19.76,1.32-1.53,16.58,8.29,18.39,9.07,14,6.08,30.73,9.46,46,7.92,18-1.81,38.15-12.19,50.39-25.69,5.2-5.71,9.51-12.73,13.56-19.33,1.54-2.49,2.31-9.13,4.67-7.41,18.32,13.27,26.87,25,53.44,22.2,7.11-.73,40.2-15.9,46-7.9,2.83,3.86,1.2,9.45,3.18,13.62,6.91,14.59,33.41,16.72,46.59,12.93,32.32-9.28,62.6-34.21,84.58-59.17,3-3.39,4.21-10.32,7.61-12.83,5.68-4.19,38.53,10.19,57.2-2.18,27.1-18,41.77-36.74,47.51-55.91.39,1.56.73,3.13,1,4.73,7.07,39.61-9.06,99.11-53.15,110.5-18.42,4.75-46.52-5.53-62.5,3.53-8.05,4.56-12.06,14.74-18.75,20.88-17.06,15.67-50.61,29.28-73.63,30.25-23.82,1-46.59-27-62.06-24.57-17.77,2.84-34.05,24.53-49.46,33.28-28.79,16.39-65.41,26.48-98.42,25.81-13.06-.27-33.06-6-53.17-15.34a94,94,0,0,1-51.2,6c-11.59-1.84-39-17.29-49.94-12.91-6.87,2.73-15.76,20.11-23.33,25a139.3,139.3,0,0,1-87.48,21.85c-29.71-2.64-76.29-39.89-78.69-39.92-6.88-.09-18.56,9.81-24.3,12.62-29.49,14.36-63.49,19.47-95.5,12-34.59-8.12-97-64.56-104.78-64.94-7.3-.37-22.1,16.26-28.82,19.62-27.89,13.94-66.06,21.78-96.2,12.07-22.2-7.13-47.92-15.86-66.11-31-8.41-7-21.66-28.94-32.23-31.26-12.33-2.7-37,29.84-81.46,5.3-23.21-12.81-26.2-36.64-39.37-56-.33-.5-.56-1.22-1.13-1.37-4.27-1-22.54,12.25-28.22,13.51-21.4,4.72-51.38,2.72-69.85-9.82-15.82-10.74-27.09-27.33-22.91-46.85,1.13-5.29,17-31.59,10.22-35.32-4.13-2.28-47.94,4.82-54.45,5.23-31.68,2-64.05-9.87-88.17-30.58-22-18.89-48.3-44.85-49.21-76-.34-11.6,11.71-68.16,7.6-72.84-3.78-4.31-15.64-4.47-20.63-6.47-35.87-14.26-75.75-29.72-85.11-72.24C833.26,1750.17,835.18,1743.46,838.76,1737.22Z"/><path class="cls-35" d="M2413.79,2084.13c-9.94-1-19.48,6.63-27.49,11.64-5.14,3.21-10.46,6.43-15.38,9.95-11.78,8.45-20.8,31.24.49,34.52,26.36,4.06,60.11-29.55,51.63-56.09"/><path class="cls-35" d="M2190.8,2097.43c-26,20.59-66.39,6.53-97.07,11-5.83.85-33.42,4.11-30.57,15.14,2.74,10.57,19.42,12.94,28,15.46,28.72,8.48,61.65,15.82,89.83,1.07,10.57-5.52,29.5-21.14,23-34.89"/><path class="cls-35" d="M2014.49,2123.63c-5.81-4.6-44.39-15.25-36.25,1.77,8.72,18.24,67.58,34.75,75,9.58"/><path class="cls-35" d="M1878,2132.14c-33.2,2.65-24.88,37.57-.13,48.76,11.76,5.33,32.59,9.55,44.16,2,16.62-10.83-3.81-36.85-15.61-43.71"/><path class="cls-35" d="M1580.8,2108.6c18.52,15,34.24,26.32,56.46,35.25,16.47,6.62,28,17.93,43.46,26.24,13.35,7.21,35,7.4,49.87,5.41,4.7-.63,15.42-7.48,12.41-13.41-5.41-10.65-18.74-16.57-28.91-21.53-14.07-6.84-28.46-10.19-42.79-15.86-16.19-6.41-30.39-16.51-47.59-21.06-11.57-3.06-27.06-13.59-38.76-7.1"/><path class="cls-35" d="M1254.4,2037c4.52,7.65,9.51,11.11,16.76,16,5.54,3.75,10.95,7.79,16.69,11.21,10.05,6,25.75,6.84,19.59-10-3.94-10.77-19.8-25.31-31.28-26.29"/><path class="cls-35" d="M1160.87,1980.23c-11.16,10.19-11.34,43.5.42,53.19,8.15,6.73,29,14.29,35.14.94,3.06-6.68.47-14.61-1.26-21.26-1.47-5.67-3-11.09-6.31-16s-7.95-16.28-13.64-18.85"/><path class="cls-35" d="M963.49,1808.89c-2.19,25.76,11.72,49.21,27.7,67.8,4.35,5,13.71,18.38,21.18,18.33,8.1,0,11.36-8.4,13.84-14.91,6.27-16.4-6.29-31.91-15-44.46-6-8.74-15.14-15.31-23.73-21.39-4.84-3.42-11.74-5-15.2-9.93"/><path class="cls-9" d="M892.31,1673.85c-8.79,0,3.31,22.85,4.76,25.21,9.54,15.73,33.88,53,53.92,57,11.35,2.22,3.38-27.48,2.09-32.62-5.1-20.19-27.83-48.42-47.32-55.16"/><path class="cls-9" d="M1016.55,1820.31c22.65,10,46,15.6,65.13,32.75,5.15,4.64,8.33,11,12.86,16.16,12.52,14.33,26.17,28.86,41.7,40,5.32,3.82,11.61,7.93,18.08,9.4,13.34,3,28.76-.66,41.49,5.52,18.23,8.85,28.22,28.5,44.69,39.56,26.32,17.67,55.44,10.59,84.43,19.54,7.86,2.42,16.2,3.24,23.16,7.93,1,.64,5.3,3.12,5.22,4.77-.2,4.51-19.43,4-22.15,3.38-13.69-3.34-28.17-7-42.16-8.64-13.1-1.5-26.23-.48-39-4.48-12.23-3.83-24-6.59-33.44-15.7-7.36-7.08-10.53-19.81-19.51-25s-18.2-2.7-27.72-5.26c-17.1-4.59-36.9-15.93-51.76-25.48-19.12-12.27-30-34.11-46.38-49.68-10-9.56-25.1-17-36.87-24.6-4.38-2.82-12.51-6.84-13.73-12.19"/><path class="cls-9" d="M1049.33,1884.58c-5.84-4.44-19.21,1.17-16.8,9.59,1.93,6.7,14.06,14,19.52,16.95a64.76,64.76,0,0,0,8.35,3.2c6.31,2.28,20.69,3.86,15.81-8.37a41.27,41.27,0,0,0-21.39-22.25"/><path class="cls-9" d="M1461,2008.87c-12.66,2.17-25.34,4.24-38,6.5-8.06,1.46-15.75,1.74-23.87,2.49-20.74,2-25.27,19.46-4.71,28.58,28.36,12.55,60.89,10.11,90.38,19,13.49,4.07,28.1,11.74,42.4,11.72,16.88,0,22-23.27,16.38-35.87-5.53-12.33-30.34-27.2-43.28-29.93"/><path class="cls-9" d="M1602.06,2047.42c-61.85-7.61,3.11,46,14.61,28.43,4.47-6.83-3.84-16.26-7.45-21.59"/><path class="cls-9" d="M1737.63,2051c-26.3-2-73.1,3.21-27.5,34.09,10.48,7.1,92.8,39.22,104.06,38.71,20-.93,131.9-31.25,62.83-57.2-27.92-10.49-51.91,16.31-78.47,9.45-22.08-5.7-25.58-29.44-52.18-25.18"/><path class="cls-9" d="M1983.71,2056.73c-14.51-6.24-69.06,17.32-36.13,32.75,11.43,5.36,44.29-.45,54-8.78,8.52-7.27.61-18.95-7.7-22"/><path class="cls-9" d="M2159.29,2040.15c-9.24-.38-17.48,1-26.5,3.16a116.53,116.53,0,0,0-18.59,6c-18.95,8-19.91,20.88.58,24.61,14.61,2.68,30.16,2.38,43.69-4.33,11.27-5.58,18.31-17.08,5.75-26.89"/><path class="cls-9" d="M2306.7,2030.38c1.47,19.68,27.7,23.53,43,20,35.48-8.1,34.7-47.6,85.27-49.23,12.87-.41,53.63-3.56,52.65,18.94-.6,13.81-24.13,14.66-33.46,15.32-14.2,1-30.87-.76-44,5.68-28.75,14.15-41.58,40.86-77.92,34-10.71-2-63.19-26.14-43.17-43.47"/><path class="cls-9" d="M2538.28,2008.63c-19.71-12.08-43.66,13.69-24.57,29.77,17.94,15.11,40.18-8.16,27.67-26.61"/><path class="cls-16" d="M164.69,217.34l221.63,46.41L207.46,555.69Z"/><path class="cls-41" d="M164.69,217.34l221.63,46.41L207.46,555.69Z"/><path class="cls-13" d="M454.42,267.7l226.22,9.54-129,317.29Z"/><path class="cls-42" d="M454.42,267.7l226.22,9.54-129,317.29Z"/><path class="cls-19" d="M841,283.81l226.41-1.62L954,605.45Z"/><path class="cls-43" d="M841,283.81l226.41-1.62L954,605.45Z"/><path class="cls-23" d="M1197,263.9l223.63-35.56L1356.77,565Z"/><path class="cls-44" d="M1197,263.9l223.63-35.56L1356.77,565Z"/><path class="cls-16" d="M1569.82,197.37l221.25-48.26-44.68,339.73Z"/><path class="cls-45" d="M1569.82,197.37l221.25-48.26-44.68,339.73Z"/><path class="cls-13" d="M1905.68,116l218.15-60.78-25.37,341.72Z"/><path class="cls-46" d="M1905.68,116l218.15-60.78-25.37,341.72Z"/><path class="cls-19" d="M2239,10.52l213.57-75.4-2.33,342.66Z"/><path class="cls-47" d="M2239,10.52l213.57-75.4-2.33,342.66Z"/><path class="cls-48" d="M-32.84,159.85S804,579.11,2489.9-63.45a8.37,8.37,0,0,0,4.84-10.78A8.33,8.33,0,0,0,2484-79.08C806.91,560.13-25.4,144.9-25.4,144.9a8.33,8.33,0,0,0-11.18,3.75A8.37,8.37,0,0,0-32.84,159.85Z"/><ellipse class="cls-49" cx="4530.23" cy="1652.7" rx="610.38" ry="137"/><ellipse class="cls-50" cx="4528.15" cy="1629.46" rx="440.87" ry="116.8"/><g id="path1810"><path class="cls-51" d="M5209.41,1473.34c0,116.82-299.39,245-668.71,245s-668.7-128.21-668.7-245,299.38-178,668.7-178,668.71,61.19,668.71,178"/></g><g id="path1814"><path class="cls-52" d="M5209.41,1473.34c0,116.82-299.39,211.52-668.71,211.52s-668.7-94.7-668.7-211.52,299.38-211.53,668.7-211.53,668.71,94.71,668.71,211.53"/></g><g id="path18141"><path class="cls-7" d="M5194.14,1468.3c0,111.36-292.54,201.64-653.42,201.64s-653.42-90.28-653.42-201.64,292.54-201.65,653.42-201.65,653.42,90.28,653.42,201.65"/></g><path id="path18142" class="cls-53" d="M4173.31,1635.07c-18-13.93-27.88-29.13-27.88-45,0-67.24,176.64-121.76,394.55-121.76s394.56,54.52,394.56,121.76c0,16.07-10.09,31.42-28.42,45.46-104.3,21.75-230.05,34.45-365.41,34.45C4404.48,1669.94,4278,1657.07,4173.31,1635.07Z"/><ellipse class="cls-49" cx="4413.07" cy="2554.87" rx="773.9" ry="173.7"/><ellipse class="cls-50" cx="4410.43" cy="2525.4" rx="558.97" ry="148.09"/><g id="path18101"><path class="cls-51" d="M5274.19,2327.46c0,148.11-379.58,310.67-847.84,310.67s-847.85-162.56-847.85-310.67,379.59-225.71,847.85-225.71,847.84,77.59,847.84,225.71"/></g><g id="path18143"><path class="cls-52" d="M5274.19,2327.46c0,148.11-379.58,268.18-847.84,268.18s-847.85-120.07-847.85-268.18,379.59-268.2,847.85-268.2,847.84,120.08,847.84,268.2"/></g><g id="path18144"><path class="cls-7" d="M5254.84,2321.06c0,141.2-370.91,255.67-828.47,255.67s-828.47-114.47-828.47-255.67,370.91-255.67,828.47-255.67,828.47,114.47,828.47,255.67"/></g><path id="path18145" class="cls-53" d="M3960.53,2532.51c-22.79-17.66-35.35-36.93-35.35-57.1,0-85.26,224-154.38,500.24-154.38s500.27,69.12,500.27,154.38c0,20.38-12.8,39.83-36,57.63-132.24,27.58-291.68,43.68-463.31,43.68C4253.62,2576.72,4093.26,2560.41,3960.53,2532.51Z"/><ellipse class="cls-54" cx="306.65" cy="1817.87" rx="340.04" ry="122.14" transform="translate(-527.36 173.75) rotate(-17.32)"/><path class="cls-55" d="M129,1758.82a821.15,821.15,0,0,1,84.74-37.9c172.84-66.34,354.79-76.75,406.08-23.23,14,14.58,16.81,32.43,10.05,52a384.5,384.5,0,0,1-51.16,23.52c-99.25,37.12-207.93,34.4-311.16,19.09-36.07-5.35-70.51-11.5-105.28-22.81C151.39,1766,140.18,1762.54,129,1758.82Z"/><path class="cls-56" d="M721.55,902.05c-178.06-148.18-394.69,97.05-609-5.46l115.08,825.69c128.6,87.93,262.25,87.12,400.82,0Z"/><path class="cls-57" d="M160.47,1240.42q4.49,11,9.28,21.7c52.42,116.58,143.05,283,259.81,345.84,34.22,18.42,73.6,27.83,111.13,36.48a443.34,443.34,0,0,0,95.37,10.92l-7.6,66.92c-138.57,87.12-272.22,87.93-400.82,0Zm-31.94-229.2-16-114.63c.65.32,1.31.64,2,1l16.74,101.51Q129.76,1005.11,128.53,1011.22Z"/><path class="cls-58" d="M685.9,1216.17l-19.31,170.14c-139.42,114.75-285,224.66-442.17,312.87l-20.74-148.79c45-26.37,86.67-58.48,130.05-87.26C452.9,1384.08,572,1303.09,685.9,1216.17ZM580.53,853.11c49-.71,96.24,11.67,141,48.94L698,1109.62c-139.76,112.64-293.25,211.45-441,307.27-21.79,14.13-43.74,28.34-66,42.08l-35.65-255.8c75.75-56.37,144-112,184.34-144.47C421.94,992.45,501.75,923.43,580.53,853.11Z"/><path class="cls-59" d="M118.7,940.74c8.3,7.77,16.27,14.82,23,21a510.46,510.46,0,0,0,149.4,93.64C372.28,1088,495.24,1090.49,542.77,1174c54.9,96.39-11.9,219.42-4.68,321.15,4.2,59.32,62.55,102.25,99.06,150.66l84.4-743.72c-178.06-148.18-394.69,97.05-609-5.46Z"/><ellipse class="cls-60" cx="417.21" cy="904.03" rx="304.44" ry="128"/><ellipse class="cls-61" cx="417.21" cy="904.03" rx="304.44" ry="128"/><ellipse class="cls-62" cx="416.91" cy="898.89" rx="285.89" ry="110.75"/><path class="cls-63" d="M139.88,926.33c31.56-32.42,142.25-74.23,275.57-74.23s246.92,41.81,278.48,74.23c-31.56,47.88-143.7,83.31-277,83.31S171.44,974.21,139.88,926.33Z"/><path class="cls-64" d="M147.77,936.29a77.16,77.16,0,0,1-7.89-10c31.56-32.42,142.25-74.23,275.57-74.23C532.29,852.1,634,884.21,678.58,914c-50,11.23-100.2,21.4-150.19,32.23-25.35,5.5-50.6,10.65-76.32,14.11-19.16,2.58-38.3,6.12-57.68,6.87-13.91.53-28.66.87-42.56-.23A110.22,110.22,0,0,1,327.11,962c-61.93-19.93,5.56-46.44,26.28-57.06,4.6-2.36,21.8-10.19,16.77-18.32-6.8-11-77,3.65-88.38,6.18A723.57,723.57,0,0,0,147.77,936.29Z"/></g><path class="cls-65" d="M2965.41,519.16c0-23.13,19.45-41.89,43.45-41.89H4362.15c24,0,43.45,18.76,43.45,41.89V902c0,23.06-19.31,41.78-43.22,41.9-147.17.73-1180.18,3.1-1287.7,3.63-13.59.07-27.08,5.76-34.54,16.76-21.83,32.24-44.29,129.32-63.19,129.86-11.57.33-11.54-19.83-11.54-26.83Z"/><path class="cls-66" d="M3322.23,574.39h-18.65v28h18.65c4.65,0,8-1.14,10.65-3.41s4-5.88,4-10.83-1.33-8.48-4-10.62S3326.88,574.39,3322.23,574.39Zm1.32,44.44h-20V653h-20V557.82h41.29c10,0,17.32,2.47,23.32,7.42q8,7.32,8,22.78c0,11.23-2.65,19.18-8,23.79C3342.2,616.49,3334.22,618.83,3323.55,618.83Z"/><path class="cls-66" d="M3398.16,583.88a9.6,9.6,0,0,0-2.66-7.28,10.43,10.43,0,0,0-14.66,0,11.29,11.29,0,0,0,0,14.56,10.43,10.43,0,0,0,14.66,0A9.69,9.69,0,0,0,3398.16,583.88Zm-10,24a22.35,22.35,0,0,1-16.66-7,23.31,23.31,0,0,1,0-33.94,22.15,22.15,0,0,1,16.66-7.09,23.65,23.65,0,0,1,17.32,7.09c4.65,4.67,6.65,10.36,6.65,17s-2,12.29-6.65,17A23.87,23.87,0,0,1,3388.18,607.87Zm62.61,12.76a10.3,10.3,0,0,0-7.33,3,11.18,11.18,0,0,0,0,14.5,10.44,10.44,0,0,0,14.65,0,11.21,11.21,0,0,0,0-14.5A10.27,10.27,0,0,0,3450.79,620.63Zm0,34.28a22.32,22.32,0,0,1-16.65-7,23.37,23.37,0,0,1,0-34,22.31,22.31,0,0,1,16.65-7c6.65,0,12.65,2.33,16.65,7,5.32,4.74,7.32,10.36,7.32,17s-2,12.3-7.32,17C3463.44,652.57,3457.44,654.91,3450.79,654.91Zm-10-95.49h9.33l-52,96.09h-10Z"/><path class="cls-66" d="M3525.84,568.44l13.32,4.41V557.29h11.32v15.56l13.32-4.41,2.67,9.62-13.32,4.28,8.67,12.83-8,5.88-9.32-12.16-8.67,12.16-8.65-5.88,9.32-12.83-14-4.28Z"/><path class="cls-66" d="M3609.83,653l24-35.62-22.65-34.68h22.65l11.32,20.45,11.32-20.45h22l-23.32,34.35,24,35.95h-22.65l-12-21.12-12,21.12Z"/><path class="cls-66" d="M3803.17,594.44v17h-69.28v-17Zm0,30.2v17h-69.28v-17Z"/><path class="cls-66" d="M3858.17,666.54l2.67.13a35.2,35.2,0,0,0,5.33-.2,10.84,10.84,0,0,0,4-1.47c1.34-.73,2-2.27,2.65-4.61a7.92,7.92,0,0,0,1.34-4.21l-26-73.5h20.66l15.32,51.92,14.65-51.92h19.32l-24,69.22c-4.66,13.36-8,21.59-11.32,24.79-2.66,3.21-8,4.81-16,4.81h-4c-.67,0-2-.06-4.67-.2Z"/><path class="cls-67" d="M3982.4,548.59a34.66,34.66,0,0,0-34.59-34.7h-700.9a34.66,34.66,0,0,0-34.59,34.7V683.18a34.66,34.66,0,0,0,34.59,34.7h700.9a34.66,34.66,0,0,0,34.59-34.7Zm-10.28,0V683.18a24.36,24.36,0,0,1-24.31,24.39h-700.9a24.37,24.37,0,0,1-24.31-24.39V548.59a24.37,24.37,0,0,1,24.31-24.39h700.9A24.36,24.36,0,0,1,3972.12,548.59Z"/><path class="cls-68" d="M3050.7,795.17V784.54a68.65,68.65,0,0,0,10.33-1,14.56,14.56,0,0,0,7.65-4.16,14,14,0,0,0,3.06-5.7,13.09,13.09,0,0,0,.59-3.18h13V850h-16V795.17Z"/><path class="cls-68" d="M3112.33,834.37q3.35-8,15.74-16.83,10.77-7.72,13.93-11.07a16.36,16.36,0,0,0,4.87-11.41,12.63,12.63,0,0,0-2.79-8.38q-2.79-3.34-8-3.34-7.09,0-9.67,5.31-1.47,3.08-1.75,9.76h-15.13q.38-10.14,3.66-16.39,6.23-11.89,22.13-11.9,12.57,0,20,7t7.43,18.49a25.1,25.1,0,0,1-5.25,15.68q-3.43,4.55-11.3,10.14l-6.24,4.44q-5.83,4.17-8,6a17.84,17.84,0,0,0-3.64,4.33h34.6V850h-54.26A37.37,37.37,0,0,1,3112.33,834.37Z"/><path class="cls-68" d="M3190.88,849.71l-17,.28V833.65h16.83Z"/><path class="cls-68" d="M3217,828.72a15,15,0,0,0,3.55,7.86q2.61,2.77,7.65,2.78,5.79,0,8.82-4.09a16.78,16.78,0,0,0,3-10.28,17.94,17.94,0,0,0-2.84-10.28q-2.85-4.19-8.86-4.19a15,15,0,0,0-4.91.72,9.79,9.79,0,0,0-5.53,4.87l-14-.65,5.57-43.91h43.66v13.27h-32.41l-2.84,17.37a33.86,33.86,0,0,1,5.63-3.13,24,24,0,0,1,8.25-1.26,24.71,24.71,0,0,1,17.16,6.64q7.32,6.63,7.32,19.29a30.32,30.32,0,0,1-7,19.68q-7,8.67-21.09,8.66-11.33,0-18.58-6.09t-8.09-17.26Z"/><path class="cls-68" d="M3292.33,791.29a8.69,8.69,0,1,0-2.54,6.16A8.41,8.41,0,0,0,3292.33,791.29Zm-8.69,20.38a20.31,20.31,0,1,1,14.4-6A19.56,19.56,0,0,1,3283.64,811.67Zm53.11,10.8a8.69,8.69,0,1,0,6.15,2.55A8.38,8.38,0,0,0,3336.75,822.47Zm0,29.11a20.37,20.37,0,1,1,14.37-6A19.56,19.56,0,0,1,3336.75,851.58Zm-8.68-81.07h8.3l-44.15,81.56h-8.47Z"/><path class="cls-66" d="M3405.34,771.12l13.32,4.41V760H3430v15.57l13.32-4.41,2.66,9.62L3432.64,785l8.67,12.83-8,5.87L3424,791.57l-8.67,12.15-8.65-5.87L3416,785l-14-4.28Z"/><path class="cls-68" d="M3496.88,834.37q3.33-8,15.73-16.83,10.77-7.72,13.94-11.07a16.39,16.39,0,0,0,4.86-11.41,12.63,12.63,0,0,0-2.78-8.38q-2.79-3.34-8-3.34-7.11,0-9.68,5.31-1.47,3.08-1.74,9.76h-15.14q.39-10.14,3.66-16.39,6.23-11.89,22.13-11.9,12.57,0,20,7t7.43,18.49a25.09,25.09,0,0,1-5.24,15.68q-3.45,4.55-11.32,10.14l-6.23,4.44q-5.83,4.17-8,6a17.57,17.57,0,0,0-3.63,4.33h34.59V850h-54.26A37.22,37.22,0,0,1,3496.88,834.37Z"/><path class="cls-68" d="M3582.78,839.25q6.93,0,9.09-7.27t2.17-21q0-14.37-2.17-21.27t-9.09-6.91q-6.95,0-9.18,6.91T3571.35,811q0,13.69,2.25,21T3582.78,839.25ZM3610.1,811q0,19.68-6.1,30.31T3582.78,852q-15.14,0-21.23-10.63t-6.1-30.31q0-19.68,6.1-30.37T3582.78,770q15.13,0,21.22,10.69T3610.1,811Z"/><path class="cls-68" d="M3645,839.25q6.93,0,9.09-7.27t2.16-21q0-14.37-2.16-21.27t-9.09-6.91q-6.95,0-9.19,6.91T3633.59,811q0,13.69,2.24,21T3645,839.25ZM3672.34,811q0,19.68-6.1,30.31T3645,852q-15.15,0-21.24-10.63T3617.69,811q0-19.68,6.09-30.37T3645,770q15.14,0,21.22,10.69T3672.34,811Z"/><path class="cls-68" d="M3707.25,839.25q6.95,0,9.1-7.27t2.16-21q0-14.37-2.16-21.27t-9.1-6.91q-6.93,0-9.18,6.91T3695.83,811q0,13.69,2.24,21T3707.25,839.25ZM3734.58,811q0,19.68-6.1,30.31T3707.25,852q-15.14,0-21.23-10.63T3679.93,811q0-19.68,6.09-30.37T3707.25,770q15.14,0,21.23,10.69T3734.58,811Z"/><path class="cls-68" d="M3784.52,819.84c0-5.67-1.19-10-3.58-12.94a11.67,11.67,0,0,0-9.59-4.44q-8.2,0-11.31,7.73a27.57,27.57,0,0,0-1.64,10.14,23.15,23.15,0,0,0,1.75,9.27q3.17,7.56,11.36,7.56a12,12,0,0,0,9.24-4.14Q3784.52,828.88,3784.52,819.84Zm-9.07-29.65a18.77,18.77,0,0,1,9.18,8.66v-8.61h15.13v56.68q0,11.57-3.88,17.43-6.66,10.08-25.57,10.08-11.42,0-18.63-4.49a16.61,16.61,0,0,1-8-13.43h16.94a7.1,7.1,0,0,0,2.13,4c1.68,1.42,4.5,2.14,8.47,2.14q8.41,0,11.26-5.65,1.85-3.62,1.85-12.17V841a19.08,19.08,0,0,1-4.8,5.75q-4.65,3.57-12.08,3.56-11.47,0-18.33-8.08t-6.86-21.9q0-13.32,6.61-22.39t18.74-9.07A20.35,20.35,0,0,1,3775.45,790.19Z"/><path class="cls-68" d="M3848.72,788.93v16c-1-.11-1.85-.18-2.62-.22s-1.38-.05-1.86-.05q-9.39,0-12.62,6.14-1.8,3.45-1.8,10.63V850h-15.69V790.24H3829v10.42q3.6-6,6.28-8.17c2.92-2.45,6.7-3.67,11.37-3.67l.74,0Z"/><path class="cls-68" d="M3974.48,800.27v14.42H3915.3V800.27Zm0,25.6v14.42H3915.3V825.87Z"/><path class="cls-68" d="M4046.27,834.37q3.33-8,15.74-16.83,10.75-7.72,13.94-11.07a16.38,16.38,0,0,0,4.85-11.41,12.63,12.63,0,0,0-2.78-8.38c-1.86-2.23-4.51-3.34-8-3.34q-7.1,0-9.67,5.31c-1,2.05-1.57,5.3-1.75,9.76h-15.13q.38-10.14,3.66-16.39,6.22-11.89,22.13-11.9,12.57,0,20,7t7.43,18.49a25.15,25.15,0,0,1-5.24,15.68q-3.45,4.55-11.32,10.14l-6.23,4.44q-5.85,4.17-8,6a17.84,17.84,0,0,0-3.64,4.33h34.59V850h-54.26A37.53,37.53,0,0,1,4046.27,834.37Z"/><path class="cls-68" d="M4119.82,828.72a15.12,15.12,0,0,0,3.55,7.86q2.63,2.77,7.65,2.78,5.79,0,8.83-4.09a16.78,16.78,0,0,0,3-10.28,17.86,17.86,0,0,0-2.84-10.28q-2.84-4.19-8.85-4.19a15.06,15.06,0,0,0-4.92.72,9.77,9.77,0,0,0-5.52,4.87l-14-.65,5.58-43.91H4156v13.27h-32.41l-2.84,17.37a33.47,33.47,0,0,1,5.63-3.13,24,24,0,0,1,8.25-1.26,24.73,24.73,0,0,1,17.16,6.64q7.32,6.63,7.32,19.29a30.33,30.33,0,0,1-7,19.68q-7.05,8.67-21.09,8.66-11.31,0-18.58-6.09t-8.09-17.26Z"/><path class="cls-68" d="M4194.41,839.25q6.94,0,9.1-7.27t2.16-21q0-14.37-2.16-21.27t-9.1-6.91q-6.94,0-9.18,6.91T4183,811q0,13.69,2.24,21T4194.41,839.25ZM4221.73,811q0,19.68-6.09,30.31T4194.41,852q-15.14,0-21.23-10.63T4167.09,811q0-19.68,6.09-30.37T4194.41,770q15.14,0,21.23,10.69T4221.73,811Z"/><path class="cls-68" d="M4271.67,819.84c0-5.67-1.19-10-3.58-12.94a11.67,11.67,0,0,0-9.58-4.44q-8.2,0-11.31,7.73a27.37,27.37,0,0,0-1.64,10.14,23.15,23.15,0,0,0,1.75,9.27q3.16,7.56,11.36,7.56a12,12,0,0,0,9.24-4.14Q4271.68,828.88,4271.67,819.84Zm-9.07-29.65a18.73,18.73,0,0,1,9.18,8.66v-8.61h15.14v56.68q0,11.57-3.88,17.43-6.66,10.08-25.57,10.08-11.42,0-18.64-4.49a16.61,16.61,0,0,1-8-13.43h16.94a7,7,0,0,0,2.14,4c1.67,1.42,4.5,2.14,8.47,2.14q8.42,0,11.25-5.65,1.86-3.62,1.86-12.17V841a19.1,19.1,0,0,1-4.81,5.75q-4.64,3.57-12.07,3.56-11.48,0-18.34-8.08t-6.86-21.9q0-13.32,6.62-22.39t18.74-9.07A20.3,20.3,0,0,1,4262.6,790.19Z"/><path class="cls-68" d="M4335.88,788.93v16c-1-.11-1.86-.18-2.62-.22s-1.39-.05-1.86-.05q-9.4,0-12.62,6.14c-1.21,2.3-1.8,5.84-1.8,10.63V850h-15.69V790.24h14.86v10.42q3.62-6,6.29-8.17,4.37-3.68,11.36-3.67l.74,0Z"/></g></svg>